G04 Layer_Physical_Order=1*
G04 Layer_Color=255*
%FSLAX44Y44*%
%MOMM*%
G71*
G01*
G75*
G04:AMPARAMS|DCode=10|XSize=1.2mm|YSize=1.7mm|CornerRadius=0.12mm|HoleSize=0mm|Usage=FLASHONLY|Rotation=180.000|XOffset=0mm|YOffset=0mm|HoleType=Round|Shape=RoundedRectangle|*
%AMROUNDEDRECTD10*
21,1,1.2000,1.4600,0,0,180.0*
21,1,0.9600,1.7000,0,0,180.0*
1,1,0.2400,-0.4800,0.7300*
1,1,0.2400,0.4800,0.7300*
1,1,0.2400,0.4800,-0.7300*
1,1,0.2400,-0.4800,-0.7300*
%
%ADD10ROUNDEDRECTD10*%
G04:AMPARAMS|DCode=11|XSize=1mm|YSize=1.5mm|CornerRadius=0.125mm|HoleSize=0mm|Usage=FLASHONLY|Rotation=180.000|XOffset=0mm|YOffset=0mm|HoleType=Round|Shape=RoundedRectangle|*
%AMROUNDEDRECTD11*
21,1,1.0000,1.2500,0,0,180.0*
21,1,0.7500,1.5000,0,0,180.0*
1,1,0.2500,-0.3750,0.6250*
1,1,0.2500,0.3750,0.6250*
1,1,0.2500,0.3750,-0.6250*
1,1,0.2500,-0.3750,-0.6250*
%
%ADD11ROUNDEDRECTD11*%
%ADD12R,1.0000X0.7000*%
%ADD13R,0.3500X0.6000*%
G04:AMPARAMS|DCode=14|XSize=1mm|YSize=1.5mm|CornerRadius=0.125mm|HoleSize=0mm|Usage=FLASHONLY|Rotation=270.000|XOffset=0mm|YOffset=0mm|HoleType=Round|Shape=RoundedRectangle|*
%AMROUNDEDRECTD14*
21,1,1.0000,1.2500,0,0,270.0*
21,1,0.7500,1.5000,0,0,270.0*
1,1,0.2500,-0.6250,-0.3750*
1,1,0.2500,-0.6250,0.3750*
1,1,0.2500,0.6250,0.3750*
1,1,0.2500,0.6250,-0.3750*
%
%ADD14ROUNDEDRECTD14*%
%ADD15R,3.0000X2.5000*%
%ADD16R,0.5000X3.0000*%
G04:AMPARAMS|DCode=17|XSize=1.2mm|YSize=1.7mm|CornerRadius=0.12mm|HoleSize=0mm|Usage=FLASHONLY|Rotation=90.000|XOffset=0mm|YOffset=0mm|HoleType=Round|Shape=RoundedRectangle|*
%AMROUNDEDRECTD17*
21,1,1.2000,1.4600,0,0,90.0*
21,1,0.9600,1.7000,0,0,90.0*
1,1,0.2400,0.7300,0.4800*
1,1,0.2400,0.7300,-0.4800*
1,1,0.2400,-0.7300,-0.4800*
1,1,0.2400,-0.7300,0.4800*
%
%ADD17ROUNDEDRECTD17*%
%ADD18O,0.2500X0.8000*%
%ADD19O,0.8000X0.2500*%
%ADD20R,2.0000X1.0000*%
%ADD21R,1.0000X2.0000*%
%ADD22C,0.3000*%
%ADD23C,0.1500*%
%ADD24C,0.3500*%
%ADD25C,0.6000*%
%ADD26C,1.0000*%
%ADD27C,0.5000*%
%ADD28C,0.4000*%
%ADD29C,0.2000*%
%ADD30C,6.0000*%
%ADD31C,1.6000*%
%ADD32R,1.6000X1.6000*%
%ADD33C,0.9000*%
%ADD34C,0.6000*%
G36*
X181763Y266243D02*
X172027Y256507D01*
X163568D01*
X163215Y256479D01*
X162871Y256397D01*
X162543Y256261D01*
X162241Y256076D01*
X161972Y255846D01*
X160654Y254528D01*
X160424Y254259D01*
X160239Y253957D01*
X160103Y253629D01*
X160021Y253285D01*
X159993Y252932D01*
Y210685D01*
X133661Y184353D01*
X133431Y184083D01*
X133246Y183781D01*
X133110Y183454D01*
X133028Y183110D01*
X133000Y182757D01*
Y174692D01*
X129296Y170988D01*
X128923Y171114D01*
X128345Y171229D01*
X127756Y171268D01*
X127168Y171229D01*
X126589Y171114D01*
X126031Y170924D01*
X125501Y170664D01*
X125011Y170336D01*
X124567Y169947D01*
X124178Y169503D01*
X123851Y169013D01*
X123590Y168484D01*
X123400Y167925D01*
X122984Y167144D01*
X122411Y166758D01*
X121783Y166757D01*
X116273D01*
X113895Y169135D01*
X113774Y169601D01*
X113939Y171061D01*
X114408Y171201D01*
X115342Y171201D01*
X115811Y171061D01*
X116255Y170672D01*
X116745Y170345D01*
X117274Y170084D01*
X117833Y169894D01*
X118411Y169779D01*
X119000Y169740D01*
X119589Y169779D01*
X120167Y169894D01*
X120726Y170084D01*
X121255Y170345D01*
X121745Y170672D01*
X122189Y171061D01*
X122578Y171505D01*
X122905Y171995D01*
X123166Y172524D01*
X123356Y173083D01*
X123471Y173661D01*
X123510Y174250D01*
X123471Y174839D01*
X123356Y175417D01*
X123166Y175976D01*
X122905Y176505D01*
X122578Y176995D01*
X122189Y177439D01*
X121745Y177828D01*
X121257Y178154D01*
Y195572D01*
X143688Y218004D01*
X149480D01*
X149602Y217756D01*
X149930Y217265D01*
X150319Y216822D01*
X150762Y216433D01*
X151253Y216105D01*
X151782Y215844D01*
X152340Y215655D01*
X152919Y215540D01*
X153507Y215501D01*
X154096Y215540D01*
X154675Y215655D01*
X155233Y215844D01*
X155762Y216105D01*
X156253Y216433D01*
X156696Y216822D01*
X157085Y217265D01*
X157413Y217756D01*
X157674Y218285D01*
X157864Y218844D01*
X157979Y219422D01*
X158017Y220011D01*
X157979Y220599D01*
X157864Y221178D01*
X157674Y221737D01*
X157413Y222266D01*
X157085Y222756D01*
X156696Y223200D01*
X156253Y223589D01*
X155872Y223843D01*
X155856Y223856D01*
X155694Y224043D01*
X155258Y224851D01*
X155291Y225742D01*
X155307Y225774D01*
X155496Y226333D01*
X155611Y226911D01*
X155650Y227500D01*
X155611Y228089D01*
X155496Y228667D01*
X155383Y229000D01*
X156000Y230500D01*
X156000D01*
Y253500D01*
X143000D01*
Y230500D01*
X143552D01*
X144022Y229405D01*
X144058Y229000D01*
X114404Y199346D01*
X114174Y199077D01*
X113989Y198775D01*
X113854Y198447D01*
X113771Y198103D01*
X113743Y197750D01*
Y180435D01*
X111915Y178606D01*
X111339Y178721D01*
X110750Y178760D01*
X110161Y178721D01*
X109583Y178606D01*
X109024Y178416D01*
X108495Y178155D01*
X108005Y177828D01*
X107841Y177684D01*
X107196Y177494D01*
X105995Y177676D01*
X105871Y177748D01*
X105500Y178073D01*
X105010Y178401D01*
X104481Y178662D01*
X103922Y178851D01*
X103344Y178966D01*
X102755Y179005D01*
X102166Y178966D01*
X101588Y178851D01*
X101029Y178662D01*
X100500Y178401D01*
X99190Y178985D01*
X99007Y179189D01*
Y195891D01*
X103346Y200229D01*
X103346Y200229D01*
X103576Y200499D01*
X103761Y200801D01*
X103897Y201128D01*
X103979Y201472D01*
X104007Y201825D01*
Y230500D01*
X116000D01*
Y253500D01*
X106227D01*
X105653Y254886D01*
X112760Y261993D01*
X133096D01*
X133422Y261505D01*
X133811Y261061D01*
X134255Y260672D01*
X134745Y260345D01*
X135274Y260084D01*
X135833Y259894D01*
X136411Y259779D01*
X137000Y259740D01*
X137589Y259779D01*
X138167Y259894D01*
X138726Y260084D01*
X139255Y260345D01*
X139745Y260672D01*
X140189Y261061D01*
X140578Y261505D01*
X140906Y261995D01*
X141166Y262524D01*
X141356Y263083D01*
X141471Y263661D01*
X141510Y264250D01*
X141471Y264839D01*
X141356Y265417D01*
X141166Y265976D01*
X141034Y266243D01*
X141337Y267052D01*
X141882Y267743D01*
X181141D01*
X181763Y266243D01*
D02*
G37*
G36*
X323227Y256081D02*
X323115Y255905D01*
X322732Y255169D01*
X322414Y254402D01*
X322165Y253611D01*
X321986Y252801D01*
X321877Y251979D01*
X321846Y251269D01*
X321672Y251001D01*
X321455Y250810D01*
X320395Y250220D01*
X320357Y250229D01*
X320004Y250257D01*
X226859D01*
X222510Y254607D01*
X223084Y255993D01*
X261274D01*
X261279Y255911D01*
X261394Y255333D01*
X261584Y254774D01*
X261845Y254245D01*
X262172Y253755D01*
X262561Y253311D01*
X263005Y252922D01*
X263495Y252595D01*
X264024Y252334D01*
X264583Y252144D01*
X265161Y252029D01*
X265750Y251990D01*
X266339Y252029D01*
X266917Y252144D01*
X267476Y252334D01*
X268005Y252595D01*
X268495Y252922D01*
X268939Y253311D01*
X269328Y253755D01*
X269655Y254245D01*
X269916Y254774D01*
X270106Y255333D01*
X270221Y255911D01*
X270260Y256500D01*
X270221Y257089D01*
X270106Y257667D01*
X269916Y258226D01*
X269655Y258755D01*
X269328Y259245D01*
X268939Y259689D01*
X268495Y260078D01*
X268005Y260405D01*
X267476Y260666D01*
X266917Y260856D01*
X266339Y260971D01*
X266232Y260978D01*
X265230Y261980D01*
X265215Y261993D01*
X265559Y263233D01*
X265743Y263493D01*
X315815D01*
X323227Y256081D01*
D02*
G37*
G36*
X182292Y235425D02*
X183000Y234872D01*
Y230500D01*
X196000D01*
X196993Y229411D01*
Y223927D01*
X193573Y220507D01*
X187103D01*
X187103Y220507D01*
X186749Y220479D01*
X186405Y220396D01*
X186078Y220261D01*
X185776Y220076D01*
X185507Y219846D01*
X185506Y219846D01*
X178413Y212753D01*
X178183Y212483D01*
X177998Y212181D01*
X177863Y211854D01*
X177780Y211510D01*
X177752Y211157D01*
Y199869D01*
X175407Y197524D01*
X175176Y197602D01*
X174597Y197717D01*
X174009Y197756D01*
X173420Y197717D01*
X172841Y197602D01*
X172283Y197413D01*
X171754Y197152D01*
X171263Y196824D01*
X170820Y196435D01*
X170431Y195992D01*
X170103Y195501D01*
X169842Y194972D01*
X169653Y194413D01*
X169537Y193835D01*
X169499Y193246D01*
X169537Y192658D01*
X169653Y192079D01*
X169842Y191521D01*
X170103Y190991D01*
X170431Y190501D01*
X170820Y190058D01*
X171263Y189669D01*
X171754Y189341D01*
X172283Y189080D01*
X172841Y188890D01*
X173420Y188775D01*
X174009Y188737D01*
X174597Y188775D01*
X175176Y188890D01*
X175734Y189080D01*
X176263Y189341D01*
X176754Y189669D01*
X176863Y189764D01*
X177382Y190058D01*
X178372Y190061D01*
X178899Y189765D01*
X179005Y189672D01*
X179495Y189345D01*
X180024Y189084D01*
X180583Y188894D01*
X180735Y188864D01*
X181228Y188707D01*
X181872Y188013D01*
X182000Y187253D01*
X181999Y187246D01*
X182038Y186657D01*
X182153Y186079D01*
X182264Y185753D01*
X181940Y185010D01*
X181349Y184259D01*
X181338Y184253D01*
X179079D01*
X178726Y184225D01*
X178381Y184142D01*
X178054Y184007D01*
X177752Y183822D01*
X177483Y183592D01*
X177483Y183592D01*
X155398Y161507D01*
X130674D01*
X130294Y162278D01*
X130242Y163007D01*
X130501Y163180D01*
X130945Y163569D01*
X131334Y164013D01*
X131662Y164503D01*
X131923Y165032D01*
X132112Y165591D01*
X132227Y166169D01*
X132263Y166717D01*
X132292Y166784D01*
X133059Y167542D01*
X134028Y167402D01*
X134631Y167266D01*
X134922Y166830D01*
X135311Y166387D01*
X135755Y165998D01*
X136245Y165670D01*
X136774Y165409D01*
X137333Y165219D01*
X137911Y165104D01*
X138500Y165066D01*
X139089Y165104D01*
X139667Y165219D01*
X140226Y165409D01*
X140755Y165670D01*
X141245Y165998D01*
X141689Y166387D01*
X142078Y166830D01*
X142406Y167321D01*
X142666Y167850D01*
X142856Y168408D01*
X142971Y168987D01*
X143010Y169576D01*
X142971Y170164D01*
X142856Y170743D01*
X142666Y171301D01*
X142406Y171830D01*
X142078Y172321D01*
X141689Y172764D01*
X141245Y173153D01*
X140757Y173479D01*
Y180315D01*
X148935Y188493D01*
X158596D01*
X158922Y188005D01*
X159311Y187561D01*
X159755Y187172D01*
X160245Y186845D01*
X160774Y186584D01*
X161333Y186394D01*
X161911Y186279D01*
X162500Y186240D01*
X163089Y186279D01*
X163667Y186394D01*
X164226Y186584D01*
X164755Y186845D01*
X165245Y187172D01*
X165689Y187561D01*
X166078Y188005D01*
X166406Y188495D01*
X166666Y189024D01*
X166856Y189583D01*
X166971Y190161D01*
X167010Y190750D01*
X166971Y191339D01*
X166856Y191917D01*
X166666Y192476D01*
X166406Y193005D01*
X166078Y193495D01*
X165689Y193939D01*
X165245Y194328D01*
X164755Y194655D01*
X164226Y194916D01*
X163667Y195106D01*
X163089Y195221D01*
X162500Y195260D01*
X161911Y195221D01*
X161333Y195106D01*
X160774Y194916D01*
X160245Y194655D01*
X159755Y194328D01*
X159311Y193939D01*
X158922Y193495D01*
X158596Y193007D01*
X150659D01*
X150084Y194393D01*
X163846Y208154D01*
X163846Y208154D01*
X164076Y208423D01*
X164261Y208725D01*
X164396Y209053D01*
X164479Y209397D01*
X164507Y209750D01*
X164507Y209750D01*
Y230500D01*
X176000D01*
Y234872D01*
X176708Y235425D01*
X177500Y235719D01*
X177774Y235584D01*
X178333Y235394D01*
X178911Y235279D01*
X179500Y235240D01*
X180089Y235279D01*
X180667Y235394D01*
X181226Y235584D01*
X181500Y235719D01*
X182292Y235425D01*
D02*
G37*
G36*
X405647Y267713D02*
X407290Y267605D01*
X408927Y267426D01*
X410555Y267176D01*
X412170Y266854D01*
X413770Y266463D01*
X415351Y266002D01*
X416911Y265472D01*
X418446Y264876D01*
X419953Y264212D01*
X421431Y263484D01*
X422874Y262692D01*
X424282Y261837D01*
X425652Y260922D01*
X426980Y259948D01*
X428265Y258917D01*
X429503Y257831D01*
X430693Y256693D01*
X431832Y255503D01*
X432917Y254265D01*
X433948Y252980D01*
X434922Y251652D01*
X435837Y250282D01*
X436692Y248874D01*
X437484Y247430D01*
X438212Y245953D01*
X438876Y244446D01*
X439473Y242911D01*
X440002Y241351D01*
X440463Y239770D01*
X440854Y238170D01*
X441175Y236555D01*
X441426Y234927D01*
X441605Y233290D01*
X441713Y231647D01*
X441748Y230059D01*
X441743Y230000D01*
Y40000D01*
X441748Y39941D01*
X441713Y38353D01*
X441605Y36710D01*
X441426Y35073D01*
X441175Y33445D01*
X440854Y31830D01*
X440463Y30230D01*
X440002Y28649D01*
X439473Y27089D01*
X438876Y25554D01*
X438212Y24047D01*
X437484Y22569D01*
X436692Y21126D01*
X435837Y19718D01*
X434922Y18348D01*
X433948Y17020D01*
X432917Y15735D01*
X431832Y14497D01*
X430693Y13307D01*
X429503Y12169D01*
X428265Y11083D01*
X426980Y10052D01*
X425652Y9078D01*
X424282Y8163D01*
X422874Y7308D01*
X421431Y6516D01*
X419953Y5788D01*
X418446Y5124D01*
X416911Y4527D01*
X415351Y3998D01*
X413770Y3537D01*
X412170Y3146D01*
X410555Y2824D01*
X408927Y2574D01*
X407290Y2395D01*
X405647Y2287D01*
X404059Y2252D01*
X404000Y2257D01*
X246159D01*
X245585Y3643D01*
X247846Y5904D01*
X248076Y6173D01*
X248261Y6475D01*
X248396Y6803D01*
X248479Y7147D01*
X248507Y7500D01*
Y28993D01*
X260993D01*
X261346Y29021D01*
X261690Y29104D01*
X262017Y29239D01*
X262319Y29424D01*
X262589Y29654D01*
X264909Y31975D01*
X265268Y31661D01*
X265758Y31333D01*
X266287Y31072D01*
X266846Y30883D01*
X267425Y30768D01*
X268013Y30729D01*
X268602Y30768D01*
X269180Y30883D01*
X269739Y31072D01*
X270268Y31333D01*
X270758Y31661D01*
X271202Y32050D01*
X271591Y32493D01*
X271919Y32984D01*
X272073Y33296D01*
X272819Y33591D01*
X273768Y33707D01*
X273789Y33702D01*
X278493Y28997D01*
Y25250D01*
X278521Y24897D01*
X278603Y24553D01*
X278739Y24225D01*
X278924Y23923D01*
X279154Y23654D01*
X279244Y23565D01*
X279129Y22989D01*
X279090Y22400D01*
X279129Y21811D01*
X279244Y21233D01*
X279434Y20674D01*
X279695Y20145D01*
X280022Y19655D01*
X280411Y19211D01*
X280855Y18822D01*
X281345Y18494D01*
X281874Y18234D01*
X282433Y18044D01*
X283011Y17929D01*
X283600Y17890D01*
X284189Y17929D01*
X284767Y18044D01*
X285326Y18234D01*
X285855Y18494D01*
X286345Y18822D01*
X286789Y19211D01*
X287178Y19655D01*
X287505Y20145D01*
X287766Y20674D01*
X287956Y21233D01*
X288071Y21811D01*
X288110Y22400D01*
X288071Y22989D01*
X287956Y23567D01*
X287766Y24126D01*
X287505Y24655D01*
X287178Y25145D01*
X286789Y25589D01*
X286345Y25978D01*
X285855Y26305D01*
X285326Y26566D01*
X284767Y26756D01*
X284189Y26871D01*
X283600Y26910D01*
X283007Y28374D01*
Y29932D01*
X282979Y30285D01*
X282896Y30629D01*
X282761Y30957D01*
X282576Y31259D01*
X282346Y31528D01*
X282346Y31528D01*
X272297Y41577D01*
X273083Y42894D01*
X273661Y42779D01*
X274250Y42740D01*
X274839Y42779D01*
X275417Y42894D01*
X275976Y43084D01*
X276505Y43344D01*
X276995Y43672D01*
X277439Y44061D01*
X279060Y45682D01*
X279115Y45688D01*
X280641Y45163D01*
X280828Y44515D01*
X281086Y43893D01*
X281412Y43303D01*
X281802Y42753D01*
X282251Y42251D01*
X282753Y41802D01*
X283303Y41412D01*
X283893Y41086D01*
X284515Y40828D01*
X285163Y40641D01*
X285827Y40528D01*
X286500Y40490D01*
X287173Y40528D01*
X287837Y40641D01*
X288485Y40828D01*
X289107Y41086D01*
X289697Y41412D01*
X290247Y41802D01*
X290491Y42020D01*
X291428Y41780D01*
X291991Y41389D01*
Y20160D01*
X286112Y14281D01*
X285774Y14166D01*
X285245Y13906D01*
X284755Y13578D01*
X284311Y13189D01*
X283922Y12745D01*
X283595Y12255D01*
X283334Y11726D01*
X283144Y11167D01*
X283029Y10589D01*
X282990Y10000D01*
X283029Y9411D01*
X283144Y8833D01*
X283334Y8274D01*
X283595Y7745D01*
X283922Y7255D01*
X284311Y6811D01*
X284755Y6422D01*
X285245Y6095D01*
X285774Y5834D01*
X286333Y5644D01*
X286911Y5529D01*
X287500Y5490D01*
X288089Y5529D01*
X288667Y5644D01*
X289226Y5834D01*
X289755Y6095D01*
X290245Y6422D01*
X290689Y6811D01*
X291078Y7255D01*
X291406Y7745D01*
X291666Y8274D01*
X291781Y8612D01*
X298834Y15666D01*
X299180Y16060D01*
X299471Y16496D01*
X299703Y16966D01*
X299872Y17463D01*
X299974Y17977D01*
X300009Y18500D01*
Y50000D01*
X299974Y50523D01*
X299872Y51038D01*
X299703Y51534D01*
X299471Y52004D01*
X299180Y52440D01*
X298834Y52835D01*
X298055Y53614D01*
X298629Y55000D01*
X312500D01*
Y88000D01*
X296500D01*
Y88000D01*
X295000Y88000D01*
X290489D01*
X290039Y88741D01*
X289872Y89500D01*
X289982Y89628D01*
X290208Y89998D01*
X290373Y90398D01*
X290474Y90818D01*
X290508Y91250D01*
Y98750D01*
X291394Y99743D01*
X291803Y99993D01*
X292300D01*
X292301Y99993D01*
X307700D01*
X307700Y99993D01*
X313500D01*
X313853Y100021D01*
X314197Y100104D01*
X314525Y100239D01*
X314827Y100424D01*
X314923Y100506D01*
X315290Y100326D01*
X315848Y100136D01*
X316427Y100021D01*
X317015Y99982D01*
X317604Y100021D01*
X318183Y100136D01*
X318741Y100326D01*
X319270Y100587D01*
X319761Y100914D01*
X320204Y101303D01*
X320593Y101747D01*
X320921Y102237D01*
X321182Y102766D01*
X321371Y103325D01*
X321487Y103903D01*
X321525Y104492D01*
X321487Y105080D01*
X321371Y105659D01*
X321182Y106218D01*
X320921Y106747D01*
X320593Y107237D01*
X320204Y107681D01*
X319761Y108070D01*
X319270Y108397D01*
X318741Y108658D01*
X318471Y108750D01*
X318719Y110250D01*
X322500D01*
Y120250D01*
X319009D01*
Y122992D01*
X322250D01*
X322682Y123025D01*
X323102Y123126D01*
X323502Y123292D01*
X323871Y123518D01*
X324201Y123799D01*
X324482Y124129D01*
X324708Y124498D01*
X324874Y124897D01*
X324975Y125318D01*
X325009Y125750D01*
Y133250D01*
X324975Y133681D01*
X324874Y134102D01*
X324708Y134502D01*
X324482Y134871D01*
X324201Y135201D01*
X323871Y135482D01*
X323502Y135708D01*
X323102Y135873D01*
X322682Y135975D01*
X322250Y136009D01*
X309750D01*
X309319Y135975D01*
X308898Y135873D01*
X308498Y135708D01*
X308129Y135482D01*
X307799Y135201D01*
X307518Y134871D01*
X307292Y134502D01*
X307127Y134102D01*
X307026Y133681D01*
X306992Y133250D01*
Y125750D01*
X307026Y125318D01*
X307127Y124897D01*
X307292Y124498D01*
X307518Y124129D01*
X307799Y123799D01*
X308129Y123518D01*
X307310Y122288D01*
X307102Y122374D01*
X306681Y122474D01*
X306250Y122508D01*
X293750D01*
X293319Y122474D01*
X292898Y122374D01*
X292498Y122208D01*
X292129Y121982D01*
X291800Y121700D01*
X291626Y121498D01*
X291307Y121386D01*
X291117Y121371D01*
X290383D01*
X290193Y121386D01*
X289874Y121498D01*
X289701Y121700D01*
X289371Y121982D01*
X289002Y122208D01*
X288602Y122373D01*
X288181Y122474D01*
X287750Y122508D01*
X285508D01*
Y126242D01*
X285508Y126250D01*
Y138750D01*
X285474Y139181D01*
X285373Y139602D01*
X285208Y140002D01*
X284982Y140371D01*
X284701Y140701D01*
X284371Y140982D01*
X284002Y141208D01*
X283602Y141374D01*
X283181Y141475D01*
X282750Y141509D01*
X276258D01*
X275599Y142579D01*
X275485Y143008D01*
X275739Y143432D01*
X276012Y144010D01*
X276228Y144611D01*
X276383Y145230D01*
X276476Y145862D01*
X276508Y146500D01*
Y155492D01*
X278300D01*
X278724Y155525D01*
X279137Y155624D01*
X279530Y155787D01*
X279892Y156009D01*
X280215Y156285D01*
X280491Y156608D01*
X280713Y156971D01*
X280876Y157363D01*
X280975Y157776D01*
X281008Y158200D01*
Y172800D01*
X280975Y173224D01*
X280876Y173637D01*
X280713Y174030D01*
X280491Y174392D01*
X280215Y174715D01*
X279892Y174991D01*
X279530Y175213D01*
X279137Y175376D01*
X278724Y175475D01*
X278300Y175508D01*
X276508D01*
Y186490D01*
X284500D01*
X285089Y186529D01*
X285667Y186644D01*
X286226Y186834D01*
X286755Y187094D01*
X287245Y187422D01*
X287689Y187811D01*
X288078Y188255D01*
X288405Y188745D01*
X288666Y189274D01*
X288856Y189833D01*
X288971Y190411D01*
X289010Y191000D01*
X288971Y191589D01*
X288856Y192167D01*
X288666Y192726D01*
X288405Y193255D01*
X288078Y193745D01*
X287689Y194189D01*
X287245Y194578D01*
X286755Y194905D01*
X286226Y195166D01*
X285667Y195356D01*
X285089Y195471D01*
X284500Y195510D01*
X276508D01*
Y208500D01*
X276476Y209138D01*
X276383Y209770D01*
X276228Y210389D01*
X276012Y210991D01*
X275739Y211568D01*
X275411Y212116D01*
X275031Y212629D01*
X274602Y213102D01*
X265009Y222695D01*
Y226250D01*
X264975Y226682D01*
X264874Y227103D01*
X264708Y227502D01*
X264482Y227871D01*
X264201Y228201D01*
X263871Y228482D01*
X263502Y228708D01*
X263102Y228874D01*
X262682Y228975D01*
X262250Y229009D01*
X258695D01*
X257211Y230493D01*
X257832Y231993D01*
X281992D01*
Y230750D01*
X282026Y230319D01*
X282127Y229898D01*
X282292Y229498D01*
X282518Y229129D01*
X282799Y228799D01*
X283002Y228626D01*
X283114Y228307D01*
X283129Y228117D01*
Y227383D01*
X283114Y227193D01*
X283002Y226874D01*
X282799Y226700D01*
X282518Y226371D01*
X282292Y226002D01*
X282127Y225602D01*
X282025Y225182D01*
X281992Y224750D01*
Y212250D01*
X282025Y211819D01*
X282127Y211398D01*
X282292Y210998D01*
X282518Y210629D01*
X282799Y210299D01*
X283129Y210018D01*
X283498Y209792D01*
X283898Y209627D01*
X284319Y209526D01*
X284750Y209492D01*
X292250D01*
X292682Y209526D01*
X293102Y209627D01*
X293502Y209792D01*
X293871Y210018D01*
X294200Y210299D01*
X294482Y210629D01*
X294708Y210998D01*
X294874Y211398D01*
X294974Y211819D01*
X295009Y212250D01*
Y224750D01*
X294974Y225182D01*
X294874Y225602D01*
X294708Y226002D01*
X294482Y226371D01*
X294379Y226492D01*
X294557Y227278D01*
X294999Y227992D01*
X297250D01*
X297682Y228025D01*
X298102Y228127D01*
X298502Y228292D01*
X298871Y228518D01*
X299200Y228799D01*
X299482Y229129D01*
X299708Y229498D01*
X299874Y229898D01*
X299974Y230319D01*
X300009Y230750D01*
Y238250D01*
X299974Y238682D01*
X299874Y239102D01*
X299708Y239502D01*
X299482Y239871D01*
X299200Y240201D01*
X298871Y240482D01*
X298502Y240708D01*
X298102Y240874D01*
X297682Y240975D01*
X297250Y241008D01*
X284750D01*
X284319Y240975D01*
X283898Y240874D01*
X283498Y240708D01*
X283129Y240482D01*
X282799Y240201D01*
X282518Y239871D01*
X282292Y239502D01*
X282127Y239102D01*
X282026Y238682D01*
X281992Y238250D01*
Y236507D01*
X225084D01*
X223653Y237250D01*
X223615Y237839D01*
X223500Y238417D01*
X223310Y238976D01*
X223049Y239505D01*
X222721Y239995D01*
X222332Y240439D01*
X221889Y240828D01*
X221398Y241155D01*
X220869Y241416D01*
X220311Y241606D01*
X219732Y241721D01*
X219144Y241760D01*
X218555Y241721D01*
X217976Y241606D01*
X217500Y241444D01*
X217415Y241418D01*
X216157Y242153D01*
X216000Y242366D01*
Y248530D01*
X217386Y249104D01*
X223086Y243404D01*
X223355Y243174D01*
X223657Y242989D01*
X223985Y242854D01*
X224329Y242771D01*
X224682Y242743D01*
X224682Y242743D01*
X317827D01*
X324266Y236304D01*
X324266Y236304D01*
X324535Y236074D01*
X324837Y235889D01*
X325164Y235753D01*
X325509Y235671D01*
X325862Y235643D01*
X345665D01*
X349457Y231851D01*
X348961Y231204D01*
X348515Y230504D01*
X348132Y229769D01*
X347814Y229002D01*
X347565Y228211D01*
X347385Y227401D01*
X347277Y226579D01*
X347241Y225750D01*
X347277Y224921D01*
X347385Y224099D01*
X347565Y223289D01*
X347814Y222498D01*
X348132Y221731D01*
X348515Y220996D01*
X348961Y220296D01*
X349466Y219638D01*
X350026Y219026D01*
X350638Y218466D01*
X351296Y217961D01*
X351996Y217515D01*
X352731Y217132D01*
X353498Y216814D01*
X354289Y216565D01*
X355099Y216385D01*
X355921Y216277D01*
X356750Y216241D01*
X357579Y216277D01*
X358401Y216385D01*
X359211Y216565D01*
X360002Y216814D01*
X360769Y217132D01*
X361505Y217515D01*
X362204Y217961D01*
X362862Y218466D01*
X363474Y219026D01*
X364034Y219638D01*
X364539Y220296D01*
X364985Y220996D01*
X365368Y221731D01*
X365686Y222498D01*
X365935Y223289D01*
X366115Y224099D01*
X366223Y224921D01*
X366259Y225750D01*
X366223Y226579D01*
X366115Y227401D01*
X365935Y228211D01*
X365686Y229002D01*
X365368Y229769D01*
X364985Y230504D01*
X364539Y231204D01*
X364034Y231862D01*
X363474Y232474D01*
X362862Y233034D01*
X362204Y233539D01*
X361505Y233985D01*
X360769Y234368D01*
X360002Y234686D01*
X359211Y234935D01*
X358401Y235114D01*
X357579Y235223D01*
X356750Y235259D01*
X355921Y235223D01*
X355099Y235114D01*
X354289Y234935D01*
X353498Y234686D01*
X353150Y234542D01*
X348242Y239450D01*
X350442Y241650D01*
X366250D01*
Y260650D01*
X347250D01*
Y244842D01*
X345565Y243157D01*
X338909D01*
X338481Y243807D01*
X338285Y244657D01*
X338634Y245038D01*
X339139Y245696D01*
X339585Y246395D01*
X339968Y247131D01*
X340286Y247898D01*
X340535Y248689D01*
X340715Y249499D01*
X340823Y250321D01*
X340859Y251150D01*
X340823Y251979D01*
X340715Y252801D01*
X340535Y253611D01*
X340286Y254402D01*
X339968Y255169D01*
X339585Y255905D01*
X339139Y256604D01*
X338634Y257262D01*
X338074Y257874D01*
X337462Y258434D01*
X336804Y258939D01*
X336105Y259385D01*
X335369Y259768D01*
X334602Y260086D01*
X333811Y260335D01*
X333001Y260515D01*
X332179Y260623D01*
X331350Y260659D01*
X330521Y260623D01*
X329699Y260515D01*
X328889Y260335D01*
X328098Y260086D01*
X327331Y259768D01*
X326595Y259385D01*
X326419Y259273D01*
X319449Y266243D01*
X320070Y267743D01*
X404000D01*
X404059Y267748D01*
X405647Y267713D01*
D02*
G37*
G36*
X96493Y233930D02*
Y214796D01*
X96000Y213500D01*
X87170D01*
X87147Y213514D01*
X86559Y214269D01*
X86243Y215000D01*
X86356Y215333D01*
X86471Y215911D01*
X86510Y216500D01*
X86471Y217089D01*
X86356Y217667D01*
X86166Y218226D01*
X85905Y218755D01*
X85578Y219245D01*
X85189Y219689D01*
X84745Y220078D01*
X84255Y220405D01*
X83726Y220666D01*
X83167Y220856D01*
X82589Y220971D01*
X82000Y221010D01*
X81411Y220971D01*
X80835Y220856D01*
X80346Y221346D01*
X80077Y221576D01*
X79775Y221761D01*
X79447Y221896D01*
X79103Y221979D01*
X78750Y222007D01*
X74507D01*
Y231993D01*
X91500D01*
X91853Y232021D01*
X92198Y232104D01*
X92525Y232239D01*
X92827Y232424D01*
X93096Y232654D01*
X94993Y234551D01*
X96493Y233930D01*
D02*
G37*
G36*
X40000Y267743D02*
X76101D01*
X77500Y267500D01*
Y258500D01*
X78493D01*
Y256432D01*
X78521Y256079D01*
X78604Y255735D01*
X78739Y255407D01*
X78924Y255105D01*
X79154Y254836D01*
X81836Y252154D01*
X82105Y251924D01*
X82407Y251739D01*
X82735Y251604D01*
X83079Y251521D01*
X83432Y251493D01*
X84000D01*
Y248607D01*
X83993Y248500D01*
Y243886D01*
X84021Y243461D01*
X84104Y243043D01*
X84241Y242640D01*
X84255Y242611D01*
X84240Y242386D01*
X84279Y241798D01*
X84394Y241219D01*
X84584Y240660D01*
X84845Y240131D01*
X85172Y239641D01*
X85561Y239197D01*
X86005Y238808D01*
X86495Y238481D01*
X87024Y238220D01*
X87583Y238030D01*
X87699Y238007D01*
X87552Y236507D01*
X73568D01*
X73215Y236479D01*
X72871Y236397D01*
X72543Y236261D01*
X72241Y236076D01*
X71972Y235846D01*
X70654Y234528D01*
X70424Y234259D01*
X70239Y233957D01*
X70104Y233629D01*
X70021Y233285D01*
X69993Y232932D01*
Y221068D01*
X70021Y220715D01*
X70104Y220371D01*
X70239Y220043D01*
X70424Y219741D01*
X70654Y219472D01*
X71972Y218154D01*
X72241Y217924D01*
X72543Y217739D01*
X72871Y217603D01*
X73215Y217521D01*
X73568Y217493D01*
X76183D01*
X77490Y216500D01*
X77529Y215911D01*
X77644Y215333D01*
X77757Y215000D01*
X77441Y214269D01*
X76853Y213514D01*
X76830Y213500D01*
X73000D01*
Y206007D01*
X66250D01*
X66250Y206007D01*
X65897Y205979D01*
X65553Y205896D01*
X65225Y205761D01*
X64923Y205576D01*
X64654Y205346D01*
X62407Y203099D01*
X62178Y202830D01*
X61992Y202528D01*
X61857Y202201D01*
X61774Y201856D01*
X61746Y201503D01*
Y195822D01*
X60570Y195082D01*
X60342Y195009D01*
X55750D01*
X55318Y194974D01*
X54898Y194874D01*
X54498Y194708D01*
X54129Y194482D01*
X53800Y194200D01*
X53518Y193871D01*
X53292Y193502D01*
X53127Y193102D01*
X53025Y192682D01*
X52991Y192250D01*
Y184750D01*
X52106Y183757D01*
X51697Y183507D01*
X47109D01*
X44521Y186096D01*
X44251Y186326D01*
X43949Y186511D01*
X43622Y186646D01*
X43278Y186729D01*
X42925Y186757D01*
X34759D01*
Y196500D01*
X34725Y196931D01*
X34623Y197352D01*
X34458Y197752D01*
X34232Y198121D01*
X33951Y198451D01*
X33621Y198732D01*
X33252Y198958D01*
X32852Y199123D01*
X32432Y199224D01*
X32000Y199258D01*
X24500D01*
X24069Y199224D01*
X23648Y199123D01*
X23248Y198958D01*
X22879Y198732D01*
X22550Y198451D01*
X22268Y198121D01*
X22042Y197752D01*
X21876Y197352D01*
X21776Y196931D01*
X21741Y196500D01*
Y185668D01*
X20241Y185047D01*
X13758Y191530D01*
Y196500D01*
X13725Y196931D01*
X13623Y197352D01*
X13458Y197752D01*
X13232Y198121D01*
X12951Y198451D01*
X12621Y198732D01*
X12252Y198958D01*
X11853Y199123D01*
X11431Y199224D01*
X11000Y199258D01*
X3500D01*
X2507Y200144D01*
X2257Y200553D01*
Y230000D01*
X2252Y230059D01*
X2287Y231647D01*
X2395Y233290D01*
X2574Y234927D01*
X2824Y236555D01*
X3146Y238170D01*
X3537Y239770D01*
X3998Y241351D01*
X4527Y242911D01*
X5124Y244446D01*
X5788Y245953D01*
X6516Y247430D01*
X7308Y248874D01*
X8163Y250282D01*
X9078Y251652D01*
X10052Y252980D01*
X11083Y254265D01*
X12169Y255503D01*
X13307Y256693D01*
X14497Y257831D01*
X15735Y258917D01*
X17020Y259948D01*
X18348Y260922D01*
X19718Y261837D01*
X21126Y262692D01*
X22569Y263484D01*
X24047Y264212D01*
X25554Y264876D01*
X27089Y265472D01*
X28649Y266002D01*
X30230Y266463D01*
X31830Y266854D01*
X33445Y267176D01*
X35073Y267426D01*
X36710Y267605D01*
X38353Y267713D01*
X39941Y267748D01*
X40000Y267743D01*
D02*
G37*
G36*
X91493Y175932D02*
X91521Y175579D01*
X91603Y175235D01*
X91739Y174907D01*
X91278Y173911D01*
X90896Y173500D01*
X73000D01*
Y167397D01*
X72990Y167250D01*
X73000Y167103D01*
Y160500D01*
X86412D01*
X86500Y160493D01*
X86750D01*
X86838Y160500D01*
X96000D01*
Y163493D01*
X108911D01*
X110584Y161819D01*
X110595Y161799D01*
X110691Y161381D01*
X110665Y160096D01*
X107576Y157007D01*
X105154D01*
X104828Y157495D01*
X104439Y157939D01*
X103995Y158328D01*
X103505Y158655D01*
X102976Y158916D01*
X102417Y159106D01*
X101839Y159221D01*
X101250Y159260D01*
X100661Y159221D01*
X100083Y159106D01*
X99524Y158916D01*
X98995Y158655D01*
X98505Y158328D01*
X98061Y157939D01*
X97672Y157495D01*
X97345Y157005D01*
X97084Y156476D01*
X96894Y155917D01*
X96779Y155339D01*
X96740Y154750D01*
X96744Y154692D01*
X95719Y153660D01*
X95381Y153500D01*
X73000D01*
Y140500D01*
X91777D01*
X92260Y139824D01*
X92508Y139000D01*
X92345Y138755D01*
X92084Y138226D01*
X91894Y137667D01*
X91779Y137089D01*
X91740Y136500D01*
X91779Y135911D01*
X91894Y135333D01*
X92007Y135000D01*
X91691Y134269D01*
X91103Y133514D01*
X91080Y133500D01*
X73000D01*
Y132381D01*
X71614Y131807D01*
X71325Y132096D01*
X71056Y132326D01*
X70754Y132511D01*
X70427Y132647D01*
X70082Y132729D01*
X69729Y132757D01*
X63507D01*
Y148743D01*
X63479Y149096D01*
X63397Y149440D01*
X63261Y149767D01*
X63076Y150069D01*
X62846Y150338D01*
X62846Y150339D01*
X52128Y161056D01*
X52068Y161789D01*
X52230Y162878D01*
X52439Y163061D01*
X52828Y163505D01*
X53155Y163995D01*
X53416Y164524D01*
X53606Y165083D01*
X53721Y165661D01*
X53760Y166250D01*
X53721Y166839D01*
X53606Y167417D01*
X53416Y167976D01*
X53155Y168505D01*
X52828Y168995D01*
X52439Y169439D01*
X51995Y169828D01*
X51505Y170155D01*
X50976Y170416D01*
X50417Y170606D01*
X49839Y170721D01*
X49250Y170760D01*
X48661Y170721D01*
X48083Y170606D01*
X47758Y170496D01*
X47013Y170821D01*
X46263Y171413D01*
X46258Y171422D01*
Y177800D01*
X47165Y178758D01*
X47580Y178993D01*
X70200D01*
X70553Y179021D01*
X70897Y179104D01*
X71224Y179239D01*
X71526Y179424D01*
X71796Y179654D01*
X71857Y179716D01*
X73000Y180500D01*
Y180500D01*
X73000Y180500D01*
X91493D01*
Y175932D01*
D02*
G37*
G36*
X263243Y180606D02*
X263492Y180197D01*
Y174195D01*
X262250Y173508D01*
X249750D01*
X249319Y173475D01*
X248898Y173374D01*
X248498Y173208D01*
X248129Y172982D01*
X247799Y172701D01*
X247518Y172371D01*
X247500Y172341D01*
X246000Y172703D01*
Y173500D01*
X223000D01*
Y160500D01*
X246000D01*
Y160500D01*
X247171Y161019D01*
X247500Y161043D01*
X247779Y160758D01*
X247799Y159200D01*
X247518Y158871D01*
X247292Y158502D01*
X247127Y158102D01*
X247026Y157682D01*
X246992Y157250D01*
Y154589D01*
X246000Y153500D01*
X223000D01*
Y140500D01*
X241027D01*
X241601Y139114D01*
X240872Y138385D01*
X240565Y138026D01*
X240319Y137624D01*
X240138Y137187D01*
X240028Y136728D01*
X239991Y136257D01*
Y133500D01*
X223000D01*
Y125250D01*
X182663D01*
X182337Y125738D01*
X181947Y126182D01*
X181504Y126571D01*
X181014Y126898D01*
X180485Y127159D01*
X179926Y127349D01*
X179347Y127464D01*
X178759Y127502D01*
X178170Y127464D01*
X177591Y127349D01*
X177033Y127159D01*
X176504Y126898D01*
X176013Y126571D01*
X175570Y126182D01*
X175181Y125738D01*
X174853Y125248D01*
X174592Y124719D01*
X174403Y124160D01*
X174288Y123581D01*
X174249Y122993D01*
X174288Y122404D01*
X174403Y121826D01*
X174592Y121267D01*
X174853Y120738D01*
X175181Y120247D01*
X175570Y119804D01*
X176013Y119415D01*
X176504Y119087D01*
X177033Y118827D01*
X177591Y118637D01*
X178170Y118522D01*
X178759Y118483D01*
X179347Y118522D01*
X179926Y118637D01*
X180485Y118827D01*
X181014Y119087D01*
X181504Y119415D01*
X181947Y119804D01*
X182337Y120247D01*
X182663Y120736D01*
X187713D01*
X187762Y119236D01*
X187421Y119213D01*
X186842Y119098D01*
X186283Y118909D01*
X185754Y118648D01*
X185264Y118320D01*
X184820Y117931D01*
X184431Y117488D01*
X184104Y116997D01*
X183843Y116468D01*
X183653Y115910D01*
X183538Y115331D01*
X183500Y114742D01*
X183538Y114154D01*
X183653Y113575D01*
X183843Y113017D01*
X184104Y112488D01*
X184431Y111997D01*
X184820Y111554D01*
X185264Y111165D01*
X185754Y110837D01*
X186283Y110576D01*
X186842Y110386D01*
X187421Y110271D01*
X188009Y110233D01*
X188598Y110271D01*
X189176Y110386D01*
X189735Y110576D01*
X190264Y110837D01*
X190755Y111165D01*
X191198Y111554D01*
X191587Y111997D01*
X191915Y112488D01*
X192176Y113017D01*
X192365Y113575D01*
X192480Y114154D01*
X192519Y114742D01*
X192480Y115331D01*
X192366Y115907D01*
X194194Y117736D01*
X217072D01*
X219993Y114815D01*
Y101068D01*
X220021Y100715D01*
X220103Y100371D01*
X220239Y100043D01*
X220424Y99741D01*
X220654Y99472D01*
X221381Y98746D01*
X221004Y97486D01*
X220814Y97191D01*
X220344Y97097D01*
X219785Y96908D01*
X219256Y96647D01*
X218766Y96319D01*
X218322Y95930D01*
X217933Y95487D01*
X217605Y94996D01*
X217344Y94467D01*
X217155Y93909D01*
X217040Y93330D01*
X217001Y92741D01*
X217040Y92153D01*
X217155Y91574D01*
X217339Y91031D01*
X215859Y89551D01*
X215507Y89519D01*
X214166Y89976D01*
X213906Y90505D01*
X213578Y90995D01*
X213189Y91439D01*
X212745Y91828D01*
X212255Y92155D01*
X211726Y92416D01*
X211167Y92606D01*
X210589Y92721D01*
X210000Y92760D01*
X185368D01*
X174189Y103939D01*
X173745Y104328D01*
X173255Y104655D01*
X172726Y104916D01*
X172167Y105106D01*
X171589Y105221D01*
X171000Y105260D01*
X170411Y105221D01*
X169833Y105106D01*
X169507Y104995D01*
X169389Y104996D01*
X168928Y105112D01*
X167990Y105644D01*
X167833Y105850D01*
X167761Y106025D01*
X167576Y106327D01*
X167346Y106596D01*
X141368Y132574D01*
X141155Y133005D01*
X140828Y133495D01*
X140439Y133939D01*
X139995Y134328D01*
X139505Y134656D01*
X138976Y134916D01*
X138417Y135106D01*
X137839Y135221D01*
X137250Y135260D01*
X136661Y135221D01*
X136083Y135106D01*
X135524Y134916D01*
X134995Y134656D01*
X134505Y134328D01*
X134061Y133939D01*
X133672Y133495D01*
X133344Y133005D01*
X133084Y132476D01*
X132894Y131917D01*
X132779Y131339D01*
X132740Y130750D01*
X132779Y130161D01*
X132894Y129583D01*
X133084Y129024D01*
X133344Y128495D01*
X133672Y128005D01*
X134061Y127561D01*
X134505Y127172D01*
X134995Y126845D01*
X135524Y126584D01*
X136083Y126394D01*
X136661Y126279D01*
X137250Y126240D01*
X137839Y126279D01*
X138417Y126394D01*
X138976Y126584D01*
X139505Y126845D01*
X139995Y127172D01*
X140203Y127355D01*
X163493Y104065D01*
Y98575D01*
X163521Y98222D01*
X163603Y97878D01*
X163739Y97551D01*
X163924Y97249D01*
X164154Y96980D01*
X179729Y81404D01*
X179729Y81404D01*
X179999Y81174D01*
X180301Y80989D01*
X180628Y80854D01*
X180972Y80771D01*
X181325Y80743D01*
X212500D01*
X212853Y80771D01*
X213197Y80854D01*
X213525Y80989D01*
X213827Y81174D01*
X214096Y81404D01*
X220283Y87591D01*
X223000Y84874D01*
Y80500D01*
X246000D01*
Y88899D01*
X247386Y89473D01*
X247704Y89154D01*
X247974Y88924D01*
X248276Y88739D01*
X248603Y88603D01*
X248947Y88521D01*
X249300Y88493D01*
X249301Y88493D01*
X264700D01*
X265053Y88521D01*
X265397Y88603D01*
X265724Y88739D01*
X266026Y88924D01*
X266296Y89154D01*
X268346Y91204D01*
X268576Y91474D01*
X268761Y91776D01*
X268897Y92103D01*
X268979Y92447D01*
X269007Y92800D01*
X269007Y92801D01*
Y98815D01*
X270185Y99993D01*
X271197D01*
X271606Y99743D01*
X272491Y98750D01*
Y91250D01*
X272526Y90818D01*
X272626Y90398D01*
X272792Y89998D01*
X273018Y89628D01*
X273300Y89299D01*
X273629Y89018D01*
X273998Y88792D01*
X274398Y88626D01*
X274818Y88525D01*
X275250Y88491D01*
X278490D01*
Y57868D01*
X271061Y50439D01*
X270672Y49995D01*
X270345Y49505D01*
X270084Y48976D01*
X269894Y48417D01*
X269779Y47839D01*
X269740Y47250D01*
X269779Y46661D01*
X269894Y46083D01*
X270084Y45524D01*
X270345Y44995D01*
X270672Y44505D01*
X270968Y44168D01*
X270867Y43569D01*
X270835Y43488D01*
X270282Y42749D01*
X270182Y42757D01*
X265850D01*
X265497Y42729D01*
X265152Y42646D01*
X264825Y42511D01*
X264523Y42326D01*
X264254Y42096D01*
X261167Y39009D01*
X260937Y38740D01*
X260762Y38454D01*
X258815Y36507D01*
X246326D01*
X246325Y36507D01*
X245972Y36479D01*
X245628Y36397D01*
X245301Y36261D01*
X244999Y36076D01*
X244729Y35846D01*
X244729Y35846D01*
X241654Y32771D01*
X241424Y32501D01*
X241239Y32199D01*
X241103Y31872D01*
X241021Y31528D01*
X240993Y31175D01*
Y9678D01*
X239573Y8257D01*
X231448D01*
X231248Y8435D01*
X230655Y9745D01*
X230916Y10274D01*
X231106Y10833D01*
X231221Y11411D01*
X231260Y12000D01*
X231221Y12589D01*
X231106Y13167D01*
X230916Y13726D01*
X230655Y14255D01*
X230328Y14745D01*
X229939Y15189D01*
X229495Y15578D01*
X229005Y15905D01*
X228476Y16166D01*
X227917Y16356D01*
X227339Y16471D01*
X226750Y16510D01*
X219242D01*
X219094Y18010D01*
X219267Y18044D01*
X219826Y18234D01*
X220355Y18494D01*
X220845Y18822D01*
X221289Y19211D01*
X221678Y19655D01*
X222005Y20145D01*
X222266Y20674D01*
X222456Y21233D01*
X222571Y21811D01*
X222610Y22400D01*
X222571Y22989D01*
X222456Y23567D01*
X222266Y24126D01*
X222005Y24655D01*
X221678Y25145D01*
X221289Y25589D01*
X220845Y25978D01*
X220355Y26305D01*
X219826Y26566D01*
X219267Y26756D01*
X218689Y26871D01*
X218100Y26910D01*
X217511Y26871D01*
X216933Y26756D01*
X216374Y26566D01*
X215845Y26305D01*
X215355Y25978D01*
X214911Y25589D01*
X214522Y25145D01*
X214195Y24655D01*
X213934Y24126D01*
X213744Y23567D01*
X213629Y22989D01*
X213590Y22400D01*
X213629Y21811D01*
X213744Y21233D01*
X213934Y20674D01*
X214195Y20145D01*
X214522Y19655D01*
X214911Y19211D01*
X215355Y18822D01*
X215845Y18494D01*
X216374Y18234D01*
X216933Y18044D01*
X217106Y18010D01*
X216958Y16510D01*
X203118D01*
X201189Y18439D01*
X200745Y18828D01*
X200255Y19155D01*
X199726Y19416D01*
X199167Y19606D01*
X198589Y19721D01*
X198000Y19760D01*
X197411Y19721D01*
X196833Y19606D01*
X196274Y19416D01*
X195745Y19155D01*
X195255Y18828D01*
X194811Y18439D01*
X194422Y17995D01*
X194095Y17505D01*
X193834Y16976D01*
X193644Y16417D01*
X193529Y15839D01*
X193490Y15250D01*
X193529Y14661D01*
X193644Y14083D01*
X193834Y13524D01*
X194095Y12995D01*
X194422Y12505D01*
X194811Y12061D01*
X197115Y9757D01*
X196494Y8257D01*
X146178D01*
X145094Y9340D01*
Y54580D01*
X145066Y54933D01*
X144984Y55277D01*
X144848Y55605D01*
X144663Y55907D01*
X144433Y56176D01*
X144433Y56176D01*
X124055Y76554D01*
Y112119D01*
X124055Y112119D01*
X124027Y112472D01*
X123945Y112816D01*
X123809Y113144D01*
X123624Y113446D01*
X123394Y113715D01*
X116940Y120169D01*
X116944Y120304D01*
X117333Y120747D01*
X117661Y121238D01*
X117922Y121767D01*
X118111Y122326D01*
X118227Y122904D01*
X118265Y123493D01*
X118227Y124081D01*
X118111Y124660D01*
X117922Y125219D01*
X117661Y125748D01*
X117333Y126238D01*
X116944Y126682D01*
X116501Y127071D01*
X116010Y127398D01*
X115481Y127659D01*
X114923Y127849D01*
X114344Y127964D01*
X113756Y128003D01*
X113167Y127964D01*
X112625Y127856D01*
X112209Y128149D01*
X111585Y129092D01*
X111672Y129267D01*
X111861Y129826D01*
X111976Y130405D01*
X112015Y130993D01*
X111976Y131582D01*
X111861Y132160D01*
X111672Y132719D01*
X111411Y133248D01*
X111083Y133738D01*
X110694Y134182D01*
X110251Y134571D01*
X109760Y134899D01*
X109231Y135160D01*
X108672Y135349D01*
X108094Y135464D01*
X107505Y135503D01*
X106917Y135464D01*
X106338Y135349D01*
X105779Y135160D01*
X105250Y134899D01*
X104760Y134571D01*
X104317Y134182D01*
X103927Y133738D01*
X103600Y133248D01*
X103339Y132719D01*
X103149Y132160D01*
X103034Y131582D01*
X102996Y130993D01*
X103034Y130405D01*
X103149Y129826D01*
X103339Y129267D01*
X103600Y128738D01*
X103927Y128248D01*
X104317Y127804D01*
X104760Y127416D01*
X105250Y127088D01*
X105418Y127005D01*
Y122695D01*
X105418Y122000D01*
X105069Y121464D01*
X104333Y121106D01*
X103774Y120916D01*
X103245Y120655D01*
X102755Y120328D01*
X102311Y119939D01*
X101922Y119495D01*
X101594Y119005D01*
X101334Y118476D01*
X101144Y117917D01*
X101029Y117339D01*
X100990Y116750D01*
X101029Y116161D01*
X101144Y115583D01*
X101334Y115024D01*
X101594Y114495D01*
X101922Y114005D01*
X102311Y113561D01*
X102755Y113172D01*
X103245Y112844D01*
X103774Y112584D01*
X104333Y112394D01*
X104911Y112279D01*
X105500Y112240D01*
X106089Y112279D01*
X106667Y112394D01*
X107226Y112584D01*
X107755Y112844D01*
X108245Y113172D01*
X108306Y113226D01*
X113040Y108492D01*
Y72952D01*
X113071Y72560D01*
X113163Y72177D01*
X113314Y71813D01*
X113519Y71478D01*
X113775Y71179D01*
X127939Y57014D01*
X127922Y56995D01*
X127594Y56505D01*
X127334Y55976D01*
X127144Y55417D01*
X127029Y54839D01*
X126990Y54250D01*
X127029Y53661D01*
X127144Y53083D01*
X127334Y52524D01*
X127594Y51995D01*
X127922Y51505D01*
X128311Y51061D01*
X128755Y50672D01*
X129245Y50345D01*
X129774Y50084D01*
X130333Y49894D01*
X130911Y49779D01*
X131500Y49740D01*
X132089Y49779D01*
X132667Y49894D01*
X133226Y50084D01*
X133755Y50345D01*
X134245Y50672D01*
X134689Y51061D01*
X135078Y51505D01*
X135284Y51813D01*
X136313Y51982D01*
X136925Y51974D01*
X137580Y51304D01*
Y7163D01*
X137608Y6810D01*
X137691Y6465D01*
X137826Y6138D01*
X138011Y5836D01*
X138241Y5567D01*
X140165Y3643D01*
X139591Y2257D01*
X40000D01*
X39941Y2252D01*
X38353Y2287D01*
X36710Y2395D01*
X35073Y2574D01*
X33445Y2824D01*
X31830Y3146D01*
X30230Y3537D01*
X28649Y3998D01*
X27089Y4527D01*
X25554Y5124D01*
X24047Y5788D01*
X22569Y6516D01*
X21126Y7308D01*
X19718Y8163D01*
X18348Y9078D01*
X17020Y10052D01*
X15735Y11083D01*
X14497Y12169D01*
X13307Y13307D01*
X12169Y14497D01*
X11083Y15735D01*
X10052Y17020D01*
X9078Y18348D01*
X8163Y19718D01*
X7308Y21126D01*
X6516Y22569D01*
X5788Y24047D01*
X5124Y25554D01*
X4527Y27089D01*
X3998Y28649D01*
X3537Y30230D01*
X3146Y31830D01*
X2824Y33445D01*
X2574Y35073D01*
X2395Y36710D01*
X2287Y38353D01*
X2252Y39941D01*
X2257Y40000D01*
Y62670D01*
X2492Y63085D01*
X3450Y63992D01*
X18050D01*
X18474Y64025D01*
X18887Y64124D01*
X19280Y64287D01*
X19642Y64509D01*
X19965Y64785D01*
X20241Y65108D01*
X20463Y65470D01*
X20626Y65863D01*
X20725Y66276D01*
X20758Y66700D01*
Y69990D01*
X52422D01*
X70581Y51831D01*
X71025Y51442D01*
X71515Y51115D01*
X72044Y50854D01*
X72603Y50664D01*
X73182Y50549D01*
X73770Y50511D01*
X74359Y50549D01*
X74937Y50664D01*
X75496Y50854D01*
X76025Y51115D01*
X76515Y51442D01*
X76959Y51831D01*
X77348Y52275D01*
X77676Y52765D01*
X77937Y53294D01*
X78126Y53853D01*
X78241Y54432D01*
X78280Y55020D01*
X78241Y55609D01*
X78126Y56187D01*
X77937Y56746D01*
X77676Y57275D01*
X77348Y57765D01*
X76959Y58209D01*
X64308Y70860D01*
X64882Y72245D01*
X95784D01*
X96005Y72231D01*
X96593Y72270D01*
X97172Y72385D01*
X97498Y72495D01*
X98241Y72172D01*
X98991Y71580D01*
X98998Y71569D01*
Y37745D01*
X99025Y37392D01*
X99108Y37048D01*
X99244Y36721D01*
X99429Y36419D01*
X99659Y36149D01*
X115404Y20404D01*
X115404Y20404D01*
X115673Y20174D01*
X115975Y19989D01*
X116303Y19854D01*
X116647Y19771D01*
X117000Y19743D01*
X117596D01*
X117922Y19255D01*
X118311Y18811D01*
X118755Y18422D01*
X119245Y18095D01*
X119774Y17834D01*
X120333Y17644D01*
X120911Y17529D01*
X121500Y17490D01*
X122089Y17529D01*
X122667Y17644D01*
X123226Y17834D01*
X123755Y18095D01*
X124245Y18422D01*
X124689Y18811D01*
X125078Y19255D01*
X125405Y19745D01*
X125666Y20274D01*
X125856Y20833D01*
X125971Y21411D01*
X126010Y22000D01*
X125971Y22589D01*
X125856Y23167D01*
X125666Y23726D01*
X125405Y24255D01*
X125078Y24745D01*
X124689Y25189D01*
X124245Y25578D01*
X123755Y25905D01*
X123226Y26166D01*
X122667Y26356D01*
X122089Y26471D01*
X121500Y26510D01*
X120911Y26471D01*
X120333Y26356D01*
X119774Y26166D01*
X119245Y25905D01*
X118755Y25578D01*
X118311Y25189D01*
X116709Y25483D01*
X103512Y38680D01*
Y78915D01*
X103484Y79268D01*
X103401Y79613D01*
X103266Y79940D01*
X103081Y80242D01*
X102851Y80511D01*
X102850Y80511D01*
X99007Y84355D01*
Y132933D01*
X99439Y133311D01*
X99828Y133755D01*
X100155Y134245D01*
X100416Y134774D01*
X100606Y135333D01*
X100721Y135911D01*
X100760Y136500D01*
X100721Y137089D01*
X100606Y137667D01*
X100416Y138226D01*
X100155Y138755D01*
X99828Y139245D01*
X99439Y139689D01*
X98995Y140078D01*
X98505Y140405D01*
X97976Y140666D01*
X97417Y140856D01*
X96839Y140971D01*
X96250Y141010D01*
X96000Y141244D01*
Y151831D01*
X96763Y152208D01*
X97500Y152262D01*
X97672Y152005D01*
X98061Y151561D01*
X98505Y151172D01*
X98995Y150844D01*
X99524Y150584D01*
X100083Y150394D01*
X100661Y150279D01*
X101401Y150038D01*
X101965Y149285D01*
X102023Y148829D01*
X102034Y148656D01*
X102149Y148077D01*
X102339Y147518D01*
X102600Y146989D01*
X102928Y146499D01*
X103316Y146055D01*
X103760Y145666D01*
X104250Y145339D01*
X104779Y145078D01*
X105338Y144888D01*
X105917Y144773D01*
X106505Y144734D01*
X107094Y144773D01*
X107672Y144888D01*
X107835Y144943D01*
X108052Y144853D01*
X108396Y144771D01*
X108749Y144743D01*
X139565D01*
X176644Y107665D01*
X176529Y107089D01*
X176490Y106500D01*
X176529Y105911D01*
X176644Y105333D01*
X176834Y104774D01*
X177094Y104245D01*
X177422Y103755D01*
X177811Y103311D01*
X178255Y102922D01*
X178745Y102594D01*
X179274Y102334D01*
X179833Y102144D01*
X180411Y102029D01*
X181000Y101990D01*
X181589Y102029D01*
X182167Y102144D01*
X182726Y102334D01*
X183255Y102594D01*
X183745Y102922D01*
X184189Y103311D01*
X184578Y103755D01*
X184905Y104245D01*
X185166Y104774D01*
X185356Y105333D01*
X185471Y105911D01*
X185510Y106500D01*
X185471Y107089D01*
X185356Y107667D01*
X185166Y108226D01*
X184905Y108755D01*
X184578Y109245D01*
X184189Y109689D01*
X183745Y110078D01*
X183255Y110405D01*
X182726Y110666D01*
X182167Y110856D01*
X181589Y110971D01*
X181000Y111010D01*
X180411Y110971D01*
X179835Y110857D01*
X142096Y148596D01*
X141827Y148826D01*
X141525Y149011D01*
X141197Y149146D01*
X140853Y149229D01*
X140500Y149257D01*
X111014D01*
X110976Y149833D01*
X110861Y150411D01*
X110672Y150970D01*
X110411Y151499D01*
X110402Y151511D01*
X110089Y152295D01*
X110103Y152983D01*
X110593Y153640D01*
X113196Y156243D01*
X118990D01*
X123579Y151654D01*
X123848Y151424D01*
X124150Y151239D01*
X124477Y151103D01*
X124822Y151021D01*
X125175Y150993D01*
X188500D01*
X188853Y151021D01*
X189197Y151103D01*
X189525Y151239D01*
X189827Y151424D01*
X190096Y151654D01*
X191185Y152743D01*
X198346D01*
X198672Y152255D01*
X199061Y151811D01*
X199505Y151422D01*
X199995Y151095D01*
X200524Y150834D01*
X201083Y150644D01*
X201661Y150529D01*
X202250Y150490D01*
X202839Y150529D01*
X203417Y150644D01*
X203976Y150834D01*
X204505Y151095D01*
X204995Y151422D01*
X205439Y151811D01*
X205828Y152255D01*
X206155Y152745D01*
X206416Y153274D01*
X206606Y153833D01*
X206721Y154411D01*
X206760Y155000D01*
X206721Y155589D01*
X206606Y156167D01*
X206416Y156726D01*
X206155Y157255D01*
X205828Y157745D01*
X205439Y158189D01*
X204995Y158578D01*
X204505Y158905D01*
X203976Y159166D01*
X203417Y159356D01*
X202839Y159471D01*
X202250Y159510D01*
X201661Y159471D01*
X201083Y159356D01*
X200524Y159166D01*
X199995Y158905D01*
X199505Y158578D01*
X199061Y158189D01*
X198672Y157745D01*
X198346Y157257D01*
X190250D01*
X189897Y157229D01*
X189553Y157147D01*
X189225Y157011D01*
X188923Y156826D01*
X188654Y156596D01*
X187565Y155507D01*
X161984D01*
X161410Y156893D01*
X176477Y171959D01*
X176489Y171963D01*
X177438Y171851D01*
X178192Y171554D01*
X178345Y171245D01*
X178672Y170755D01*
X179061Y170311D01*
X179505Y169922D01*
X179995Y169594D01*
X180524Y169334D01*
X181083Y169144D01*
X181661Y169029D01*
X182250Y168990D01*
X182839Y169029D01*
X183417Y169144D01*
X183976Y169334D01*
X184505Y169594D01*
X184995Y169922D01*
X185439Y170311D01*
X185828Y170755D01*
X186155Y171245D01*
X186416Y171774D01*
X186606Y172333D01*
X186721Y172911D01*
X186760Y173500D01*
X186984Y173739D01*
X209819D01*
X212993Y170565D01*
Y158654D01*
X212505Y158328D01*
X212061Y157939D01*
X211672Y157495D01*
X211345Y157005D01*
X211084Y156476D01*
X210894Y155917D01*
X210779Y155339D01*
X210740Y154750D01*
X210779Y154161D01*
X210894Y153583D01*
X211084Y153024D01*
X211345Y152495D01*
X211672Y152005D01*
X212061Y151561D01*
X212505Y151172D01*
X212995Y150844D01*
X213524Y150584D01*
X214083Y150394D01*
X214661Y150279D01*
X215250Y150240D01*
X215839Y150279D01*
X216417Y150394D01*
X216976Y150584D01*
X217505Y150844D01*
X217995Y151172D01*
X218439Y151561D01*
X218828Y152005D01*
X219155Y152495D01*
X219416Y153024D01*
X219606Y153583D01*
X219721Y154161D01*
X219760Y154750D01*
X219721Y155339D01*
X219606Y155917D01*
X219416Y156476D01*
X219155Y157005D01*
X218828Y157495D01*
X218439Y157939D01*
X217995Y158328D01*
X217507Y158654D01*
Y171500D01*
X217479Y171853D01*
X217397Y172197D01*
X217261Y172525D01*
X217076Y172827D01*
X216846Y173096D01*
X216846Y173096D01*
X214589Y175353D01*
X215163Y176739D01*
X244678D01*
X245031Y176767D01*
X245375Y176849D01*
X245703Y176985D01*
X246005Y177170D01*
X246274Y177400D01*
X248346Y179472D01*
X248346Y179472D01*
X248576Y179741D01*
X248761Y180043D01*
X248779Y180087D01*
X250183Y181492D01*
X262250D01*
X263243Y180606D01*
D02*
G37*
G36*
X19722Y172811D02*
X20166Y172422D01*
X20656Y172095D01*
X21185Y171834D01*
X21744Y171644D01*
X22322Y171529D01*
X22911Y171490D01*
X31242D01*
Y163200D01*
X31275Y162776D01*
X31374Y162363D01*
X31537Y161970D01*
X31759Y161608D01*
X32035Y161285D01*
X32358Y161009D01*
X32720Y160787D01*
X33113Y160624D01*
X33526Y160525D01*
X33950Y160492D01*
X35743D01*
Y158580D01*
X35542Y158252D01*
X35377Y157852D01*
X35275Y157431D01*
X35241Y157000D01*
Y151500D01*
X35275Y151068D01*
X34955Y150365D01*
X34276Y149910D01*
X33747Y149649D01*
X33256Y149322D01*
X32813Y148933D01*
X32424Y148489D01*
X32096Y147999D01*
X31835Y147470D01*
X31646Y146911D01*
X31531Y146333D01*
X31492Y145744D01*
X31531Y145155D01*
X31646Y144577D01*
X31835Y144018D01*
X32096Y143489D01*
X32424Y142999D01*
X32813Y142555D01*
X33256Y142166D01*
X33747Y141839D01*
X34276Y141578D01*
X34835Y141388D01*
X35413Y141273D01*
X36002Y141234D01*
X36082Y139744D01*
X35897Y139729D01*
X35553Y139647D01*
X35225Y139511D01*
X34923Y139326D01*
X34654Y139096D01*
X34654Y139096D01*
X33154Y137596D01*
X32924Y137327D01*
X32739Y137025D01*
X32603Y136697D01*
X32521Y136353D01*
X32493Y136000D01*
Y131404D01*
X32005Y131078D01*
X31561Y130689D01*
X31172Y130245D01*
X30845Y129755D01*
X30584Y129226D01*
X30394Y128667D01*
X30279Y128089D01*
X30240Y127500D01*
X30279Y126911D01*
X30394Y126333D01*
X30584Y125774D01*
X30845Y125245D01*
X31172Y124755D01*
X31561Y124311D01*
X32005Y123922D01*
X32495Y123595D01*
X33024Y123334D01*
X33583Y123144D01*
X34161Y123029D01*
X34750Y122990D01*
X35339Y123029D01*
X35917Y123144D01*
X36476Y123334D01*
X37005Y123595D01*
X37495Y123922D01*
X37888Y124267D01*
X38483Y124268D01*
X38775Y124245D01*
X39363Y124029D01*
X39545Y123901D01*
X39574Y123804D01*
X39542Y123752D01*
X39376Y123352D01*
X39276Y122931D01*
X39242Y122509D01*
X39241Y122499D01*
X38982Y122091D01*
X38409Y121518D01*
X38001Y121259D01*
X37991Y121258D01*
X37569Y121224D01*
X37148Y121124D01*
X36748Y120958D01*
X36379Y120732D01*
X36049Y120450D01*
X35768Y120121D01*
X35542Y119752D01*
X35377Y119352D01*
X35275Y118932D01*
X35241Y118500D01*
Y113000D01*
X34356Y112007D01*
X33947Y111757D01*
X24450D01*
X24097Y111729D01*
X23752Y111646D01*
X23425Y111511D01*
X23123Y111326D01*
X22854Y111096D01*
X19904Y108146D01*
X19674Y107877D01*
X19489Y107575D01*
X19353Y107248D01*
X19271Y106903D01*
X19243Y106550D01*
Y96435D01*
X15154Y92346D01*
X14924Y92077D01*
X14739Y91775D01*
X14604Y91447D01*
X14521Y91103D01*
X14493Y90750D01*
Y79010D01*
X9507D01*
Y80596D01*
X9995Y80922D01*
X10439Y81311D01*
X10828Y81755D01*
X11155Y82245D01*
X11416Y82774D01*
X11606Y83333D01*
X11721Y83911D01*
X11760Y84500D01*
X11721Y85089D01*
X11606Y85667D01*
X11416Y86226D01*
X11155Y86755D01*
X10828Y87245D01*
X10439Y87689D01*
X9995Y88078D01*
X9505Y88405D01*
X8976Y88666D01*
X8417Y88856D01*
X7839Y88971D01*
X7250Y89010D01*
X6661Y88971D01*
X6083Y88856D01*
X5524Y88666D01*
X4995Y88405D01*
X4505Y88078D01*
X4061Y87689D01*
X3757Y87342D01*
X3412Y87352D01*
X2257Y87827D01*
Y118447D01*
X2507Y118856D01*
X3500Y119741D01*
X9000D01*
X9431Y119775D01*
X9852Y119876D01*
X10252Y120042D01*
X10621Y120268D01*
X10950Y120549D01*
X11110Y120736D01*
X19001D01*
X19354Y120764D01*
X19699Y120847D01*
X20026Y120982D01*
X20328Y121167D01*
X20597Y121397D01*
X22336Y123137D01*
X22912Y123022D01*
X23501Y122983D01*
X24090Y123022D01*
X24668Y123137D01*
X25227Y123327D01*
X25756Y123588D01*
X26247Y123915D01*
X26690Y124304D01*
X27079Y124748D01*
X27407Y125238D01*
X27668Y125767D01*
X27857Y126326D01*
X27972Y126904D01*
X28011Y127493D01*
X27972Y128082D01*
X27857Y128660D01*
X27668Y129219D01*
X27407Y129748D01*
X27079Y130238D01*
X26690Y130682D01*
X26247Y131071D01*
X25756Y131398D01*
X25227Y131659D01*
X24668Y131849D01*
X24090Y131964D01*
X23501Y132003D01*
X22912Y131964D01*
X22334Y131849D01*
X21775Y131659D01*
X21246Y131398D01*
X20756Y131071D01*
X19827Y131006D01*
X19189Y131432D01*
X18746Y131821D01*
X18256Y132149D01*
X17727Y132409D01*
X17168Y132599D01*
X16589Y132714D01*
X16001Y132753D01*
X15412Y132714D01*
X14834Y132599D01*
X14275Y132409D01*
X13746Y132149D01*
X13255Y131821D01*
X13178Y131753D01*
X12744Y131847D01*
X11862Y132353D01*
X11755Y132456D01*
X11759Y132500D01*
X11724Y132931D01*
X11624Y133352D01*
X11458Y133752D01*
X11232Y134121D01*
X10950Y134650D01*
Y135350D01*
X11232Y135879D01*
X11458Y136248D01*
X11624Y136648D01*
X11724Y137069D01*
X11759Y137500D01*
X11724Y137931D01*
X11624Y138352D01*
X11458Y138752D01*
X11232Y139121D01*
X11009Y139541D01*
X11496Y140996D01*
X12061Y141187D01*
X12395Y141250D01*
X12975Y141252D01*
X13036Y141234D01*
X13245Y141095D01*
X13774Y140834D01*
X14333Y140644D01*
X14911Y140529D01*
X15500Y140490D01*
X16089Y140529D01*
X16667Y140644D01*
X17226Y140834D01*
X17755Y141095D01*
X18245Y141422D01*
X18689Y141811D01*
X19078Y142255D01*
X19405Y142745D01*
X19666Y143274D01*
X19856Y143833D01*
X19971Y144411D01*
X20010Y145000D01*
X19971Y145589D01*
X19856Y146167D01*
X19666Y146726D01*
X19405Y147255D01*
X19078Y147745D01*
X18689Y148189D01*
X18245Y148578D01*
X17755Y148905D01*
X17226Y149166D01*
X16667Y149356D01*
X16089Y149471D01*
X15500Y149510D01*
X14911Y149471D01*
X14333Y149356D01*
X13774Y149166D01*
X13245Y148905D01*
X13036Y148766D01*
X12975Y148748D01*
X12395Y148750D01*
X12135Y148799D01*
X11259Y149112D01*
X11184Y149178D01*
X10950Y149451D01*
X10621Y149732D01*
X10252Y149958D01*
X9852Y150124D01*
X9431Y150225D01*
X9000Y150259D01*
X3500D01*
X2507Y151144D01*
X2257Y151553D01*
Y179947D01*
X2507Y180356D01*
X3500Y181241D01*
X11000D01*
X11271Y181263D01*
X19722Y172811D01*
D02*
G37*
G36*
X73000Y111958D02*
Y106961D01*
X72928Y106892D01*
X71500Y106324D01*
X71495Y106328D01*
X71005Y106655D01*
X70476Y106916D01*
X69917Y107106D01*
X69339Y107221D01*
X68750Y107260D01*
X68161Y107221D01*
X67583Y107106D01*
X67024Y106916D01*
X66495Y106655D01*
X66005Y106328D01*
X65561Y105939D01*
X65172Y105495D01*
X64844Y105005D01*
X64584Y104476D01*
X64394Y103917D01*
X64279Y103339D01*
X64240Y102750D01*
X64279Y102161D01*
X64394Y101583D01*
X64584Y101024D01*
X64844Y100495D01*
X65172Y100005D01*
X65561Y99561D01*
X66005Y99172D01*
X66495Y98844D01*
X67024Y98584D01*
X67583Y98394D01*
X68161Y98279D01*
X68750Y98240D01*
X68988Y98256D01*
X72991Y94254D01*
Y90500D01*
X73000Y90382D01*
Y80500D01*
X90463D01*
X91312Y79000D01*
X90870Y78264D01*
X63267D01*
X58903Y82628D01*
X58544Y82935D01*
X58142Y83181D01*
X57705Y83362D01*
X57246Y83472D01*
X56776Y83509D01*
X54829D01*
X54755Y83726D01*
X54495Y84255D01*
X54167Y84745D01*
X53778Y85189D01*
X53334Y85578D01*
X52844Y85905D01*
X52315Y86166D01*
X51756Y86356D01*
X51178Y86471D01*
X50589Y86510D01*
X50000Y86471D01*
X49422Y86356D01*
X48863Y86166D01*
X48334Y85905D01*
X47844Y85578D01*
X47400Y85189D01*
X47011Y84745D01*
X46684Y84255D01*
X46423Y83726D01*
X46233Y83167D01*
X46118Y82589D01*
X46079Y82000D01*
X46118Y81411D01*
X46233Y80833D01*
X46343Y80510D01*
X46016Y79762D01*
X45423Y79014D01*
X45417Y79010D01*
X19007D01*
Y89815D01*
X23096Y93904D01*
X23326Y94173D01*
X23511Y94475D01*
X23647Y94803D01*
X23729Y95147D01*
X23757Y95500D01*
Y105615D01*
X25385Y107243D01*
X33280D01*
X33764Y106564D01*
X34011Y105743D01*
X33846Y105497D01*
X33586Y104968D01*
X33396Y104409D01*
X33281Y103830D01*
X33242Y103242D01*
X33281Y102653D01*
X33396Y102075D01*
X33586Y101516D01*
X33846Y100987D01*
X34174Y100497D01*
X34563Y100053D01*
X35006Y99664D01*
X35497Y99336D01*
X36026Y99075D01*
X36585Y98886D01*
X37163Y98771D01*
X37752Y98732D01*
X38340Y98771D01*
X38919Y98886D01*
X39478Y99075D01*
X40007Y99336D01*
X40497Y99664D01*
X40941Y100053D01*
X41330Y100497D01*
X41657Y100987D01*
X41918Y101516D01*
X42108Y102075D01*
X42223Y102653D01*
X42262Y103242D01*
X42223Y103830D01*
X42108Y104409D01*
X42028Y104644D01*
X49127Y111743D01*
X69729D01*
X70082Y111771D01*
X70427Y111854D01*
X70754Y111989D01*
X71056Y112174D01*
X71325Y112404D01*
X71500Y112579D01*
X73000Y111958D01*
D02*
G37*
%LPC*%
G36*
X136000Y253500D02*
X123000D01*
Y230500D01*
X136000D01*
Y253500D01*
D02*
G37*
G36*
X313250Y227509D02*
X305750D01*
X305319Y227474D01*
X304898Y227374D01*
X304498Y227208D01*
X304129Y226982D01*
X303799Y226700D01*
X303518Y226371D01*
X303292Y226002D01*
X303127Y225602D01*
X303025Y225182D01*
X302992Y224750D01*
Y213119D01*
X296872Y207000D01*
X288000D01*
Y197000D01*
X301000D01*
Y198396D01*
X301189Y198561D01*
X312119Y209492D01*
X313250D01*
X313682Y209526D01*
X314102Y209627D01*
X314502Y209792D01*
X314871Y210018D01*
X315201Y210299D01*
X315482Y210629D01*
X315708Y210998D01*
X315874Y211398D01*
X315975Y211819D01*
X316008Y212250D01*
Y224750D01*
X315975Y225182D01*
X315874Y225602D01*
X315708Y226002D01*
X315482Y226371D01*
X315201Y226700D01*
X314871Y226982D01*
X314502Y227208D01*
X314102Y227374D01*
X313682Y227474D01*
X313250Y227509D01*
D02*
G37*
G36*
X340750Y209758D02*
X328250D01*
X327818Y209725D01*
X327398Y209624D01*
X326998Y209458D01*
X326629Y209232D01*
X326299Y208951D01*
X326018Y208621D01*
X325792Y208252D01*
X325626Y207852D01*
X325526Y207432D01*
X325491Y207000D01*
Y203497D01*
X319494Y197500D01*
X312000D01*
Y187500D01*
X324190D01*
X324271Y187500D01*
X324502Y187390D01*
X324815Y187097D01*
X324815Y187097D01*
X324815Y187097D01*
X325491Y185887D01*
Y181267D01*
X325490Y181250D01*
Y178868D01*
X322131Y175508D01*
X315250D01*
X314818Y175474D01*
X314398Y175373D01*
X313998Y175208D01*
X313629Y174982D01*
X313300Y174701D01*
X313018Y174371D01*
X312792Y174002D01*
X312626Y173602D01*
X312526Y173181D01*
X312491Y172750D01*
Y160250D01*
X312526Y159818D01*
X312626Y159398D01*
X312792Y158998D01*
X312993Y158670D01*
X312813Y158001D01*
X312426Y157390D01*
X312283Y157241D01*
X312000Y157260D01*
X311411Y157221D01*
X310833Y157106D01*
X310546Y157008D01*
X309750D01*
X309319Y156974D01*
X308898Y156874D01*
X308498Y156708D01*
X308129Y156482D01*
X307799Y156201D01*
X307518Y155871D01*
X307292Y155502D01*
X307127Y155102D01*
X307026Y154682D01*
X306992Y154250D01*
Y146750D01*
X307026Y146319D01*
X307127Y145898D01*
X307292Y145498D01*
X307518Y145129D01*
X307799Y144799D01*
X308129Y144518D01*
X308498Y144292D01*
X308898Y144127D01*
X309319Y144025D01*
X309750Y143991D01*
X322250D01*
X322682Y144025D01*
X323102Y144127D01*
X323502Y144292D01*
X323871Y144518D01*
X324000Y144628D01*
X325500Y144500D01*
X325856Y144500D01*
X329847D01*
X329882Y144480D01*
X330466Y143720D01*
X330775Y143000D01*
X330660Y142661D01*
X330545Y142082D01*
X330507Y141494D01*
X330545Y140905D01*
X330660Y140326D01*
X330850Y139768D01*
X331111Y139239D01*
X331439Y138748D01*
X331828Y138305D01*
X332271Y137916D01*
X332761Y137588D01*
X333291Y137327D01*
X333849Y137138D01*
X334428Y137023D01*
X335016Y136984D01*
X335605Y137023D01*
X336184Y137138D01*
X336742Y137327D01*
X337062Y137485D01*
X342630D01*
X343153Y137519D01*
X343667Y137622D01*
X344164Y137790D01*
X344634Y138022D01*
X345070Y138314D01*
X345464Y138659D01*
X348114Y141309D01*
X349500Y140735D01*
Y135000D01*
X356744D01*
X361372Y130372D01*
X361731Y130065D01*
X362134Y129819D01*
X362570Y129638D01*
X362991Y129537D01*
Y125250D01*
X363026Y124818D01*
X363126Y124397D01*
X363292Y123998D01*
X363518Y123629D01*
X363800Y123299D01*
X364129Y123018D01*
X364498Y122792D01*
X364898Y122626D01*
X364993Y122604D01*
Y105300D01*
X365021Y104947D01*
X365103Y104603D01*
X365239Y104276D01*
X365424Y103974D01*
X365654Y103704D01*
X372261Y97097D01*
Y82645D01*
X371773Y82318D01*
X371329Y81930D01*
X370941Y81486D01*
X370613Y80996D01*
X370352Y80466D01*
X370162Y79908D01*
X370047Y79329D01*
X370009Y78741D01*
X370047Y78152D01*
X370162Y77573D01*
X370352Y77015D01*
X370613Y76486D01*
X370941Y75995D01*
X371329Y75552D01*
X371773Y75163D01*
X372263Y74835D01*
X372793Y74574D01*
X373351Y74385D01*
X373930Y74270D01*
X374518Y74231D01*
X375107Y74270D01*
X375686Y74385D01*
X376244Y74574D01*
X376773Y74835D01*
X377264Y75163D01*
X377707Y75552D01*
X378096Y75995D01*
X378424Y76486D01*
X378685Y77015D01*
X378874Y77573D01*
X378989Y78152D01*
X379028Y78741D01*
X378989Y79329D01*
X378874Y79908D01*
X378685Y80466D01*
X378424Y80996D01*
X378096Y81486D01*
X377707Y81930D01*
X377264Y82318D01*
X376775Y82645D01*
Y98032D01*
X376775Y98032D01*
X376747Y98385D01*
X376665Y98729D01*
X376529Y99057D01*
X376344Y99359D01*
X376114Y99628D01*
X373136Y102606D01*
X373710Y103991D01*
X378250D01*
X378681Y104025D01*
X379102Y104127D01*
X379502Y104292D01*
X379871Y104518D01*
X380201Y104799D01*
X380482Y105129D01*
X380708Y105498D01*
X380873Y105898D01*
X380975Y106319D01*
X381008Y106750D01*
Y108490D01*
X395800D01*
X396389Y108529D01*
X396967Y108644D01*
X397526Y108834D01*
X398055Y109094D01*
X398545Y109422D01*
X398989Y109811D01*
X399076Y109898D01*
X399339Y109815D01*
X400149Y109635D01*
X400971Y109527D01*
X401800Y109491D01*
X402629Y109527D01*
X403451Y109635D01*
X404261Y109815D01*
X405052Y110064D01*
X405819Y110382D01*
X406554Y110765D01*
X407254Y111211D01*
X407912Y111716D01*
X408524Y112276D01*
X409084Y112888D01*
X409589Y113546D01*
X410035Y114246D01*
X410418Y114981D01*
X410736Y115748D01*
X410985Y116539D01*
X411165Y117349D01*
X411273Y118171D01*
X411309Y119000D01*
X411273Y119829D01*
X411165Y120651D01*
X410985Y121461D01*
X410736Y122252D01*
X410418Y123019D01*
X410035Y123755D01*
X409589Y124454D01*
X409084Y125112D01*
X408524Y125724D01*
X407912Y126284D01*
X407254Y126789D01*
X406554Y127235D01*
X405819Y127618D01*
X405052Y127936D01*
X404261Y128185D01*
X403451Y128364D01*
X402629Y128473D01*
X401800Y128509D01*
X400971Y128473D01*
X400149Y128364D01*
X399339Y128185D01*
X398548Y127936D01*
X397781Y127618D01*
X397046Y127235D01*
X396346Y126789D01*
X395688Y126284D01*
X395076Y125724D01*
X394516Y125112D01*
X394011Y124454D01*
X393565Y123755D01*
X393182Y123019D01*
X392864Y122252D01*
X392615Y121461D01*
X392435Y120651D01*
X392327Y119829D01*
X392291Y119000D01*
X391107Y117510D01*
X381008D01*
Y119250D01*
X380975Y119682D01*
X380873Y120102D01*
X380708Y120502D01*
X380482Y120871D01*
X380201Y121201D01*
X379998Y121374D01*
X379886Y121693D01*
X379871Y121884D01*
Y122616D01*
X379886Y122807D01*
X379998Y123126D01*
X380201Y123299D01*
X380482Y123629D01*
X380708Y123998D01*
X380873Y124397D01*
X380975Y124818D01*
X381008Y125250D01*
Y132750D01*
X380975Y133181D01*
X380873Y133602D01*
X380708Y134002D01*
X380482Y134371D01*
X380201Y134700D01*
X379871Y134982D01*
X379502Y135208D01*
X379102Y135373D01*
X378681Y135475D01*
X378250Y135508D01*
X367260D01*
X367250Y135509D01*
X364747D01*
X362500Y137756D01*
Y143511D01*
X363241Y143961D01*
X364000Y144128D01*
X364129Y144018D01*
X364498Y143792D01*
X364898Y143626D01*
X365318Y143525D01*
X365750Y143491D01*
X378250D01*
X378681Y143525D01*
X379102Y143626D01*
X379502Y143792D01*
X379871Y144018D01*
X380201Y144299D01*
X380482Y144629D01*
X380708Y144998D01*
X380873Y145398D01*
X380896Y145490D01*
X383372D01*
X383961Y145529D01*
X384539Y145644D01*
X385098Y145834D01*
X385627Y146095D01*
X386118Y146422D01*
X386561Y146811D01*
X390803Y151053D01*
X391556Y150899D01*
X392305Y150434D01*
X392327Y149921D01*
X392435Y149099D01*
X392615Y148289D01*
X392864Y147498D01*
X393182Y146731D01*
X393565Y145996D01*
X394011Y145296D01*
X394516Y144638D01*
X395076Y144026D01*
X395688Y143466D01*
X396346Y142961D01*
X397046Y142515D01*
X397781Y142132D01*
X398548Y141814D01*
X399339Y141565D01*
X400149Y141385D01*
X400971Y141277D01*
X401800Y141241D01*
X402629Y141277D01*
X403451Y141385D01*
X404261Y141565D01*
X405052Y141814D01*
X405819Y142132D01*
X406554Y142515D01*
X407254Y142961D01*
X407912Y143466D01*
X408524Y144026D01*
X409084Y144638D01*
X409589Y145296D01*
X410035Y145996D01*
X410418Y146731D01*
X410736Y147498D01*
X410985Y148289D01*
X411165Y149099D01*
X411273Y149921D01*
X411309Y150750D01*
X411273Y151579D01*
X411165Y152401D01*
X410985Y153211D01*
X410736Y154002D01*
X410418Y154769D01*
X410035Y155505D01*
X409589Y156204D01*
X409084Y156862D01*
X408738Y157240D01*
X408938Y158099D01*
X409362Y158740D01*
X412832D01*
X417700Y153872D01*
Y141250D01*
X422690D01*
Y128500D01*
X417700D01*
Y109500D01*
X436700D01*
Y128500D01*
X431710D01*
Y141250D01*
X436700D01*
Y160250D01*
X424078D01*
X417889Y166439D01*
X417445Y166828D01*
X416955Y167155D01*
X416426Y167416D01*
X415867Y167606D01*
X415289Y167721D01*
X414700Y167760D01*
X396622D01*
X396034Y167721D01*
X395455Y167606D01*
X394897Y167416D01*
X394367Y167155D01*
X393877Y166828D01*
X393434Y166439D01*
X382234Y155239D01*
X381734Y155161D01*
X380592Y155353D01*
X380401Y155466D01*
X380201Y155701D01*
X379871Y155982D01*
X379505Y156206D01*
X379423Y156496D01*
X379423Y157504D01*
X379505Y157794D01*
X379871Y158018D01*
X380201Y158300D01*
X380482Y158629D01*
X380708Y158998D01*
X380873Y159398D01*
X380975Y159818D01*
X381008Y160250D01*
Y172750D01*
X380975Y173181D01*
X380873Y173602D01*
X380708Y174002D01*
X380482Y174371D01*
X380201Y174701D01*
X379871Y174982D01*
X379502Y175208D01*
X379103Y175373D01*
X379010Y175396D01*
Y187250D01*
X381000D01*
Y187490D01*
X390132D01*
X392300Y185322D01*
Y173500D01*
X411300D01*
Y192500D01*
X397878D01*
X395189Y195189D01*
X394745Y195578D01*
X394255Y195905D01*
X393726Y196166D01*
X393167Y196356D01*
X392589Y196471D01*
X392000Y196510D01*
X381000D01*
Y197250D01*
X368000D01*
Y187250D01*
X369990D01*
Y175396D01*
X369898Y175373D01*
X369498Y175208D01*
X369129Y174982D01*
X368800Y174701D01*
X368518Y174371D01*
X368292Y174002D01*
X368126Y173602D01*
X368026Y173181D01*
X367991Y172750D01*
Y160250D01*
X368026Y159818D01*
X368126Y159398D01*
X368292Y158998D01*
X368518Y158629D01*
X368800Y158300D01*
X369129Y158018D01*
X369145Y158008D01*
X368744Y156509D01*
X365750D01*
X365318Y156475D01*
X364898Y156374D01*
X364498Y156208D01*
X364129Y155982D01*
X363800Y155701D01*
X363518Y155371D01*
X363292Y155002D01*
X363126Y154602D01*
X363104Y154510D01*
X351136D01*
X350547Y154471D01*
X349969Y154356D01*
X349410Y154166D01*
X348881Y153905D01*
X348391Y153578D01*
X347947Y153189D01*
X347558Y152745D01*
X347230Y152255D01*
X346970Y151726D01*
X346855Y151388D01*
X340969Y145502D01*
X338500D01*
Y149744D01*
X342128Y153372D01*
X342435Y153731D01*
X342681Y154134D01*
X342862Y154570D01*
X342972Y155029D01*
X343009Y155500D01*
Y157492D01*
X343750D01*
X344182Y157526D01*
X344603Y157626D01*
X345002Y157792D01*
X345371Y158018D01*
X345701Y158300D01*
X345874Y158502D01*
X346193Y158614D01*
X346384Y158629D01*
X347116D01*
X347307Y158614D01*
X347626Y158502D01*
X347799Y158300D01*
X348129Y158018D01*
X348498Y157792D01*
X348898Y157626D01*
X349319Y157526D01*
X349750Y157492D01*
X357250D01*
X357682Y157526D01*
X358102Y157626D01*
X358502Y157792D01*
X358871Y158018D01*
X359201Y158300D01*
X359482Y158629D01*
X359708Y158998D01*
X359874Y159398D01*
X359975Y159818D01*
X360009Y160250D01*
Y172750D01*
X359975Y173181D01*
X359874Y173602D01*
X359708Y174002D01*
X359482Y174371D01*
X359201Y174701D01*
X358871Y174982D01*
X358502Y175208D01*
X358102Y175373D01*
X357682Y175474D01*
X357250Y175508D01*
X349750D01*
X349319Y175474D01*
X348898Y175373D01*
X348498Y175208D01*
X348129Y174982D01*
X347799Y174701D01*
X347626Y174498D01*
X347307Y174386D01*
X347116Y174371D01*
X346384D01*
X346193Y174386D01*
X345874Y174498D01*
X345701Y174701D01*
X345371Y174982D01*
X345002Y175208D01*
X344603Y175373D01*
X344182Y175474D01*
X344060Y175484D01*
X343476Y176696D01*
X343432Y176887D01*
X344204Y177750D01*
X357000D01*
Y187750D01*
X344000D01*
X344000Y187750D01*
Y187750D01*
X344000Y187750D01*
X342614Y188025D01*
X342371Y188232D01*
X342002Y188458D01*
X341602Y188624D01*
X341181Y188724D01*
X340750Y188759D01*
X328250D01*
X327818Y188724D01*
X327398Y188624D01*
X327191Y188538D01*
X325726Y188298D01*
X325726Y188298D01*
Y188298D01*
X325000Y188739D01*
Y194494D01*
X327387Y196881D01*
X327398Y196877D01*
X327818Y196775D01*
X328250Y196742D01*
X340750D01*
X341181Y196775D01*
X341602Y196877D01*
X342002Y197042D01*
X342371Y197268D01*
X342500Y197378D01*
X343259Y197211D01*
X344000Y196761D01*
Y196750D01*
X357000D01*
Y206750D01*
X344000D01*
X343325Y207970D01*
X343208Y208252D01*
X342982Y208621D01*
X342701Y208951D01*
X342371Y209232D01*
X342002Y209458D01*
X341602Y209624D01*
X341181Y209725D01*
X340750Y209758D01*
D02*
G37*
G36*
X357250Y122008D02*
X349750D01*
X349319Y121974D01*
X348898Y121874D01*
X348498Y121708D01*
X348129Y121482D01*
X347799Y121201D01*
X347518Y120871D01*
X347292Y120502D01*
X347127Y120102D01*
X347025Y119682D01*
X346992Y119250D01*
Y110759D01*
X342000D01*
X341882Y110750D01*
X333500D01*
Y100750D01*
X346500D01*
Y104373D01*
X348000Y104628D01*
X348129Y104518D01*
X348498Y104292D01*
X348898Y104127D01*
X349319Y104025D01*
X349750Y103991D01*
X357250D01*
X357682Y104025D01*
X358102Y104127D01*
X358502Y104292D01*
X358871Y104518D01*
X359201Y104799D01*
X359482Y105129D01*
X359708Y105498D01*
X359874Y105898D01*
X359975Y106319D01*
X360009Y106750D01*
Y119250D01*
X359975Y119682D01*
X359874Y120102D01*
X359708Y120502D01*
X359482Y120871D01*
X359201Y121201D01*
X358871Y121482D01*
X358502Y121708D01*
X358102Y121874D01*
X357682Y121974D01*
X357250Y122008D01*
D02*
G37*
G36*
X411550Y96500D02*
X392550D01*
Y77500D01*
X411550D01*
Y96500D01*
D02*
G37*
G36*
X330500Y52509D02*
X329827Y52472D01*
X329163Y52359D01*
X328515Y52172D01*
X327893Y51914D01*
X327303Y51588D01*
X326753Y51198D01*
X326251Y50749D01*
X325802Y50247D01*
X325412Y49697D01*
X325086Y49107D01*
X324828Y48485D01*
X324641Y47837D01*
X324528Y47173D01*
X324491Y46500D01*
X324528Y45827D01*
X324641Y45163D01*
X324828Y44515D01*
X325086Y43893D01*
X325412Y43303D01*
X325802Y42753D01*
X326251Y42251D01*
X326753Y41802D01*
X327303Y41412D01*
X327893Y41086D01*
X328515Y40828D01*
X329163Y40641D01*
X329827Y40528D01*
X330500Y40490D01*
X331173Y40528D01*
X331837Y40641D01*
X332485Y40828D01*
X333107Y41086D01*
X333697Y41412D01*
X334247Y41802D01*
X334749Y42251D01*
X335198Y42753D01*
X335588Y43303D01*
X335914Y43893D01*
X336172Y44515D01*
X336359Y45163D01*
X336472Y45827D01*
X336510Y46500D01*
X336472Y47173D01*
X336359Y47837D01*
X336172Y48485D01*
X335914Y49107D01*
X335588Y49697D01*
X335198Y50247D01*
X334749Y50749D01*
X334247Y51198D01*
X333697Y51588D01*
X333107Y51914D01*
X332485Y52172D01*
X331837Y52359D01*
X331173Y52472D01*
X330500Y52509D01*
D02*
G37*
G36*
X74250Y255260D02*
X73661Y255221D01*
X73083Y255106D01*
X72524Y254916D01*
X71995Y254655D01*
X71505Y254328D01*
X71061Y253939D01*
X70672Y253495D01*
X70345Y253005D01*
X70084Y252476D01*
X69894Y251917D01*
X69779Y251339D01*
X69740Y250750D01*
X69779Y250161D01*
X69894Y249583D01*
X70084Y249024D01*
X70345Y248495D01*
X70672Y248005D01*
X71000Y247631D01*
Y244000D01*
X77500D01*
Y247631D01*
X77828Y248005D01*
X78155Y248495D01*
X78416Y249024D01*
X78606Y249583D01*
X78721Y250161D01*
X78760Y250750D01*
X78721Y251339D01*
X78606Y251917D01*
X78416Y252476D01*
X78155Y253005D01*
X77828Y253495D01*
X77439Y253939D01*
X76995Y254328D01*
X76505Y254655D01*
X75976Y254916D01*
X75417Y255106D01*
X74839Y255221D01*
X74250Y255260D01*
D02*
G37*
G36*
X189750Y74510D02*
X189161Y74471D01*
X188583Y74356D01*
X188024Y74166D01*
X187495Y73905D01*
X187005Y73578D01*
X186561Y73189D01*
X186172Y72745D01*
X185846Y72257D01*
X166750D01*
X166397Y72229D01*
X166053Y72147D01*
X165725Y72011D01*
X165423Y71826D01*
X165154Y71596D01*
X165154Y71596D01*
X149654Y56096D01*
X149424Y55827D01*
X149239Y55525D01*
X149103Y55197D01*
X149021Y54853D01*
X148993Y54500D01*
Y40404D01*
X148505Y40078D01*
X148061Y39689D01*
X147672Y39245D01*
X147345Y38755D01*
X147084Y38226D01*
X146894Y37667D01*
X146779Y37089D01*
X146740Y36500D01*
X146779Y35911D01*
X146894Y35333D01*
X147084Y34774D01*
X147345Y34245D01*
X147672Y33755D01*
X148061Y33311D01*
X148505Y32922D01*
X148995Y32594D01*
X149524Y32334D01*
X150083Y32144D01*
X150661Y32029D01*
X151250Y31990D01*
X151839Y32029D01*
X152417Y32144D01*
X152976Y32334D01*
X153505Y32594D01*
X153995Y32922D01*
X154439Y33311D01*
X154828Y33755D01*
X155155Y34245D01*
X155416Y34774D01*
X155606Y35333D01*
X155721Y35911D01*
X155760Y36500D01*
X155721Y37089D01*
X155606Y37667D01*
X155416Y38226D01*
X155155Y38755D01*
X154828Y39245D01*
X154439Y39689D01*
X153995Y40078D01*
X153507Y40404D01*
Y53565D01*
X167685Y67743D01*
X185846D01*
X186172Y67255D01*
X186561Y66811D01*
X187005Y66422D01*
X187495Y66094D01*
X188024Y65834D01*
X188583Y65644D01*
X189161Y65529D01*
X189750Y65490D01*
X190339Y65529D01*
X190917Y65644D01*
X191476Y65834D01*
X192005Y66094D01*
X192495Y66422D01*
X192939Y66811D01*
X193328Y67255D01*
X193655Y67745D01*
X193916Y68274D01*
X194106Y68833D01*
X194221Y69411D01*
X194260Y70000D01*
X194221Y70589D01*
X194106Y71167D01*
X193916Y71726D01*
X193655Y72255D01*
X193328Y72745D01*
X192939Y73189D01*
X192495Y73578D01*
X192005Y73905D01*
X191476Y74166D01*
X190917Y74356D01*
X190339Y74471D01*
X189750Y74510D01*
D02*
G37*
%LPD*%
D10*
X304000Y165500D02*
D03*
X273500D02*
D03*
X8250Y170500D02*
D03*
X38750D02*
D03*
D11*
X353500Y113000D02*
D03*
X374500D02*
D03*
X279000Y132500D02*
D03*
X300000D02*
D03*
X374500Y166500D02*
D03*
X353500D02*
D03*
X340000D02*
D03*
X319000D02*
D03*
X288500Y218500D02*
D03*
X309500D02*
D03*
X7250Y190250D02*
D03*
X28250D02*
D03*
D12*
X356000Y140000D02*
D03*
X332000Y130500D02*
D03*
Y149500D02*
D03*
X340000Y105750D02*
D03*
X316000Y96250D02*
D03*
Y115250D02*
D03*
X318500Y192500D02*
D03*
X294500Y183000D02*
D03*
Y202000D02*
D03*
X374500Y192250D02*
D03*
X350500Y182750D02*
D03*
Y201750D02*
D03*
D13*
X93750Y263000D02*
D03*
X87250D02*
D03*
X80750D02*
D03*
X74250D02*
D03*
X93750Y248500D02*
D03*
X87250D02*
D03*
X80750D02*
D03*
X74250D02*
D03*
D14*
X281500Y95000D02*
D03*
Y116000D02*
D03*
X300000Y95000D02*
D03*
Y116000D02*
D03*
X316000Y129500D02*
D03*
Y150500D02*
D03*
X256000Y167000D02*
D03*
Y188000D02*
D03*
Y222500D02*
D03*
Y201500D02*
D03*
X257000Y119000D02*
D03*
Y98000D02*
D03*
X256000Y132500D02*
D03*
Y153500D02*
D03*
X62000Y167500D02*
D03*
Y188500D02*
D03*
X372000Y129000D02*
D03*
Y150000D02*
D03*
X291000Y255500D02*
D03*
Y234500D02*
D03*
X334500Y203250D02*
D03*
Y182250D02*
D03*
D15*
X353500Y71500D02*
D03*
Y16500D02*
D03*
X263500D02*
D03*
Y71500D02*
D03*
D16*
X324500D02*
D03*
X316500D02*
D03*
X308500D02*
D03*
X300500D02*
D03*
X292500D02*
D03*
D17*
X61000Y91750D02*
D03*
Y122250D02*
D03*
X10750Y71500D02*
D03*
Y102000D02*
D03*
D18*
X13000Y115750D02*
D03*
X18000D02*
D03*
X23000D02*
D03*
X28000D02*
D03*
X33000D02*
D03*
X38000D02*
D03*
Y154250D02*
D03*
X33000D02*
D03*
X28000D02*
D03*
X23000D02*
D03*
X18000D02*
D03*
X13000D02*
D03*
D19*
X44750Y122500D02*
D03*
Y127500D02*
D03*
Y132500D02*
D03*
Y137500D02*
D03*
Y142500D02*
D03*
Y147500D02*
D03*
X6250D02*
D03*
Y142500D02*
D03*
Y137500D02*
D03*
Y132500D02*
D03*
Y127500D02*
D03*
Y122500D02*
D03*
D20*
X234500Y227000D02*
D03*
Y207000D02*
D03*
Y187000D02*
D03*
Y167000D02*
D03*
Y147000D02*
D03*
Y127000D02*
D03*
Y107000D02*
D03*
Y87000D02*
D03*
X84500D02*
D03*
Y107000D02*
D03*
Y127000D02*
D03*
Y147000D02*
D03*
Y167000D02*
D03*
Y187000D02*
D03*
Y207000D02*
D03*
Y227000D02*
D03*
D21*
X209500Y242000D02*
D03*
X189500D02*
D03*
X169500D02*
D03*
X149500D02*
D03*
X129500D02*
D03*
X109500D02*
D03*
D22*
X294625Y182875D02*
X320250Y208500D01*
X294500Y182750D02*
X294625Y182875D01*
X413450Y73000D02*
X427450Y87000D01*
X353500Y73000D02*
X371774D01*
X353500Y71500D02*
Y73000D01*
X294625Y182875D02*
X299500Y178000D01*
Y170000D02*
Y178000D01*
Y170000D02*
X304000Y165500D01*
X294500Y183000D02*
X294625Y182875D01*
X320250Y208500D02*
Y225750D01*
X316000Y129500D02*
X316000Y129500D01*
Y115250D02*
Y129500D01*
X315250Y116000D02*
X316000Y115250D01*
X300000Y116000D02*
X315250D01*
X353500Y109000D02*
Y113000D01*
X352250Y107750D02*
X353500Y109000D01*
X342000Y107750D02*
X352250D01*
X340000Y105750D02*
X342000Y107750D01*
X324500Y71500D02*
X353500D01*
X316500D02*
X324500D01*
X316000Y72000D02*
X316500Y71500D01*
X316000Y72000D02*
Y96250D01*
X300000Y95000D02*
X301250Y96250D01*
X316000D01*
X329250Y203000D02*
X334500D01*
X318500Y192250D02*
X329250Y203000D01*
X340000Y166000D02*
X353500D01*
X363500Y132500D02*
X367250D01*
X356000Y140000D02*
X363500Y132500D01*
X340000Y155500D02*
Y166000D01*
X334000Y149500D02*
X340000Y155500D01*
X332000Y149500D02*
X334000D01*
X334500Y203000D02*
X336000Y201500D01*
X350500D01*
X311500Y234500D02*
X320250Y225750D01*
X331350D01*
X243000Y136257D02*
X250000Y143257D01*
X243000Y128000D02*
Y136257D01*
X56776Y80500D02*
X62021Y75255D01*
X52089Y80500D02*
X56776D01*
X50589Y82000D02*
X52089Y80500D01*
X96005Y75255D02*
Y76741D01*
X68750Y102750D02*
X76000Y95500D01*
Y90500D02*
Y95500D01*
X76250Y89750D02*
Y90250D01*
X334197Y114447D02*
Y128303D01*
X332000Y130500D02*
X334197Y128303D01*
X371774Y73000D02*
X372033Y72741D01*
X377004D01*
X377263Y73000D01*
X413450D01*
X316000Y96250D02*
X316250Y96500D01*
X319485D01*
X323016Y103265D02*
X334197Y114447D01*
X319485Y96500D02*
X323016Y100030D01*
Y103265D01*
X62021Y75255D02*
X96005D01*
X250000Y143257D02*
Y153500D01*
D23*
X101750Y201825D02*
Y254175D01*
Y254250D01*
Y254175D02*
X111825Y264250D01*
X93750Y262250D02*
X101750Y254250D01*
X96432Y253750D02*
X98750Y251432D01*
Y203068D02*
Y251432D01*
X95432Y199750D02*
X98750Y203068D01*
X96750Y196825D02*
X101750Y201825D01*
X93750Y262250D02*
Y263000D01*
X83432Y253750D02*
X96432D01*
X15000Y127000D02*
X16243Y128243D01*
X128007Y166507D02*
X135257Y173757D01*
X128000Y166500D02*
X128007Y166507D01*
X127742Y166758D02*
X128000Y166500D01*
X148000Y190750D02*
X162500D01*
X138511Y181260D02*
X148000Y190750D01*
X135257Y182757D02*
X162250Y209750D01*
X135257Y173757D02*
Y182757D01*
X190250Y155000D02*
X202250D01*
X188500Y153250D02*
X190250Y155000D01*
X125175Y153250D02*
X188500D01*
X119925Y158500D02*
X125175Y153250D01*
X157575Y156250D02*
X180321Y178996D01*
X126417Y156250D02*
X157575D01*
X121167Y161500D02*
X126417Y156250D01*
X156333Y159250D02*
X179079Y181996D01*
X127660Y159250D02*
X156333D01*
X122410Y164500D02*
X127660Y159250D01*
X199250Y202750D02*
X214000Y217500D01*
X199250Y197769D02*
Y202750D01*
X152007Y220261D02*
X152507Y219761D01*
X142753Y220261D02*
X152007D01*
X145750Y227500D02*
X151140D01*
X162250Y209750D02*
Y252932D01*
X119000Y196507D02*
X142753Y220261D01*
X180009Y211157D02*
X187103Y218250D01*
X183009Y209914D02*
X188345Y215250D01*
X183009Y194509D02*
Y209914D01*
X190075Y212250D02*
X200250D01*
X186009Y208185D02*
X190075Y212250D01*
X186009Y204322D02*
Y208185D01*
X191509Y206260D02*
Y206747D01*
X116000Y197750D02*
X145750Y227500D01*
X191509Y206747D02*
X194012Y209250D01*
X174009Y193246D02*
X174322D01*
X138500Y169576D02*
Y181271D01*
X127742Y166758D02*
X127756D01*
X115338Y164500D02*
X122410D01*
X114095Y161500D02*
X121167D01*
X112261Y158500D02*
X119925D01*
X81500Y167750D02*
X86500Y162750D01*
X86750D02*
X89750Y165750D01*
X81500Y167750D02*
X92000D01*
X109845Y165750D02*
X114095Y161500D01*
X108511Y154750D02*
X112261Y158500D01*
X111088Y168750D02*
X115338Y164500D01*
X271250Y108750D02*
X278500Y116000D01*
X257000Y108750D02*
X271250D01*
X96750Y172826D02*
X100826Y168750D01*
X278500Y116000D02*
X281500D01*
X270182Y40500D02*
X280750Y29932D01*
X144000Y3000D02*
X241750D01*
X145243Y6000D02*
X240507D01*
X142837Y8405D02*
X145243Y6000D01*
X142837Y8405D02*
Y54580D01*
X139837Y7163D02*
X144000Y3000D01*
X139837Y7163D02*
Y53337D01*
X243250Y8743D02*
Y31175D01*
X240507Y6000D02*
X243250Y8743D01*
X246250Y7500D02*
Y29932D01*
X241750Y3000D02*
X246250Y7500D01*
X151250Y54500D02*
X166750Y70000D01*
X151250Y36500D02*
Y54500D01*
X96250Y136500D02*
X96750Y136000D01*
Y83420D02*
Y136000D01*
Y83420D02*
X101255Y78915D01*
Y37745D02*
Y78915D01*
Y37745D02*
X117000Y22000D01*
X121500D01*
X166750Y70000D02*
X189750D01*
X243250Y31175D02*
X246325Y34250D01*
X121798Y75619D02*
X142837Y54580D01*
X118798Y74377D02*
X139837Y53337D01*
X246250Y29932D02*
X247568Y31250D01*
X279000Y118500D02*
X281500Y116000D01*
X280750Y25250D02*
Y29932D01*
Y25250D02*
X283600Y22400D01*
X320004Y248000D02*
X327104Y240900D01*
X318762Y245000D02*
X325862Y237900D01*
X346600D01*
X327104Y240900D02*
X346500D01*
X356750Y225750D02*
Y227750D01*
X346600Y237900D02*
X356750Y227750D01*
X346500Y240900D02*
X356750Y251150D01*
X101250Y154750D02*
X108511D01*
X163568Y254250D02*
X172962D01*
X118798Y74377D02*
Y110877D01*
X121798Y75619D02*
Y112119D01*
X113756Y120162D02*
Y123493D01*
Y120162D02*
X121798Y112119D01*
X107675Y122000D02*
Y130824D01*
Y122000D02*
X118798Y110877D01*
X96750Y172826D02*
Y172932D01*
X93750Y175932D02*
Y183000D01*
Y175932D02*
X96750Y172932D01*
X215250Y154750D02*
Y171500D01*
X40750Y172500D02*
Y179250D01*
X28750Y184500D02*
X42925D01*
X28250Y185000D02*
X28750Y184500D01*
X38750Y170500D02*
X40750Y172500D01*
X42925Y184500D02*
X46175Y181250D01*
X70200D01*
X91500Y234250D02*
X94000Y236750D01*
X111825Y264250D02*
X137000D01*
X246000Y194250D02*
X253250Y201500D01*
X253000D02*
X253250D01*
X256000D01*
X246750Y181250D02*
X253500Y188000D01*
X246750Y181068D02*
Y181250D01*
X253500Y188000D02*
X256000D01*
X86500Y162750D02*
X86750D01*
X93250Y183500D02*
X93750Y183000D01*
X253250Y190750D02*
X256000Y188000D01*
X76250Y90250D02*
X79500Y87000D01*
X76000Y90500D02*
X76250Y90250D01*
X79500Y87000D02*
X84500D01*
X61250Y131500D02*
X62250Y130500D01*
X69729D01*
X71750Y128479D01*
Y116021D02*
Y128479D01*
X69729Y114000D02*
X71750Y116021D01*
X48192Y114000D02*
X69729D01*
X37752Y103560D02*
X48192Y114000D01*
X37752Y103242D02*
Y103560D01*
X16500Y74500D02*
X16750Y74750D01*
X14000Y72000D02*
X16500Y74500D01*
X7750D02*
X10750Y71500D01*
X7250Y75000D02*
X7750Y74500D01*
X16750Y90750D02*
X21500Y95500D01*
X16750Y74750D02*
Y90750D01*
X14000Y72000D02*
X18500D01*
X7250Y75000D02*
Y84500D01*
X46600Y149244D02*
X47252D01*
X46553Y149291D02*
X46600Y149244D01*
X47125Y149875D02*
X47131Y149869D01*
X50753Y132493D02*
X50759Y132500D01*
X45250Y127000D02*
X52684D01*
X53184Y127500D01*
X56750D01*
X44750D02*
X45250Y127000D01*
X58250Y126000D02*
X61000Y123250D01*
X56750Y127500D02*
X58250Y126000D01*
X61000Y122250D02*
Y123250D01*
X8250Y170500D02*
X13000Y165750D01*
Y154250D02*
Y165750D01*
X38000Y169750D02*
X38750Y170500D01*
X38000Y154250D02*
Y169750D01*
X21500Y95500D02*
Y106550D01*
X53500Y117000D02*
X53750Y117250D01*
X46950Y117000D02*
X53500D01*
X39450Y109500D02*
X46950Y117000D01*
X24450Y109500D02*
X39450D01*
X21500Y106550D02*
X24450Y109500D01*
X16243Y128243D02*
X16250Y128250D01*
X19001Y122993D02*
X23501Y127493D01*
X7257Y122993D02*
X19001D01*
X7250Y123000D02*
X7257Y122993D01*
X16001Y128243D02*
X16243D01*
X28000Y154250D02*
X33000D01*
X23000D02*
X28000D01*
X18000D02*
X23000D01*
X13000D02*
X18000D01*
X34750Y127500D02*
Y136000D01*
X36250Y137500D01*
X44750D01*
X38000Y146500D02*
X42000Y142500D01*
X35250Y146496D02*
X36002Y145744D01*
X37244D01*
X38000Y146500D01*
X42000Y142500D02*
X44750D01*
X8750D02*
X10250Y144000D01*
X6250Y142500D02*
X8750D01*
X7500Y127000D02*
X15000D01*
X6500Y115750D02*
X13000D01*
X7250Y127250D02*
X7500Y127000D01*
X10750Y102000D02*
X13000Y104250D01*
Y115750D01*
X28000D02*
X33000D01*
X23000D02*
X28000D01*
X18000D02*
X23000D01*
X13000D02*
X18000D01*
X80750Y256432D02*
Y263000D01*
Y256432D02*
X83432Y253750D01*
X87250Y263000D02*
X87254Y262996D01*
Y259249D02*
Y262996D01*
Y258754D02*
Y259249D01*
X119756Y248499D02*
Y255494D01*
X118000Y257250D02*
X119756Y255494D01*
X112250Y257250D02*
X118000D01*
X72250Y221068D02*
X73568Y219750D01*
X72250Y221068D02*
Y232932D01*
X73568Y234250D01*
X91500D01*
X73568Y219750D02*
X78750D01*
X82000Y216500D01*
X84500Y227000D02*
X87752Y223748D01*
X91255D01*
X93498D01*
X112755Y206247D02*
Y227073D01*
X116750Y231068D01*
Y245493D01*
X119756Y248499D01*
X58250Y126000D02*
Y147500D01*
X61250Y131500D02*
Y148743D01*
X28250Y185000D02*
Y190250D01*
X70200Y181250D02*
X72250Y183300D01*
Y195000D01*
X43000Y162750D02*
X58250Y147500D01*
X49250Y160743D02*
Y166250D01*
Y160743D02*
X61250Y148743D01*
X119000Y174250D02*
Y196507D01*
X222250Y183250D02*
Y192932D01*
X223568Y194250D01*
X246000D01*
X290750Y234250D02*
X291000Y234500D01*
X165750Y98575D02*
Y105000D01*
Y98575D02*
X181325Y83000D01*
X230493Y122993D02*
X234500Y127000D01*
X212500Y83000D02*
X221511Y92011D01*
Y92741D01*
X181325Y83000D02*
X212500D01*
X292300Y102250D02*
X292300Y102250D01*
X307700D01*
X307700Y102250D01*
X313500D01*
X374518Y78741D02*
Y98032D01*
X367250Y105300D02*
X374518Y98032D01*
X367250Y105300D02*
Y124250D01*
X372000Y129000D01*
X244678Y178996D02*
X246750Y181068D01*
X220996Y181996D02*
X222250Y183250D01*
X201996Y187246D02*
X202000Y187250D01*
X180321Y178996D02*
X244678D01*
X179079Y181996D02*
X220996D01*
X186509Y187246D02*
X201996D01*
X162250Y252932D02*
X163568Y254250D01*
X225925Y248000D02*
X320004D01*
X186009Y204322D02*
X191250Y199082D01*
X181750Y193250D02*
X183009Y194509D01*
X180009Y198934D02*
Y211157D01*
X174322Y193246D02*
X180009Y198934D01*
X223568Y234250D02*
X290750D01*
X222250Y232932D02*
X223568Y234250D01*
X199250Y222993D02*
Y254175D01*
X202325Y257250D01*
X216675D01*
X225925Y248000D01*
X202250Y221750D02*
Y252932D01*
X203568Y254250D01*
X215432D01*
X178759Y122993D02*
X230493D01*
X188009Y114742D02*
X193260Y119993D01*
X222250Y101068D02*
X223568Y99750D01*
X244750D01*
X247250Y97250D01*
Y92800D02*
Y97250D01*
Y92800D02*
X249300Y90750D01*
X264700D01*
X266750Y92800D01*
Y99750D01*
X269250Y102250D01*
X292300D01*
X315742Y104492D02*
X317015D01*
X313500Y102250D02*
X315742Y104492D01*
X246325Y34250D02*
X259750D01*
X262763Y37263D01*
Y37413D01*
X265850Y40500D01*
X270182D01*
X247568Y31250D02*
X260993D01*
X264981Y35238D01*
X268013D01*
X193260Y119993D02*
X218007D01*
X222250Y115750D01*
Y101068D02*
Y115750D01*
X66250Y203750D02*
X76000D01*
X79250Y207000D01*
X62000Y188500D02*
X64250Y190750D01*
Y195575D01*
X64003Y195822D02*
X64250Y195575D01*
X69253Y197997D02*
X72250Y195000D01*
X69253Y197997D02*
Y198246D01*
X64003Y195822D02*
Y201503D01*
X69253Y198246D02*
X70757Y199750D01*
X95432D01*
X64003Y201503D02*
X66250Y203750D01*
X110750Y174250D02*
X116000Y179500D01*
Y197750D01*
X96750Y177175D02*
Y196825D01*
Y177175D02*
X99429Y174495D01*
X102755D01*
X182250Y173500D02*
X184746Y175996D01*
X210754D01*
X215250Y171500D01*
X191009Y198841D02*
X191250Y199082D01*
X191009Y198246D02*
Y198841D01*
X195750Y215250D02*
X202250Y221750D01*
X194507Y218250D02*
X199250Y222993D01*
X187103Y218250D02*
X194507D01*
X188345Y215250D02*
X195750D01*
X139500Y131250D02*
X165750Y105000D01*
X139000Y130750D02*
X139500Y131250D01*
X137250Y130750D02*
X139000D01*
X216750Y234857D02*
X219144Y237250D01*
X222250Y230000D02*
Y232932D01*
X194012Y209250D02*
X201500D01*
X222250Y230000D01*
X89750Y165750D02*
X109845D01*
X100826Y168750D02*
X111088D01*
X215432Y254250D02*
X224682Y245000D01*
X318762D01*
X216750Y228750D02*
Y234857D01*
X200250Y212250D02*
X216750Y228750D01*
X172962Y254250D02*
X184461Y265750D01*
X316750D01*
X331350Y251150D01*
X214000Y217500D02*
X225849D01*
X106505Y149244D02*
X108749Y147000D01*
X140500D01*
X181000Y106500D01*
X44750Y132500D02*
X50759D01*
X10250Y144000D02*
X15500D01*
X94000Y236750D02*
Y248500D01*
X46553Y149291D02*
X47131Y149869D01*
X44750Y147500D02*
X47125Y149875D01*
D24*
X87250Y243886D02*
X88000Y244636D01*
X87250Y243886D02*
Y248500D01*
X88000Y244636D02*
X88750Y243886D01*
Y242386D02*
Y243886D01*
D25*
X7750Y74500D02*
X16500D01*
X319000Y163750D02*
Y166500D01*
X374500Y113000D02*
X395800D01*
X401800Y119000D01*
X351136Y150000D02*
X372000D01*
X270742Y191000D02*
X284500D01*
X270496Y191246D02*
X270742Y191000D01*
X270000Y190750D02*
X270496Y191246D01*
X427200Y119000D02*
Y150750D01*
X414700Y163250D02*
X427200Y150750D01*
X396622Y163250D02*
X414700D01*
X383372Y150000D02*
X396622Y163250D01*
X372000Y150000D02*
X383372D01*
X198000Y15250D02*
X201250Y12000D01*
X226750D01*
X294500Y201750D02*
X298000D01*
X309500Y213250D02*
Y218250D01*
X298000Y201750D02*
X309500Y213250D01*
X274250Y47250D02*
X283000Y56000D01*
Y93500D01*
X281500Y95000D02*
X283000Y93500D01*
X288500Y218500D02*
Y231750D01*
Y218250D02*
Y218500D01*
X374500Y192000D02*
X392000D01*
X374500Y166000D02*
Y192000D01*
X330000Y177000D02*
Y181250D01*
X322000Y169000D02*
X330000Y177000D01*
Y181250D02*
X330750Y182000D01*
X335000Y182500D02*
X350500D01*
X392000Y192000D02*
X402000Y182000D01*
X374500Y166000D02*
X374500Y166000D01*
X288500Y231750D02*
X291000Y234250D01*
X54290Y74500D02*
X73770Y55020D01*
X16500Y74500D02*
X54290D01*
X7250D02*
X7750D01*
X10750Y71500D02*
X11750Y72500D01*
X183500Y88250D02*
X210000D01*
X171000Y100750D02*
X183500Y88250D01*
X7250Y190250D02*
X8661D01*
X22911Y176000D01*
X35000D01*
X79250Y207000D02*
X84500D01*
X221511Y92741D02*
X227252Y87000D01*
X234500D01*
X334500Y182000D02*
X335000Y182500D01*
X330750Y182000D02*
X334500D01*
D26*
X247500Y112685D02*
X253815Y119000D01*
X256000D01*
X270000Y190750D02*
Y208500D01*
Y167500D02*
Y190750D01*
X279000Y118500D02*
Y132500D01*
X256000Y222500D02*
X270000Y208500D01*
X269500Y167000D02*
X270000Y166500D01*
X256000Y132500D02*
X270000Y146500D01*
X269500Y167000D02*
X270000Y167500D01*
X234500Y227000D02*
X251500D01*
X256000Y222500D01*
Y167000D02*
X269500D01*
X247500Y110500D02*
Y112685D01*
X234500Y107000D02*
X244000D01*
X247500Y110500D01*
X256000Y119000D02*
Y132500D01*
X270000Y146500D02*
Y166500D01*
D27*
X342630Y141494D02*
X351136Y150000D01*
X335016Y141494D02*
X342630D01*
X296000Y18500D02*
Y50000D01*
X287500Y10000D02*
X296000Y18500D01*
X292500Y53500D02*
X296000Y50000D01*
X292500Y53500D02*
Y71500D01*
D28*
X179500Y239750D02*
X180000Y240250D01*
Y253864D01*
X262750Y259500D02*
X265750Y256500D01*
X220435Y259500D02*
X262750D01*
X187636Y261500D02*
X218435D01*
X220435Y259500D01*
X180000Y253864D02*
X187636Y261500D01*
D29*
X115548Y72952D02*
Y109530D01*
X108329Y116750D02*
X115548Y109530D01*
X105500Y116750D02*
X108329D01*
X115548Y72952D02*
X131500Y57000D01*
Y54250D02*
Y57000D01*
D30*
X40000Y40000D02*
D03*
Y230000D02*
D03*
X404000D02*
D03*
Y40000D02*
D03*
D31*
X427450Y87000D02*
D03*
X401800Y150750D02*
D03*
Y119000D02*
D03*
X356750Y225750D02*
D03*
X331350D02*
D03*
Y251150D02*
D03*
X427200Y183000D02*
D03*
D32*
X402050Y87000D02*
D03*
X427200Y150750D02*
D03*
Y119000D02*
D03*
X356750Y251150D02*
D03*
X401800Y183000D02*
D03*
D33*
X330500Y46500D02*
D03*
X286500D02*
D03*
D34*
X226000Y35000D02*
D03*
X151000Y185500D02*
D03*
X199250Y197769D02*
D03*
X153507Y220011D02*
D03*
X151140Y227500D02*
D03*
X179009Y217761D02*
D03*
X191509Y206260D02*
D03*
X174009Y193246D02*
D03*
X138500Y169576D02*
D03*
X127756Y166758D02*
D03*
X435000Y200001D02*
D03*
X430000Y170001D02*
D03*
X435000Y100001D02*
D03*
X430000Y70001D02*
D03*
X435000Y60001D02*
D03*
X425000Y200001D02*
D03*
X420000Y170001D02*
D03*
X425000Y100001D02*
D03*
X410000Y130001D02*
D03*
X415000Y100001D02*
D03*
Y80001D02*
D03*
X405000Y100001D02*
D03*
X395000Y140001D02*
D03*
X390000Y130001D02*
D03*
X395000Y100001D02*
D03*
X385000Y260001D02*
D03*
Y200001D02*
D03*
X380000Y10000D02*
D03*
X375000Y260001D02*
D03*
X370000Y250001D02*
D03*
X375000Y20001D02*
D03*
X365000Y40001D02*
D03*
X355000D02*
D03*
X345000Y220001D02*
D03*
Y40001D02*
D03*
X330000Y30001D02*
D03*
Y10000D02*
D03*
X320000Y30001D02*
D03*
X325000Y20001D02*
D03*
X320000Y10000D02*
D03*
X315000Y40001D02*
D03*
X310000Y30001D02*
D03*
X315000Y20001D02*
D03*
X310000Y10000D02*
D03*
X300000Y150001D02*
D03*
X305000Y40001D02*
D03*
Y20001D02*
D03*
X300000Y10000D02*
D03*
X285000Y160001D02*
D03*
X235000Y60001D02*
D03*
X225000D02*
D03*
X215000D02*
D03*
X185000Y20001D02*
D03*
X160000Y30001D02*
D03*
X155000Y20001D02*
D03*
X120000Y130001D02*
D03*
X115000Y140001D02*
D03*
X110000Y10000D02*
D03*
X105000Y140001D02*
D03*
Y20001D02*
D03*
X80000Y30001D02*
D03*
Y10000D02*
D03*
X75000Y40001D02*
D03*
Y20001D02*
D03*
X70000Y10000D02*
D03*
X60000D02*
D03*
X10000Y210001D02*
D03*
X257000Y108750D02*
D03*
X335016Y141494D02*
D03*
X319000Y163750D02*
D03*
X284500Y191000D02*
D03*
X268013Y35238D02*
D03*
X218100Y22400D02*
D03*
X226750Y12000D02*
D03*
X198000Y15250D02*
D03*
X151250Y36500D02*
D03*
X121500Y22000D02*
D03*
X189750Y70000D02*
D03*
X274250Y47250D02*
D03*
X311500Y234500D02*
D03*
X265750Y256500D02*
D03*
X287500Y10000D02*
D03*
X96250Y136500D02*
D03*
X106505Y149244D02*
D03*
X101250Y154750D02*
D03*
X179500Y239750D02*
D03*
X202250Y155000D02*
D03*
X107505Y130993D02*
D03*
X113756Y123493D02*
D03*
X105500Y116750D02*
D03*
X283600Y22400D02*
D03*
X119000Y174250D02*
D03*
X110750Y174250D02*
D03*
X102755Y174495D02*
D03*
X215250Y154750D02*
D03*
X77500Y167250D02*
D03*
X40750Y179250D02*
D03*
X202000Y187250D02*
D03*
X96005Y76741D02*
D03*
X50589Y82000D02*
D03*
X78750Y106250D02*
D03*
X68750Y102750D02*
D03*
X131500Y54250D02*
D03*
X37752Y103242D02*
D03*
X73770Y55020D02*
D03*
X7250Y84500D02*
D03*
X47252Y149244D02*
D03*
X50753Y132493D02*
D03*
X16001Y128243D02*
D03*
X23501Y127493D02*
D03*
X34750Y127500D02*
D03*
X36002Y145744D02*
D03*
X15500Y145000D02*
D03*
X6500Y115750D02*
D03*
X74250Y250750D02*
D03*
X87254Y259249D02*
D03*
X137000Y264250D02*
D03*
X119756Y248499D02*
D03*
X112250Y257250D02*
D03*
X210000Y88250D02*
D03*
X171000Y100750D02*
D03*
X88750Y242386D02*
D03*
X82000Y216500D02*
D03*
X91255Y223748D02*
D03*
X112755Y206247D02*
D03*
X49250Y166250D02*
D03*
X178759Y122993D02*
D03*
X253500Y98250D02*
D03*
X221511Y92741D02*
D03*
X374518Y78741D02*
D03*
X181000Y106500D02*
D03*
X312000Y152750D02*
D03*
X225849Y217500D02*
D03*
X181750Y193250D02*
D03*
X182250Y173500D02*
D03*
X186509Y187246D02*
D03*
X162500Y190750D02*
D03*
X283250Y150000D02*
D03*
X151000Y207750D02*
D03*
X159750Y198500D02*
D03*
X169250Y212500D02*
D03*
X219144Y237250D02*
D03*
X188009Y114742D02*
D03*
X216761Y99242D02*
D03*
X317015Y104492D02*
D03*
X69253Y198246D02*
D03*
X191009D02*
D03*
X188250Y55858D02*
D03*
X341250Y90250D02*
D03*
X198750Y106221D02*
D03*
X199250Y130750D02*
D03*
X290000Y126250D02*
D03*
X291000Y255500D02*
D03*
X137250Y141000D02*
D03*
Y130750D02*
D03*
X146500Y109500D02*
D03*
X133000Y120250D02*
D03*
X130500Y77000D02*
D03*
X5500Y176750D02*
D03*
X39250Y189750D02*
D03*
X79000Y177000D02*
D03*
X53000Y98500D02*
D03*
X117750Y153250D02*
D03*
M02*
