G04 Layer_Color=65535*
%FSLAX44Y44*%
%MOMM*%
G71*
G01*
G75*
%ADD23C,0.1500*%
%ADD49C,0.1000*%
%ADD50C,0.2500*%
D23*
X265750Y155250D02*
Y175750D01*
Y155250D02*
X311750D01*
Y175750D01*
X265750D02*
X311750D01*
X381250Y103750D02*
Y122250D01*
X346750D02*
X381250D01*
X346750Y103750D02*
Y122250D01*
Y103750D02*
X381250D01*
X325250Y123250D02*
X333000D01*
X325250D02*
Y156750D01*
X362750D01*
Y123250D02*
Y156750D01*
X335750Y123250D02*
X362750D01*
X333000D02*
X335750D01*
X306750D02*
Y141750D01*
X272250D02*
X306750D01*
X272250Y123250D02*
Y141750D01*
Y123250D02*
X306750D01*
X272250Y122750D02*
X290750D01*
X272250Y88250D02*
Y122750D01*
Y88250D02*
X290750D01*
Y122750D01*
X290750Y122750D02*
X309250D01*
X290750Y88250D02*
Y122750D01*
Y88250D02*
X309250D01*
Y122750D01*
X395000Y72750D02*
X442000D01*
X387500Y80250D02*
X395000Y72750D01*
X387500Y80250D02*
Y101250D01*
X442000D01*
Y72750D02*
Y101250D01*
X309250Y89000D02*
X317000D01*
X309250D02*
Y122500D01*
X346750D01*
Y89000D02*
Y122500D01*
X319750Y89000D02*
X346750D01*
X317000D02*
X319750D01*
X306750Y157250D02*
X325250D01*
X306750Y122750D02*
Y157250D01*
Y122750D02*
X325250D01*
Y157250D01*
X387250Y165000D02*
X434250D01*
X441750Y157500D01*
Y136500D02*
Y157500D01*
X387250Y136500D02*
X441750D01*
X387250D02*
Y165000D01*
Y133250D02*
X434250D01*
X441750Y125750D01*
Y104750D02*
Y125750D01*
X387250Y104750D02*
X441750D01*
X387250D02*
Y133250D01*
X316800Y211700D02*
Y265200D01*
Y211700D02*
X371300D01*
X316800Y265200D02*
X366050D01*
X371300Y211700D02*
Y259950D01*
X366050Y265200D02*
X371300Y259950D01*
X370250Y71500D02*
Y88250D01*
X246750D02*
X370250D01*
X246750Y85750D02*
Y88250D01*
Y2250D02*
Y85750D01*
Y2250D02*
X360750D01*
X370250D02*
Y68000D01*
X360750Y2250D02*
X370250D01*
Y68000D02*
Y71500D01*
X246750Y194750D02*
X265250D01*
X246750Y160250D02*
Y194750D01*
Y160250D02*
X265250D01*
Y194750D01*
X246750D02*
X265250D01*
Y229250D01*
X246750D02*
X265250D01*
X246750Y194750D02*
Y229250D01*
X247750Y91250D02*
X266250D01*
Y125750D01*
X247750D02*
X266250D01*
X247750Y91250D02*
Y125750D01*
X246750Y160250D02*
X265250D01*
X246750Y125750D02*
Y160250D01*
Y125750D02*
X265250D01*
Y160250D01*
X52750Y195250D02*
X71250D01*
X52750Y160750D02*
Y195250D01*
Y160750D02*
X71250D01*
Y195250D01*
X50750Y130000D02*
X71250D01*
X50750Y84000D02*
Y130000D01*
Y84000D02*
X71250D01*
Y130000D01*
X500Y109750D02*
X21000D01*
X500Y63750D02*
Y109750D01*
Y63750D02*
X21000D01*
Y109750D01*
X4000Y113500D02*
X8000D01*
X4000D02*
Y117500D01*
Y152500D02*
Y156500D01*
X8000D01*
X43000D02*
X47000D01*
Y152500D02*
Y156500D01*
X43000Y113500D02*
X47000D01*
Y117500D01*
X346750Y157250D02*
Y175750D01*
Y157250D02*
X381250D01*
Y175750D01*
X346750D02*
X381250D01*
X362750Y156750D02*
X381250D01*
X362750Y122250D02*
Y156750D01*
Y122250D02*
X381250D01*
Y156750D01*
X312250Y157250D02*
Y175750D01*
Y157250D02*
X346750D01*
Y175750D01*
X312250D02*
X346750D01*
X281750Y227750D02*
X300250D01*
Y262250D01*
X281750D02*
X300250D01*
X281750Y227750D02*
Y262250D01*
X316250Y209250D02*
Y227750D01*
X281750D02*
X316250D01*
X281750Y209250D02*
Y227750D01*
Y209250D02*
X316250D01*
X287750Y175750D02*
X295500D01*
X287750D02*
Y209250D01*
X325250D01*
Y175750D02*
Y209250D01*
X298250Y175750D02*
X325250D01*
X295500D02*
X298250D01*
X343750Y175500D02*
X351500D01*
X343750D02*
Y209000D01*
X381250D01*
Y175500D02*
Y209000D01*
X354250Y175500D02*
X381250D01*
X351500D02*
X354250D01*
X394750Y168750D02*
X441750D01*
X387250Y176250D02*
X394750Y168750D01*
X387250Y176250D02*
Y197250D01*
X441750D01*
Y168750D02*
Y197250D01*
X325250Y175500D02*
X343750D01*
Y210000D01*
X325250D02*
X343750D01*
X325250Y175500D02*
Y210000D01*
X46500Y160250D02*
Y180750D01*
X500D02*
X46500D01*
X500Y160250D02*
Y180750D01*
Y160250D02*
X46500D01*
X500Y199500D02*
X35000D01*
Y181000D02*
Y199500D01*
X500Y181000D02*
X35000D01*
X500D02*
Y199500D01*
D49*
X70750Y268250D02*
G03*
X70750Y268250I-500J0D01*
G01*
D50*
X6750Y107000D02*
G03*
X6750Y107000I-1250J0D01*
G01*
M02*
