G04 Layer_Physical_Order=2*
G04 Layer_Color=16711680*
%FSLAX44Y44*%
%MOMM*%
G71*
G01*
G75*
G04:AMPARAMS|DCode=10|XSize=1.2mm|YSize=1.7mm|CornerRadius=0.12mm|HoleSize=0mm|Usage=FLASHONLY|Rotation=180.000|XOffset=0mm|YOffset=0mm|HoleType=Round|Shape=RoundedRectangle|*
%AMROUNDEDRECTD10*
21,1,1.2000,1.4600,0,0,180.0*
21,1,0.9600,1.7000,0,0,180.0*
1,1,0.2400,-0.4800,0.7300*
1,1,0.2400,0.4800,0.7300*
1,1,0.2400,0.4800,-0.7300*
1,1,0.2400,-0.4800,-0.7300*
%
%ADD10ROUNDEDRECTD10*%
G04:AMPARAMS|DCode=11|XSize=1mm|YSize=1.5mm|CornerRadius=0.125mm|HoleSize=0mm|Usage=FLASHONLY|Rotation=180.000|XOffset=0mm|YOffset=0mm|HoleType=Round|Shape=RoundedRectangle|*
%AMROUNDEDRECTD11*
21,1,1.0000,1.2500,0,0,180.0*
21,1,0.7500,1.5000,0,0,180.0*
1,1,0.2500,-0.3750,0.6250*
1,1,0.2500,0.3750,0.6250*
1,1,0.2500,0.3750,-0.6250*
1,1,0.2500,-0.3750,-0.6250*
%
%ADD11ROUNDEDRECTD11*%
G04:AMPARAMS|DCode=14|XSize=1mm|YSize=1.5mm|CornerRadius=0.125mm|HoleSize=0mm|Usage=FLASHONLY|Rotation=270.000|XOffset=0mm|YOffset=0mm|HoleType=Round|Shape=RoundedRectangle|*
%AMROUNDEDRECTD14*
21,1,1.0000,1.2500,0,0,270.0*
21,1,0.7500,1.5000,0,0,270.0*
1,1,0.2500,-0.6250,-0.3750*
1,1,0.2500,-0.6250,0.3750*
1,1,0.2500,0.6250,0.3750*
1,1,0.2500,0.6250,-0.3750*
%
%ADD14ROUNDEDRECTD14*%
G04:AMPARAMS|DCode=17|XSize=1.2mm|YSize=1.7mm|CornerRadius=0.12mm|HoleSize=0mm|Usage=FLASHONLY|Rotation=90.000|XOffset=0mm|YOffset=0mm|HoleType=Round|Shape=RoundedRectangle|*
%AMROUNDEDRECTD17*
21,1,1.2000,1.4600,0,0,90.0*
21,1,0.9600,1.7000,0,0,90.0*
1,1,0.2400,0.7300,0.4800*
1,1,0.2400,0.7300,-0.4800*
1,1,0.2400,-0.7300,-0.4800*
1,1,0.2400,-0.7300,0.4800*
%
%ADD17ROUNDEDRECTD17*%
%ADD22C,0.3000*%
%ADD23C,0.1500*%
%ADD25C,0.6000*%
%ADD26C,1.0000*%
%ADD27C,0.5000*%
%ADD29C,0.2000*%
%ADD30C,6.0000*%
%ADD31C,1.6000*%
%ADD32R,1.6000X1.6000*%
%ADD33C,0.9000*%
%ADD34C,0.6000*%
G04:AMPARAMS|DCode=35|XSize=2.2mm|YSize=2.6mm|CornerRadius=0.33mm|HoleSize=0mm|Usage=FLASHONLY|Rotation=180.000|XOffset=0mm|YOffset=0mm|HoleType=Round|Shape=RoundedRectangle|*
%AMROUNDEDRECTD35*
21,1,2.2000,1.9400,0,0,180.0*
21,1,1.5400,2.6000,0,0,180.0*
1,1,0.6600,-0.7700,0.9700*
1,1,0.6600,0.7700,0.9700*
1,1,0.6600,0.7700,-0.9700*
1,1,0.6600,-0.7700,-0.9700*
%
%ADD35ROUNDEDRECTD35*%
G04:AMPARAMS|DCode=36|XSize=2.2mm|YSize=2.6mm|CornerRadius=0.33mm|HoleSize=0mm|Usage=FLASHONLY|Rotation=90.000|XOffset=0mm|YOffset=0mm|HoleType=Round|Shape=RoundedRectangle|*
%AMROUNDEDRECTD36*
21,1,2.2000,1.9400,0,0,90.0*
21,1,1.5400,2.6000,0,0,90.0*
1,1,0.6600,0.9700,0.7700*
1,1,0.6600,0.9700,-0.7700*
1,1,0.6600,-0.9700,-0.7700*
1,1,0.6600,-0.9700,0.7700*
%
%ADD36ROUNDEDRECTD36*%
G04:AMPARAMS|DCode=37|XSize=0.6mm|YSize=1mm|CornerRadius=0.105mm|HoleSize=0mm|Usage=FLASHONLY|Rotation=0.000|XOffset=0mm|YOffset=0mm|HoleType=Round|Shape=RoundedRectangle|*
%AMROUNDEDRECTD37*
21,1,0.6000,0.7900,0,0,0.0*
21,1,0.3900,1.0000,0,0,0.0*
1,1,0.2100,0.1950,-0.3950*
1,1,0.2100,-0.1950,-0.3950*
1,1,0.2100,-0.1950,0.3950*
1,1,0.2100,0.1950,0.3950*
%
%ADD37ROUNDEDRECTD37*%
%ADD38R,0.7000X1.0000*%
%ADD39O,0.6000X1.1000*%
%ADD40O,0.6000X1.8000*%
G04:AMPARAMS|DCode=41|XSize=2.3mm|YSize=2.8mm|CornerRadius=0.345mm|HoleSize=0mm|Usage=FLASHONLY|Rotation=90.000|XOffset=0mm|YOffset=0mm|HoleType=Round|Shape=RoundedRectangle|*
%AMROUNDEDRECTD41*
21,1,2.3000,2.1100,0,0,90.0*
21,1,1.6100,2.8000,0,0,90.0*
1,1,0.6900,1.0550,0.8050*
1,1,0.6900,1.0550,-0.8050*
1,1,0.6900,-1.0550,-0.8050*
1,1,0.6900,-1.0550,0.8050*
%
%ADD41ROUNDEDRECTD41*%
G04:AMPARAMS|DCode=42|XSize=0.6mm|YSize=1mm|CornerRadius=0.105mm|HoleSize=0mm|Usage=FLASHONLY|Rotation=270.000|XOffset=0mm|YOffset=0mm|HoleType=Round|Shape=RoundedRectangle|*
%AMROUNDEDRECTD42*
21,1,0.6000,0.7900,0,0,270.0*
21,1,0.3900,1.0000,0,0,270.0*
1,1,0.2100,-0.3950,-0.1950*
1,1,0.2100,-0.3950,0.1950*
1,1,0.2100,0.3950,0.1950*
1,1,0.2100,0.3950,-0.1950*
%
%ADD42ROUNDEDRECTD42*%
G04:AMPARAMS|DCode=43|XSize=1.4mm|YSize=1.2mm|CornerRadius=0.12mm|HoleSize=0mm|Usage=FLASHONLY|Rotation=90.000|XOffset=0mm|YOffset=0mm|HoleType=Round|Shape=RoundedRectangle|*
%AMROUNDEDRECTD43*
21,1,1.4000,0.9600,0,0,90.0*
21,1,1.1600,1.2000,0,0,90.0*
1,1,0.2400,0.4800,0.5800*
1,1,0.2400,0.4800,-0.5800*
1,1,0.2400,-0.4800,-0.5800*
1,1,0.2400,-0.4800,0.5800*
%
%ADD43ROUNDEDRECTD43*%
%ADD44O,0.3000X1.4500*%
%ADD45O,1.4500X0.3000*%
%ADD46R,2.4100X3.3000*%
%ADD47O,1.4000X0.6000*%
%ADD48R,1.4000X0.6000*%
G36*
X129106Y267493D02*
X129991Y266500D01*
Y259000D01*
X129106Y258007D01*
X128697Y257757D01*
X118925D01*
X118925Y257757D01*
X118572Y257729D01*
X118227Y257647D01*
X117900Y257511D01*
X117598Y257326D01*
X117329Y257096D01*
X117329Y257096D01*
X107969Y247736D01*
X102935D01*
X101575Y249096D01*
X101306Y249326D01*
X101004Y249511D01*
X100676Y249646D01*
X100332Y249729D01*
X99979Y249757D01*
X96435D01*
X90433Y255759D01*
X90443Y256061D01*
X90832Y256504D01*
X91160Y256995D01*
X91421Y257524D01*
X91610Y258082D01*
X91725Y258661D01*
X91764Y259249D01*
X91725Y259838D01*
X91610Y260417D01*
X91421Y260975D01*
X91160Y261504D01*
X90832Y261995D01*
X90443Y262438D01*
X90000Y262827D01*
X89509Y263155D01*
X88980Y263416D01*
X88421Y263605D01*
X87843Y263720D01*
X87254Y263759D01*
X86666Y263720D01*
X86087Y263605D01*
X85528Y263416D01*
X84999Y263155D01*
X84509Y262827D01*
X84066Y262438D01*
X83677Y261995D01*
X83349Y261504D01*
X83088Y260975D01*
X82898Y260417D01*
X82783Y259838D01*
X82758Y259459D01*
X81258Y259508D01*
Y266550D01*
X82165Y267508D01*
X82580Y267743D01*
X128697D01*
X129106Y267493D01*
D02*
G37*
G36*
X115743Y220815D02*
Y208427D01*
X115749Y208357D01*
Y203940D01*
X114565Y202757D01*
X99197D01*
X99197Y202757D01*
X98844Y202729D01*
X98499Y202647D01*
X98172Y202511D01*
X97870Y202326D01*
X97601Y202096D01*
X97601Y202096D01*
X94961Y199456D01*
X94570Y199362D01*
X94257Y199232D01*
X93671Y199440D01*
X92959Y199838D01*
X92757Y200075D01*
Y214374D01*
X93029Y214486D01*
X93331Y214671D01*
X93600Y214902D01*
X95192Y216493D01*
X97741D01*
Y210000D01*
X97775Y209569D01*
X97877Y209148D01*
X98042Y208748D01*
X98268Y208379D01*
X98549Y208049D01*
X98879Y207768D01*
X99248Y207542D01*
X99648Y207376D01*
X100069Y207276D01*
X100500Y207241D01*
X108000D01*
X108432Y207276D01*
X108852Y207376D01*
X109252Y207542D01*
X109621Y207768D01*
X109951Y208049D01*
X110232Y208379D01*
X110458Y208748D01*
X110624Y209148D01*
X110724Y209569D01*
X110758Y210000D01*
Y222500D01*
X110724Y222931D01*
X110624Y223352D01*
X110458Y223752D01*
X110232Y224121D01*
X109951Y224450D01*
X109621Y224732D01*
X109252Y224958D01*
X108852Y225124D01*
X108432Y225224D01*
X108196Y225243D01*
X108255Y226743D01*
X109815D01*
X115743Y220815D01*
D02*
G37*
G36*
X234935Y267075D02*
X234988Y266897D01*
X235051Y266243D01*
X227654Y258846D01*
X227424Y258577D01*
X227239Y258275D01*
X227104Y257947D01*
X227021Y257603D01*
X226993Y257250D01*
Y242456D01*
X224794Y240257D01*
X222492D01*
X222332Y240439D01*
X221889Y240828D01*
X221398Y241155D01*
X220869Y241416D01*
X220311Y241606D01*
X219732Y241721D01*
X219144Y241760D01*
X218555Y241721D01*
X217976Y241606D01*
X217418Y241416D01*
X216889Y241155D01*
X216398Y240828D01*
X215955Y240439D01*
X215566Y239995D01*
X215238Y239505D01*
X214977Y238976D01*
X214788Y238417D01*
X214672Y237839D01*
X214634Y237250D01*
X214672Y236661D01*
X214788Y236083D01*
X214977Y235524D01*
X215238Y234995D01*
X215566Y234505D01*
X215955Y234061D01*
X216398Y233672D01*
X216889Y233345D01*
X217418Y233084D01*
X217976Y232894D01*
X218555Y232779D01*
X219144Y232740D01*
X219732Y232779D01*
X220311Y232894D01*
X220869Y233084D01*
X221398Y233345D01*
X221889Y233672D01*
X222332Y234061D01*
X222721Y234505D01*
X223049Y234995D01*
X223310Y235524D01*
X223384Y235743D01*
X225729D01*
X226082Y235771D01*
X226427Y235854D01*
X226754Y235989D01*
X227056Y236174D01*
X227325Y236404D01*
X230846Y239925D01*
X230846Y239925D01*
X231076Y240194D01*
X231261Y240496D01*
X231397Y240823D01*
X231479Y241168D01*
X231507Y241521D01*
Y256315D01*
X237685Y262493D01*
X259167D01*
X259741Y261107D01*
X256904Y258270D01*
X256674Y258001D01*
X256489Y257699D01*
X256353Y257372D01*
X256271Y257028D01*
X256243Y256675D01*
Y143300D01*
X256271Y142947D01*
X256353Y142603D01*
X256489Y142276D01*
X256674Y141974D01*
X256904Y141704D01*
X262993Y135615D01*
Y118435D01*
X260815Y116257D01*
X254825D01*
X254472Y116229D01*
X254128Y116146D01*
X253801Y116011D01*
X253499Y115826D01*
X253230Y115596D01*
X253229Y115596D01*
X251640Y114007D01*
X212500D01*
X212147Y113979D01*
X211803Y113897D01*
X211475Y113761D01*
X211173Y113576D01*
X210904Y113346D01*
X210904Y113346D01*
X205404Y107846D01*
X205174Y107577D01*
X204989Y107275D01*
X204854Y106947D01*
X204771Y106603D01*
X204743Y106250D01*
Y98956D01*
X204044Y98257D01*
X193456D01*
X185491Y106221D01*
X185510Y106500D01*
X185471Y107089D01*
X185356Y107667D01*
X185166Y108226D01*
X184905Y108755D01*
X184578Y109245D01*
X184189Y109689D01*
X183745Y110078D01*
X183255Y110405D01*
X182726Y110666D01*
X182167Y110856D01*
X181589Y110971D01*
X181000Y111010D01*
X180411Y110971D01*
X179833Y110856D01*
X179274Y110666D01*
X178745Y110405D01*
X178255Y110078D01*
X177811Y109689D01*
X177422Y109245D01*
X177258Y109000D01*
X176457Y109075D01*
X175758Y109426D01*
Y114050D01*
X175725Y114474D01*
X175626Y114887D01*
X175463Y115280D01*
X175241Y115642D01*
X174965Y115965D01*
X174758Y116142D01*
Y118108D01*
X174965Y118285D01*
X174992Y118316D01*
X175275Y118621D01*
X176060Y118919D01*
X177012Y118837D01*
X177033Y118827D01*
X177591Y118637D01*
X178170Y118522D01*
X178759Y118483D01*
X179347Y118522D01*
X179926Y118637D01*
X180485Y118827D01*
X181014Y119087D01*
X181504Y119415D01*
X181947Y119804D01*
X182337Y120247D01*
X182664Y120738D01*
X182925Y121267D01*
X183115Y121826D01*
X183230Y122404D01*
X183268Y122993D01*
X183230Y123581D01*
X183115Y124160D01*
X182925Y124719D01*
X182664Y125248D01*
X182337Y125738D01*
X181947Y126182D01*
X181504Y126571D01*
X181014Y126898D01*
X180485Y127159D01*
X179926Y127349D01*
X179347Y127464D01*
X178759Y127502D01*
X178757Y127504D01*
Y136229D01*
X178729Y136582D01*
X178647Y136926D01*
X178511Y137254D01*
X178326Y137556D01*
X178096Y137825D01*
X178096Y137825D01*
X176075Y139846D01*
X175806Y140076D01*
X175504Y140261D01*
X175177Y140396D01*
X174832Y140479D01*
X174479Y140507D01*
X162021D01*
X162021Y140507D01*
X161668Y140479D01*
X161324Y140396D01*
X160996Y140261D01*
X160694Y140076D01*
X160425Y139846D01*
X160425Y139846D01*
X158836Y138257D01*
X157977D01*
X157769Y138434D01*
X157366Y138681D01*
X156930Y138862D01*
X156471Y138972D01*
X156000Y139009D01*
X144500D01*
X144029Y138972D01*
X143570Y138862D01*
X143134Y138681D01*
X142731Y138434D01*
X142372Y138128D01*
X142065Y137769D01*
X141819Y137366D01*
X141638Y136930D01*
X141528Y136471D01*
X141491Y136000D01*
X141528Y135529D01*
X141638Y135070D01*
X141819Y134634D01*
X140594Y133762D01*
X140439Y133939D01*
X139995Y134328D01*
X139505Y134656D01*
X138976Y134916D01*
X138417Y135106D01*
X137839Y135221D01*
X137250Y135260D01*
X136661Y135221D01*
X136083Y135106D01*
X135524Y134916D01*
X134995Y134656D01*
X134505Y134328D01*
X134061Y133939D01*
X133672Y133495D01*
X133344Y133005D01*
X133084Y132476D01*
X132894Y131917D01*
X132779Y131339D01*
X132740Y130750D01*
X132779Y130161D01*
X132894Y129583D01*
X133084Y129024D01*
X133344Y128495D01*
X133672Y128005D01*
X134061Y127561D01*
X134505Y127172D01*
X134995Y126845D01*
X135524Y126584D01*
X136083Y126394D01*
X136661Y126279D01*
X137250Y126240D01*
X137839Y126279D01*
X138417Y126394D01*
X138976Y126584D01*
X139505Y126845D01*
X139995Y127172D01*
X140439Y127561D01*
X140828Y128005D01*
X141154Y128493D01*
X142849D01*
X143134Y128319D01*
X143570Y128138D01*
X144029Y128028D01*
X144500Y127991D01*
X156000D01*
X156471Y128028D01*
X156930Y128138D01*
X157366Y128319D01*
X157769Y128566D01*
X158128Y128872D01*
X158435Y129231D01*
X158681Y129634D01*
X158862Y130070D01*
X158972Y130529D01*
X159009Y131000D01*
X158972Y131471D01*
X158955Y131544D01*
X159751Y132497D01*
X159773Y132511D01*
X160742Y131987D01*
Y124009D01*
X144500D01*
X144029Y123972D01*
X143570Y123862D01*
X143134Y123681D01*
X142731Y123435D01*
X142372Y123128D01*
X142065Y122769D01*
X141819Y122366D01*
X141638Y121930D01*
X141528Y121471D01*
X141491Y121000D01*
X141528Y120529D01*
X141638Y120070D01*
X141819Y119634D01*
X142065Y119231D01*
X142372Y118872D01*
X142731Y118566D01*
X143134Y118319D01*
X143570Y118138D01*
X144029Y118028D01*
X144500Y117991D01*
X161742D01*
Y116142D01*
X161535Y115965D01*
X161259Y115642D01*
X161037Y115280D01*
X160874Y114887D01*
X160775Y114474D01*
X160742Y114050D01*
Y103009D01*
X138509D01*
Y112000D01*
X138472Y112471D01*
X138362Y112930D01*
X138181Y113366D01*
X137935Y113769D01*
X137628Y114128D01*
X137269Y114434D01*
X136866Y114681D01*
X136430Y114862D01*
X135971Y114972D01*
X135500Y115009D01*
X135029Y114972D01*
X134570Y114862D01*
X134134Y114681D01*
X133731Y114434D01*
X133364Y114128D01*
X132636D01*
X132269Y114435D01*
X131866Y114681D01*
X131430Y114862D01*
X130971Y114972D01*
X130500Y115009D01*
X130029Y114972D01*
X129570Y114862D01*
X129134Y114681D01*
X128731Y114434D01*
X128364Y114128D01*
X127636D01*
X127269Y114435D01*
X126866Y114681D01*
X126430Y114862D01*
X125971Y114972D01*
X125500Y115009D01*
X125029Y114972D01*
X124570Y114862D01*
X124134Y114681D01*
X123731Y114434D01*
X123364Y114128D01*
X122636D01*
X122269Y114435D01*
X121866Y114681D01*
X121430Y114862D01*
X120971Y114972D01*
X120500Y115009D01*
X120029Y114972D01*
X119570Y114862D01*
X119501Y114833D01*
X118652Y116105D01*
X129444Y126898D01*
X129529Y126971D01*
X129785Y127270D01*
X129991Y127605D01*
X130141Y127969D01*
X130233Y128351D01*
X130264Y128744D01*
Y163022D01*
X130501Y163180D01*
X130945Y163569D01*
X131334Y164013D01*
X131662Y164503D01*
X131923Y165032D01*
X132112Y165591D01*
X132227Y166169D01*
X132266Y166758D01*
X132227Y167347D01*
X132112Y167925D01*
X131923Y168484D01*
X131662Y169013D01*
X131334Y169503D01*
X130945Y169947D01*
X130501Y170336D01*
X130011Y170664D01*
X129482Y170924D01*
X128923Y171114D01*
X128345Y171229D01*
X127756Y171268D01*
X127168Y171229D01*
X126589Y171114D01*
X126031Y170924D01*
X125501Y170664D01*
X125011Y170336D01*
X124567Y169947D01*
X124178Y169503D01*
X123851Y169013D01*
X123590Y168484D01*
X123400Y167925D01*
X123285Y167347D01*
X123247Y166758D01*
X123285Y166169D01*
X123400Y165591D01*
X123590Y165032D01*
X123851Y164503D01*
X124178Y164013D01*
X124567Y163569D01*
X125011Y163180D01*
X125248Y163022D01*
Y129795D01*
X119694Y124240D01*
X119602Y124230D01*
X118398Y124577D01*
X118081Y124749D01*
X117922Y125219D01*
X117661Y125748D01*
X117333Y126238D01*
X116944Y126682D01*
X116501Y127071D01*
X116010Y127398D01*
X115481Y127659D01*
X114923Y127849D01*
X114344Y127964D01*
X113756Y128003D01*
X113167Y127964D01*
X112625Y127856D01*
X112209Y128149D01*
X111585Y129092D01*
X111672Y129267D01*
X111861Y129826D01*
X111976Y130405D01*
X112015Y130993D01*
X111976Y131582D01*
X111861Y132160D01*
X111672Y132719D01*
X111411Y133248D01*
X111083Y133738D01*
X110694Y134182D01*
X110251Y134571D01*
X109760Y134899D01*
X109231Y135160D01*
X108672Y135349D01*
X108094Y135464D01*
X107505Y135503D01*
X106917Y135464D01*
X106338Y135349D01*
X105779Y135160D01*
X105250Y134899D01*
X104760Y134571D01*
X104317Y134182D01*
X103927Y133738D01*
X103600Y133248D01*
X103339Y132719D01*
X103149Y132160D01*
X103034Y131582D01*
X102996Y130993D01*
X103034Y130405D01*
X103134Y129901D01*
X101983Y128750D01*
X93993D01*
X93640Y128722D01*
X93295Y128639D01*
X92968Y128504D01*
X92666Y128319D01*
X92397Y128089D01*
X83904Y119596D01*
X83674Y119327D01*
X83489Y119025D01*
X83354Y118697D01*
X83271Y118353D01*
X83243Y118000D01*
Y115575D01*
X83041Y115338D01*
X82329Y114940D01*
X81743Y114732D01*
X81430Y114862D01*
X80971Y114972D01*
X80500Y115009D01*
X80029Y114972D01*
X79570Y114862D01*
X79134Y114681D01*
X78731Y114434D01*
X78372Y114128D01*
X78066Y113769D01*
X77819Y113366D01*
X77638Y112930D01*
X77528Y112471D01*
X77491Y112000D01*
Y110575D01*
X77024Y110416D01*
X76495Y110155D01*
X76005Y109828D01*
X75561Y109439D01*
X75172Y108995D01*
X74845Y108505D01*
X74584Y107976D01*
X74394Y107417D01*
X74279Y106839D01*
X74240Y106250D01*
X74279Y105661D01*
X74394Y105083D01*
X74584Y104524D01*
X74845Y103995D01*
X75172Y103505D01*
X75561Y103061D01*
X76005Y102672D01*
X76495Y102345D01*
X77024Y102084D01*
X77491Y101925D01*
Y100500D01*
X76705Y99327D01*
X76405Y99071D01*
X76252Y99009D01*
X75250D01*
X74779Y98972D01*
X74320Y98862D01*
X73884Y98681D01*
X73481Y98435D01*
X73122Y98128D01*
X69003Y94008D01*
X60700D01*
X60276Y93975D01*
X59863Y93876D01*
X59471Y93713D01*
X59108Y93491D01*
X58785Y93215D01*
X58509Y92892D01*
X58287Y92530D01*
X58124Y92137D01*
X58025Y91724D01*
X57992Y91300D01*
Y83125D01*
X57452Y82746D01*
X56492Y82487D01*
X56453Y82519D01*
X56111Y82729D01*
X55740Y82883D01*
X55350Y82976D01*
X54977Y83006D01*
X54945Y83167D01*
X54755Y83726D01*
X54495Y84255D01*
X54167Y84745D01*
X53778Y85189D01*
X53334Y85578D01*
X52844Y85905D01*
X52315Y86166D01*
X51756Y86356D01*
X51178Y86471D01*
X50589Y86510D01*
X50000Y86471D01*
X49422Y86356D01*
X48863Y86166D01*
X48334Y85905D01*
X47844Y85578D01*
X47400Y85189D01*
X47011Y84745D01*
X46684Y84255D01*
X46423Y83726D01*
X46233Y83167D01*
X46169Y82845D01*
X45889Y82729D01*
X45546Y82519D01*
X45241Y82259D01*
X44981Y81953D01*
X44771Y81611D01*
X44617Y81240D01*
X44524Y80850D01*
X44492Y80450D01*
Y76550D01*
X44524Y76150D01*
X44617Y75760D01*
X44771Y75389D01*
X44981Y75047D01*
X45241Y74741D01*
X45546Y74481D01*
X45889Y74271D01*
X46260Y74117D01*
X46650Y74024D01*
X47050Y73992D01*
X54950D01*
X55350Y74024D01*
X55740Y74117D01*
X56111Y74271D01*
X56453Y74481D01*
X56759Y74741D01*
X56898Y74904D01*
X57116Y74993D01*
X57875Y75064D01*
X58306Y75043D01*
X58662Y74929D01*
X58785Y74785D01*
X59108Y74509D01*
X59471Y74287D01*
X59863Y74124D01*
X60276Y74025D01*
X60700Y73992D01*
X65131D01*
X70242Y68880D01*
Y66800D01*
X70274Y66400D01*
X70367Y66010D01*
X70521Y65639D01*
X70731Y65297D01*
X70991Y64991D01*
X71297Y64731D01*
X71639Y64521D01*
X72010Y64367D01*
X72400Y64274D01*
X72800Y64242D01*
X76723D01*
X76750Y64240D01*
X76777Y64242D01*
X80700D01*
X81100Y64274D01*
X81490Y64367D01*
X81861Y64521D01*
X81992Y64601D01*
X82733Y64376D01*
X83492Y63868D01*
Y61200D01*
X83525Y60776D01*
X83624Y60363D01*
X83787Y59970D01*
X84009Y59608D01*
X84285Y59285D01*
X84608Y59009D01*
X84970Y58787D01*
X85036Y58760D01*
X84738Y57260D01*
X77683D01*
X77676Y57275D01*
X77348Y57765D01*
X76959Y58209D01*
X76515Y58598D01*
X76025Y58926D01*
X75496Y59187D01*
X74937Y59376D01*
X74359Y59491D01*
X73770Y59530D01*
X73182Y59491D01*
X72603Y59376D01*
X72044Y59187D01*
X71515Y58926D01*
X71025Y58598D01*
X70581Y58209D01*
X70192Y57765D01*
X69865Y57275D01*
X69604Y56746D01*
X69414Y56187D01*
X69299Y55609D01*
X69261Y55020D01*
X69299Y54432D01*
X69414Y53853D01*
X69604Y53294D01*
X69865Y52765D01*
X70192Y52275D01*
X70242Y52218D01*
Y50800D01*
X70274Y50400D01*
X70367Y50010D01*
X70521Y49639D01*
X70731Y49296D01*
X70991Y48991D01*
X71297Y48731D01*
X71639Y48521D01*
X72010Y48367D01*
X72400Y48274D01*
X72800Y48242D01*
X76723D01*
X76750Y48240D01*
X103991D01*
Y44250D01*
X104025Y43818D01*
X104127Y43398D01*
X104292Y42998D01*
X104518Y42629D01*
X104799Y42299D01*
X105129Y42018D01*
X105498Y41792D01*
X105898Y41627D01*
X106319Y41526D01*
X106750Y41491D01*
X113131D01*
X119311Y35311D01*
X119755Y34922D01*
X120245Y34595D01*
X120774Y34334D01*
X121333Y34144D01*
X121911Y34029D01*
X122500Y33990D01*
X139000D01*
X139589Y34029D01*
X140167Y34144D01*
X140726Y34334D01*
X141255Y34595D01*
X141745Y34922D01*
X142189Y35311D01*
X145382Y38505D01*
X145578Y38458D01*
X146894Y37667D01*
X146779Y37089D01*
X146740Y36500D01*
X146779Y35911D01*
X146894Y35335D01*
X139065Y27507D01*
X126318D01*
X126300Y27508D01*
X116700D01*
X116276Y27475D01*
X115863Y27376D01*
X115470Y27213D01*
X115108Y26991D01*
X114785Y26715D01*
X114509Y26392D01*
X114287Y26030D01*
X114124Y25637D01*
X114025Y25224D01*
X113992Y24800D01*
Y10200D01*
X114025Y9776D01*
X114124Y9363D01*
X114287Y8970D01*
X114509Y8608D01*
X114785Y8285D01*
X115108Y8009D01*
X115470Y7787D01*
X115863Y7624D01*
X116276Y7525D01*
X116700Y7492D01*
X126300D01*
X126724Y7525D01*
X127137Y7624D01*
X127529Y7787D01*
X127892Y8009D01*
X128215Y8285D01*
X128491Y8608D01*
X128713Y8970D01*
X128876Y9363D01*
X128975Y9776D01*
X129008Y10200D01*
Y22993D01*
X140000D01*
X140353Y23021D01*
X140697Y23103D01*
X141025Y23239D01*
X141327Y23424D01*
X141596Y23654D01*
X150085Y32143D01*
X150661Y32029D01*
X151250Y31990D01*
X151839Y32029D01*
X152417Y32144D01*
X152976Y32334D01*
X153505Y32594D01*
X153995Y32922D01*
X154439Y33311D01*
X154828Y33755D01*
X155155Y34245D01*
X155416Y34774D01*
X155606Y35333D01*
X155721Y35911D01*
X155760Y36500D01*
X155721Y37089D01*
X155606Y37667D01*
X155416Y38226D01*
X155155Y38755D01*
X154828Y39245D01*
X155421Y40695D01*
X155465Y40740D01*
X191594D01*
X191623Y40718D01*
X192072Y40124D01*
X192434Y39240D01*
X192376Y39102D01*
X192276Y38681D01*
X192241Y38250D01*
Y25750D01*
X192276Y25319D01*
X192376Y24898D01*
X192542Y24498D01*
X192768Y24129D01*
X193050Y23799D01*
X193098Y23758D01*
X192849Y22616D01*
X192588Y22250D01*
X192276Y22225D01*
X191863Y22126D01*
X191470Y21963D01*
X191108Y21741D01*
X190785Y21465D01*
X190509Y21142D01*
X190287Y20780D01*
X190124Y20387D01*
X190025Y19974D01*
X189992Y19550D01*
Y4950D01*
X190025Y4526D01*
X190124Y4113D01*
X190287Y3720D01*
X189823Y2627D01*
X189477Y2257D01*
X40000D01*
X39941Y2252D01*
X38353Y2287D01*
X36710Y2395D01*
X35073Y2574D01*
X33445Y2824D01*
X31830Y3146D01*
X30230Y3537D01*
X28649Y3998D01*
X27089Y4527D01*
X25554Y5124D01*
X24047Y5788D01*
X22569Y6516D01*
X21126Y7308D01*
X19718Y8163D01*
X18348Y9078D01*
X17020Y10052D01*
X15735Y11083D01*
X14497Y12169D01*
X13307Y13307D01*
X12169Y14497D01*
X11083Y15735D01*
X10052Y17020D01*
X9078Y18348D01*
X8163Y19718D01*
X7308Y21126D01*
X6516Y22569D01*
X5788Y24047D01*
X5124Y25554D01*
X4527Y27089D01*
X3998Y28649D01*
X3537Y30230D01*
X3146Y31830D01*
X2824Y33445D01*
X2574Y35073D01*
X2395Y36710D01*
X2287Y38353D01*
X2252Y39941D01*
X2257Y40000D01*
Y70947D01*
X2507Y71356D01*
X3500Y72242D01*
X11000D01*
X11431Y72276D01*
X11852Y72376D01*
X12252Y72542D01*
X12621Y72768D01*
X12951Y73050D01*
X13232Y73379D01*
X13458Y73748D01*
X13623Y74148D01*
X13724Y74569D01*
X13758Y75000D01*
Y87500D01*
X13724Y87931D01*
X13623Y88352D01*
X13458Y88752D01*
X13232Y89121D01*
X12951Y89451D01*
X12621Y89732D01*
X12252Y89958D01*
X11852Y90124D01*
X11431Y90225D01*
X11000Y90259D01*
X3500D01*
X2507Y91144D01*
X2257Y91553D01*
Y138420D01*
X2492Y138835D01*
X3450Y139742D01*
X18050D01*
X18474Y139775D01*
X18887Y139874D01*
X19280Y140037D01*
X19642Y140259D01*
X19965Y140535D01*
X20121Y140718D01*
X20425Y140826D01*
X20856Y140858D01*
X21144D01*
X21575Y140826D01*
X21879Y140718D01*
X22035Y140535D01*
X22358Y140259D01*
X22720Y140037D01*
X23113Y139874D01*
X23526Y139775D01*
X23950Y139742D01*
X35629D01*
X36430Y138242D01*
X36274Y138007D01*
X31333D01*
X30980Y137979D01*
X30635Y137896D01*
X30308Y137761D01*
X30006Y137576D01*
X29737Y137346D01*
X29737Y137346D01*
X27391Y135000D01*
X21327D01*
X21326Y135000D01*
X20973Y134972D01*
X20629Y134889D01*
X20302Y134754D01*
X20000Y134569D01*
X19731Y134339D01*
X19730Y134339D01*
X17776Y132385D01*
X17727Y132409D01*
X17168Y132599D01*
X16589Y132714D01*
X16001Y132753D01*
X15412Y132714D01*
X14834Y132599D01*
X14275Y132409D01*
X13746Y132149D01*
X13255Y131821D01*
X12812Y131432D01*
X12423Y130988D01*
X12095Y130498D01*
X11834Y129969D01*
X11645Y129410D01*
X11530Y128832D01*
X11491Y128243D01*
X11530Y127654D01*
X11645Y127076D01*
X11834Y126517D01*
X12095Y125988D01*
X12423Y125498D01*
X12812Y125054D01*
X13255Y124665D01*
X13746Y124338D01*
X14275Y124077D01*
X14834Y123887D01*
X15412Y123772D01*
X16001Y123733D01*
X16589Y123772D01*
X17168Y123887D01*
X17727Y124077D01*
X18256Y124338D01*
X18746Y124665D01*
X19662Y124729D01*
X20434Y124198D01*
X20756Y123915D01*
X21271Y123518D01*
X21537Y122780D01*
X21374Y122387D01*
X21275Y121974D01*
X21242Y121550D01*
Y111950D01*
X21275Y111526D01*
X21374Y111113D01*
X21537Y110721D01*
X21759Y110358D01*
X22035Y110035D01*
X22358Y109759D01*
X22429Y109715D01*
X22670Y108920D01*
X22594Y107988D01*
X22549Y107950D01*
X22268Y107621D01*
X22042Y107252D01*
X21876Y106852D01*
X21775Y106432D01*
X21741Y106000D01*
Y93500D01*
X21775Y93069D01*
X21876Y92648D01*
X22042Y92248D01*
X22268Y91879D01*
X22549Y91549D01*
X22752Y91376D01*
X22864Y91057D01*
X22878Y90866D01*
Y90134D01*
X22864Y89943D01*
X22752Y89624D01*
X22549Y89451D01*
X22268Y89121D01*
X22042Y88752D01*
X21876Y88352D01*
X21775Y87931D01*
X21741Y87500D01*
Y75000D01*
X21775Y74569D01*
X21876Y74148D01*
X22042Y73748D01*
X22268Y73379D01*
X22549Y73050D01*
X22878Y72768D01*
X23248Y72542D01*
X23647Y72376D01*
X24068Y72276D01*
X24500Y72242D01*
X32000D01*
X32431Y72276D01*
X32852Y72376D01*
X33252Y72542D01*
X33621Y72768D01*
X33951Y73050D01*
X34232Y73379D01*
X34458Y73748D01*
X34623Y74148D01*
X34725Y74569D01*
X34759Y75000D01*
Y84567D01*
X37096Y86904D01*
X37326Y87174D01*
X37511Y87475D01*
X37647Y87803D01*
X37729Y88147D01*
X37757Y88500D01*
Y98733D01*
X38340Y98771D01*
X38919Y98886D01*
X39478Y99075D01*
X40007Y99336D01*
X40497Y99664D01*
X40941Y100053D01*
X41330Y100497D01*
X41657Y100987D01*
X41918Y101516D01*
X42108Y102075D01*
X42223Y102653D01*
X42262Y103242D01*
X42255Y103342D01*
X46596Y107682D01*
X46596Y107683D01*
X46826Y107952D01*
X47011Y108254D01*
X47147Y108581D01*
X47229Y108925D01*
X47257Y109278D01*
X47257Y109279D01*
Y121815D01*
X50428Y124986D01*
X52927D01*
X53280Y125014D01*
X53625Y125097D01*
X53952Y125232D01*
X54254Y125417D01*
X54523Y125647D01*
X55587Y126711D01*
X55658Y126699D01*
X56991Y126000D01*
X57028Y125529D01*
X57138Y125070D01*
X57319Y124634D01*
X57565Y124231D01*
X57872Y123864D01*
Y123136D01*
X57565Y122769D01*
X57319Y122366D01*
X57138Y121930D01*
X57028Y121471D01*
X56991Y121000D01*
X57028Y120529D01*
X57138Y120070D01*
X57319Y119634D01*
X57565Y119231D01*
X57872Y118872D01*
X58231Y118566D01*
X58634Y118319D01*
X59070Y118138D01*
X59529Y118028D01*
X60000Y117991D01*
X63493D01*
Y105750D01*
X63521Y105397D01*
X63604Y105052D01*
X63739Y104725D01*
X63924Y104423D01*
X64154Y104154D01*
X64394Y103915D01*
X64279Y103339D01*
X64240Y102750D01*
X64279Y102161D01*
X64394Y101583D01*
X64584Y101024D01*
X64844Y100495D01*
X65172Y100005D01*
X65561Y99561D01*
X66005Y99172D01*
X66495Y98844D01*
X67024Y98584D01*
X67583Y98394D01*
X68161Y98279D01*
X68750Y98240D01*
X69339Y98279D01*
X69917Y98394D01*
X70476Y98584D01*
X71005Y98844D01*
X71495Y99172D01*
X71939Y99561D01*
X72328Y100005D01*
X72656Y100495D01*
X72916Y101024D01*
X73106Y101583D01*
X73221Y102161D01*
X73260Y102750D01*
X73221Y103339D01*
X73106Y103917D01*
X72916Y104476D01*
X72656Y105005D01*
X72328Y105495D01*
X71939Y105939D01*
X71495Y106328D01*
X71005Y106655D01*
X70476Y106916D01*
X69917Y107106D01*
X69339Y107221D01*
X68750Y107260D01*
X68007Y108690D01*
Y117991D01*
X71500D01*
X71971Y118028D01*
X72430Y118138D01*
X72866Y118319D01*
X73269Y118566D01*
X73628Y118872D01*
X73934Y119231D01*
X74181Y119634D01*
X74362Y120070D01*
X74472Y120529D01*
X74509Y121000D01*
X74472Y121471D01*
X74362Y121930D01*
X74181Y122366D01*
X73934Y122769D01*
X73628Y123136D01*
Y123396D01*
X74262Y124559D01*
X74447Y124604D01*
X74775Y124739D01*
X75077Y124924D01*
X75346Y125154D01*
X84435Y134243D01*
X92346D01*
X92672Y133755D01*
X93061Y133311D01*
X93505Y132922D01*
X93995Y132594D01*
X94524Y132334D01*
X95083Y132144D01*
X95661Y132029D01*
X96250Y131990D01*
X96839Y132029D01*
X97417Y132144D01*
X97976Y132334D01*
X98505Y132594D01*
X98995Y132922D01*
X99439Y133311D01*
X99828Y133755D01*
X100155Y134245D01*
X100416Y134774D01*
X100606Y135333D01*
X100721Y135911D01*
X100760Y136500D01*
X100721Y137089D01*
X100606Y137667D01*
X100416Y138226D01*
X100155Y138755D01*
X99828Y139245D01*
X99439Y139689D01*
X98995Y140078D01*
X98505Y140405D01*
X97976Y140666D01*
X97417Y140856D01*
X96839Y140971D01*
X96250Y141010D01*
X95661Y140971D01*
X95083Y140856D01*
X94524Y140666D01*
X93995Y140405D01*
X93505Y140078D01*
X93061Y139689D01*
X92672Y139245D01*
X92346Y138757D01*
X86666D01*
X86092Y140143D01*
X92936Y146987D01*
X102601D01*
X102928Y146499D01*
X103316Y146055D01*
X103760Y145666D01*
X104250Y145339D01*
X104779Y145078D01*
X105338Y144888D01*
X105917Y144773D01*
X106505Y144734D01*
X107094Y144773D01*
X107672Y144888D01*
X108231Y145078D01*
X108760Y145339D01*
X109250Y145666D01*
X109694Y146055D01*
X110083Y146499D01*
X110411Y146989D01*
X110672Y147518D01*
X110861Y148077D01*
X110976Y148656D01*
X111015Y149244D01*
X110976Y149833D01*
X110861Y150411D01*
X110672Y150970D01*
X110411Y151499D01*
X110083Y151989D01*
X109694Y152433D01*
X109250Y152822D01*
X108760Y153150D01*
X108231Y153411D01*
X107672Y153600D01*
X107159Y153702D01*
X106492Y153911D01*
X106354Y153956D01*
X105790Y154709D01*
X105732Y155165D01*
X105721Y155339D01*
X105606Y155917D01*
X105416Y156476D01*
X105155Y157005D01*
X104828Y157495D01*
X104439Y157939D01*
X103995Y158328D01*
X103505Y158655D01*
X102976Y158916D01*
X102417Y159106D01*
X101839Y159221D01*
X101250Y159260D01*
X100661Y159221D01*
X100083Y159106D01*
X99524Y158916D01*
X98995Y158655D01*
X98505Y158328D01*
X98061Y157939D01*
X97672Y157495D01*
X97345Y157005D01*
X97084Y156476D01*
X96894Y155917D01*
X96779Y155339D01*
X96740Y154750D01*
X96507Y154501D01*
X90759D01*
X90406Y154473D01*
X90061Y154391D01*
X89734Y154255D01*
X89432Y154070D01*
X89163Y153840D01*
X89163Y153840D01*
X75988Y140665D01*
X75196Y140844D01*
X74487Y141285D01*
X74472Y141471D01*
X74362Y141930D01*
X74181Y142366D01*
X73934Y142769D01*
X73628Y143136D01*
Y143864D01*
X73935Y144231D01*
X74181Y144634D01*
X74362Y145070D01*
X74472Y145529D01*
X74509Y146000D01*
X74472Y146471D01*
X74362Y146930D01*
X74181Y147366D01*
X73934Y147769D01*
X73628Y148136D01*
Y148864D01*
X73935Y149231D01*
X74181Y149634D01*
X74362Y150070D01*
X74456Y150461D01*
X76846Y152851D01*
X76846Y152851D01*
X77076Y153120D01*
X77261Y153422D01*
X77396Y153749D01*
X77479Y154094D01*
X77507Y154447D01*
X77507Y154447D01*
Y162741D01*
X78089Y162779D01*
X78667Y162894D01*
X79226Y163084D01*
X79755Y163344D01*
X80245Y163672D01*
X80689Y164061D01*
X81078Y164505D01*
X81405Y164995D01*
X81666Y165524D01*
X81856Y166083D01*
X81971Y166661D01*
X82010Y167250D01*
X81971Y167839D01*
X81856Y168417D01*
X81666Y168976D01*
X81405Y169505D01*
X81078Y169995D01*
X80689Y170439D01*
X80245Y170828D01*
X79755Y171155D01*
X79226Y171416D01*
X78667Y171606D01*
X78089Y171721D01*
X77500Y171760D01*
X76911Y171721D01*
X76333Y171606D01*
X75774Y171416D01*
X75245Y171155D01*
X74755Y170828D01*
X74311Y170439D01*
X73922Y169995D01*
X73595Y169505D01*
X73101Y168946D01*
X72430Y168862D01*
X71971Y168972D01*
X71500Y169009D01*
X60000D01*
X59529Y168972D01*
X59070Y168862D01*
X58634Y168681D01*
X58231Y168435D01*
X58023Y168257D01*
X53278D01*
X53155Y168505D01*
X52828Y168995D01*
X52439Y169439D01*
X51995Y169828D01*
X51505Y170155D01*
X50976Y170416D01*
X50417Y170606D01*
X49839Y170721D01*
X49250Y170760D01*
X48661Y170721D01*
X48083Y170606D01*
X47524Y170416D01*
X46995Y170155D01*
X46505Y169828D01*
X46061Y169439D01*
X45672Y168995D01*
X45345Y168505D01*
X45084Y167976D01*
X44894Y167417D01*
X44779Y166839D01*
X44740Y166250D01*
X44779Y165661D01*
X44894Y165083D01*
X45084Y164524D01*
X45216Y164257D01*
X44913Y163448D01*
X44368Y162757D01*
X34759D01*
Y170500D01*
X34725Y170931D01*
X34623Y171352D01*
X34458Y171752D01*
X34232Y172121D01*
X33951Y172451D01*
X33621Y172732D01*
X33252Y172958D01*
X32852Y173123D01*
X32431Y173225D01*
X32000Y173258D01*
X24500D01*
X24069Y173225D01*
X23648Y173123D01*
X23248Y172958D01*
X22879Y172732D01*
X22549Y172451D01*
X22268Y172121D01*
X22042Y171752D01*
X21876Y171352D01*
X21775Y170931D01*
X21741Y170500D01*
Y158000D01*
X21775Y157569D01*
X21876Y157148D01*
X22042Y156748D01*
X22268Y156379D01*
X22549Y156049D01*
X22594Y156012D01*
X22670Y155080D01*
X22429Y154285D01*
X22358Y154241D01*
X22035Y153965D01*
X21879Y153782D01*
X21575Y153674D01*
X21144Y153642D01*
X20856D01*
X20425Y153674D01*
X20121Y153782D01*
X19965Y153965D01*
X19642Y154241D01*
X19280Y154463D01*
X18887Y154626D01*
X18474Y154725D01*
X18050Y154758D01*
X13749D01*
X13307Y155472D01*
X13129Y156258D01*
X13232Y156379D01*
X13458Y156748D01*
X13623Y157148D01*
X13724Y157569D01*
X13758Y158000D01*
Y170500D01*
X13757Y170519D01*
Y189294D01*
X18956Y194493D01*
X40815D01*
X44992Y190317D01*
Y183760D01*
X40750D01*
X40161Y183721D01*
X39583Y183606D01*
X39024Y183416D01*
X38495Y183155D01*
X38005Y182828D01*
X37561Y182439D01*
X37172Y181995D01*
X36845Y181505D01*
X36584Y180976D01*
X36394Y180417D01*
X36279Y179839D01*
X36240Y179250D01*
X36279Y178661D01*
X36394Y178083D01*
X36584Y177524D01*
X36845Y176995D01*
X37172Y176505D01*
X37561Y176061D01*
X38005Y175672D01*
X38495Y175345D01*
X39024Y175084D01*
X39583Y174894D01*
X40161Y174779D01*
X40750Y174740D01*
X45609D01*
X45785Y174535D01*
X46108Y174259D01*
X46470Y174037D01*
X46863Y173874D01*
X47276Y173775D01*
X47700Y173742D01*
X56525D01*
X56731Y173566D01*
X57134Y173319D01*
X57570Y173138D01*
X58029Y173028D01*
X58500Y172991D01*
X71500D01*
X71971Y173028D01*
X72430Y173138D01*
X72866Y173319D01*
X73269Y173566D01*
X73628Y173872D01*
X73934Y174231D01*
X74181Y174634D01*
X74362Y175070D01*
X74472Y175529D01*
X74509Y176000D01*
X74472Y176471D01*
X74362Y176930D01*
X74181Y177366D01*
X73934Y177769D01*
X73628Y178128D01*
X73269Y178435D01*
X72866Y178681D01*
X72430Y178862D01*
X71971Y178972D01*
X71500Y179009D01*
X60008D01*
Y188238D01*
X60009Y188250D01*
Y199084D01*
X75128Y214203D01*
X75434Y214562D01*
X75681Y214965D01*
X75862Y215401D01*
X75972Y215860D01*
X76009Y216331D01*
X77502Y216315D01*
X77529Y215911D01*
X77644Y215333D01*
X77834Y214774D01*
X78095Y214245D01*
X78422Y213755D01*
X78811Y213311D01*
X79255Y212922D01*
X79745Y212595D01*
X80274Y212334D01*
X80833Y212144D01*
X81411Y212029D01*
X82000Y211990D01*
X82589Y212029D01*
X83167Y212144D01*
X83726Y212334D01*
X84255Y212595D01*
X84745Y212922D01*
X85189Y213311D01*
X85578Y213755D01*
X85904Y214243D01*
X88243D01*
Y200075D01*
X88041Y199838D01*
X87329Y199440D01*
X86743Y199232D01*
X86430Y199362D01*
X85971Y199472D01*
X85500Y199509D01*
X85029Y199472D01*
X84570Y199362D01*
X84134Y199181D01*
X83731Y198935D01*
X83364Y198628D01*
X82636D01*
X82269Y198935D01*
X81866Y199181D01*
X81430Y199362D01*
X81298Y199394D01*
X80849Y199842D01*
X80580Y200072D01*
X80278Y200257D01*
X79951Y200393D01*
X79607Y200476D01*
X79254Y200503D01*
X73157D01*
X72831Y200992D01*
X72442Y201435D01*
X71999Y201824D01*
X71508Y202152D01*
X70979Y202413D01*
X70421Y202603D01*
X69842Y202718D01*
X69253Y202756D01*
X68665Y202718D01*
X68086Y202603D01*
X67528Y202413D01*
X66999Y202152D01*
X66508Y201824D01*
X66065Y201435D01*
X65676Y200992D01*
X65348Y200501D01*
X65087Y199972D01*
X64897Y199414D01*
X64782Y198835D01*
X64744Y198246D01*
X64782Y197658D01*
X64897Y197079D01*
X65087Y196521D01*
X65348Y195992D01*
X65676Y195501D01*
X66065Y195058D01*
X66508Y194669D01*
X66999Y194341D01*
X67528Y194080D01*
X68086Y193890D01*
X68665Y193775D01*
X69253Y193737D01*
X69842Y193775D01*
X70421Y193890D01*
X70979Y194080D01*
X71508Y194341D01*
X71999Y194669D01*
X72442Y195058D01*
X72831Y195501D01*
X73157Y195989D01*
X77491D01*
Y185000D01*
X77528Y184529D01*
X77638Y184070D01*
X77819Y183634D01*
X78066Y183231D01*
X78372Y182872D01*
X78731Y182565D01*
X79134Y182319D01*
X79570Y182138D01*
X80029Y182028D01*
X80500Y181991D01*
X80971Y182028D01*
X81430Y182138D01*
X81743Y182268D01*
X82329Y182060D01*
X83041Y181662D01*
X83243Y181425D01*
Y179750D01*
X83271Y179397D01*
X83354Y179053D01*
X83489Y178725D01*
X83674Y178423D01*
X83904Y178154D01*
X89159Y172899D01*
X89428Y172669D01*
X89730Y172484D01*
X90057Y172349D01*
X90402Y172266D01*
X90755Y172238D01*
X90755Y172238D01*
X98851D01*
X99177Y171750D01*
X99566Y171306D01*
X100010Y170918D01*
X100500Y170590D01*
X101029Y170329D01*
X101588Y170139D01*
X102166Y170024D01*
X102755Y169986D01*
X103344Y170024D01*
X103922Y170139D01*
X104481Y170329D01*
X105010Y170590D01*
X105500Y170918D01*
X105664Y171061D01*
X106309Y171251D01*
X107510Y171069D01*
X107634Y170997D01*
X108005Y170672D01*
X108495Y170345D01*
X109024Y170084D01*
X109583Y169894D01*
X110161Y169779D01*
X110750Y169740D01*
X111339Y169779D01*
X111917Y169894D01*
X112476Y170084D01*
X113005Y170345D01*
X113495Y170672D01*
X113939Y171061D01*
X114408Y171201D01*
X115342Y171201D01*
X115811Y171061D01*
X116255Y170672D01*
X116745Y170345D01*
X117274Y170084D01*
X117833Y169894D01*
X118411Y169779D01*
X119000Y169740D01*
X119589Y169779D01*
X120167Y169894D01*
X120726Y170084D01*
X121255Y170345D01*
X121745Y170672D01*
X122189Y171061D01*
X122578Y171505D01*
X122905Y171995D01*
X123166Y172524D01*
X123356Y173083D01*
X123471Y173661D01*
X123510Y174250D01*
X123471Y174839D01*
X123356Y175417D01*
X123166Y175976D01*
X122905Y176505D01*
X122578Y176995D01*
X122189Y177439D01*
X121745Y177828D01*
X121255Y178155D01*
X121211Y178177D01*
X121146Y178447D01*
X121011Y178775D01*
X120826Y179077D01*
X120596Y179346D01*
X120596Y179346D01*
X119276Y180666D01*
X120029Y182028D01*
X120500Y181991D01*
X120971Y182028D01*
X121430Y182138D01*
X121743Y182268D01*
X122329Y182060D01*
X123041Y181662D01*
X123243Y181425D01*
Y181250D01*
X123271Y180897D01*
X123354Y180553D01*
X123489Y180225D01*
X123674Y179923D01*
X123904Y179654D01*
X127654Y175904D01*
X127923Y175674D01*
X128225Y175489D01*
X128553Y175354D01*
X128897Y175271D01*
X129250Y175243D01*
X136530D01*
X136778Y173743D01*
X136774Y173742D01*
X136245Y173481D01*
X135755Y173153D01*
X135311Y172764D01*
X134922Y172321D01*
X134595Y171830D01*
X134334Y171301D01*
X134144Y170743D01*
X134029Y170164D01*
X133990Y169576D01*
X134029Y168987D01*
X134144Y168408D01*
X134334Y167850D01*
X134595Y167321D01*
X134922Y166830D01*
X135311Y166387D01*
X135755Y165998D01*
X136243Y165672D01*
Y157958D01*
X136110Y157637D01*
X136028Y157293D01*
X136000Y156940D01*
X136028Y156587D01*
X136110Y156243D01*
X136246Y155915D01*
X136431Y155613D01*
X136661Y155344D01*
X141544Y150461D01*
X141638Y150070D01*
X141819Y149634D01*
X142065Y149231D01*
X142372Y148864D01*
Y148136D01*
X142065Y147769D01*
X141819Y147366D01*
X141638Y146930D01*
X141528Y146471D01*
X141491Y146000D01*
X141528Y145529D01*
X141638Y145070D01*
X141819Y144634D01*
X142065Y144231D01*
X142372Y143872D01*
X142731Y143566D01*
X143134Y143319D01*
X143570Y143138D01*
X144029Y143028D01*
X144500Y142991D01*
X156000D01*
X156471Y143028D01*
X156930Y143138D01*
X157366Y143319D01*
X157769Y143566D01*
X157977Y143743D01*
X176815D01*
X179193Y141365D01*
Y140083D01*
X179221Y139730D01*
X179303Y139385D01*
X179439Y139058D01*
X179624Y138756D01*
X179854Y138487D01*
X184687Y133654D01*
X184956Y133424D01*
X185258Y133239D01*
X185585Y133104D01*
X185930Y133021D01*
X186283Y132993D01*
X186743Y131672D01*
Y119065D01*
X186283Y118909D01*
X185754Y118648D01*
X185264Y118320D01*
X184820Y117931D01*
X184431Y117488D01*
X184104Y116997D01*
X183843Y116468D01*
X183653Y115910D01*
X183538Y115331D01*
X183500Y114742D01*
X183538Y114154D01*
X183653Y113575D01*
X183843Y113017D01*
X184104Y112488D01*
X184431Y111997D01*
X184820Y111554D01*
X185264Y111165D01*
X185754Y110837D01*
X186283Y110576D01*
X186842Y110386D01*
X187421Y110271D01*
X188009Y110233D01*
X188598Y110271D01*
X189176Y110386D01*
X189735Y110576D01*
X190264Y110837D01*
X190755Y111165D01*
X191198Y111554D01*
X191587Y111997D01*
X191915Y112488D01*
X192176Y113017D01*
X192365Y113575D01*
X192480Y114154D01*
X192519Y114742D01*
X192480Y115331D01*
X192365Y115910D01*
X192176Y116468D01*
X191915Y116997D01*
X191587Y117488D01*
X191257Y117864D01*
Y134750D01*
X192113Y135740D01*
X192380Y135933D01*
X192532Y135993D01*
X219250D01*
X219250Y135993D01*
X222500D01*
X222853Y136021D01*
X223197Y136103D01*
X223525Y136239D01*
X223827Y136424D01*
X224096Y136654D01*
X226598Y139156D01*
X226633Y139144D01*
X227211Y139029D01*
X227800Y138990D01*
X228389Y139029D01*
X228967Y139144D01*
X229526Y139334D01*
X230055Y139594D01*
X230545Y139922D01*
X230989Y140311D01*
X231378Y140755D01*
X231705Y141245D01*
X231966Y141774D01*
X232156Y142333D01*
X232271Y142911D01*
X232310Y143500D01*
Y147243D01*
X238242D01*
Y144750D01*
X238275Y144319D01*
X238377Y143898D01*
X238542Y143498D01*
X238768Y143129D01*
X239049Y142799D01*
X239379Y142518D01*
X239748Y142292D01*
X240147Y142127D01*
X240568Y142025D01*
X241000Y141992D01*
X248500D01*
X248932Y142025D01*
X249352Y142127D01*
X249752Y142292D01*
X250121Y142518D01*
X250450Y142799D01*
X250732Y143129D01*
X250958Y143498D01*
X251123Y143898D01*
X251224Y144319D01*
X251259Y144750D01*
Y157250D01*
X251224Y157682D01*
X251123Y158102D01*
X250958Y158502D01*
X250732Y158871D01*
X250450Y159200D01*
X250248Y159374D01*
X250136Y159693D01*
X250121Y159883D01*
Y160617D01*
X250136Y160807D01*
X250248Y161126D01*
X250450Y161299D01*
X250732Y161629D01*
X250958Y161998D01*
X251123Y162398D01*
X251224Y162819D01*
X251259Y163250D01*
Y175750D01*
X251224Y176182D01*
X251123Y176602D01*
X250958Y177002D01*
X250732Y177371D01*
X250450Y177701D01*
X250248Y177874D01*
X250136Y178193D01*
X250121Y178383D01*
Y179117D01*
X250136Y179307D01*
X250248Y179626D01*
X250450Y179799D01*
X250732Y180129D01*
X250958Y180498D01*
X251123Y180898D01*
X251224Y181318D01*
X251259Y181750D01*
Y194250D01*
X251224Y194681D01*
X251123Y195102D01*
X250958Y195502D01*
X250732Y195871D01*
X250450Y196201D01*
X250407Y196237D01*
X250400Y196252D01*
X250266Y196982D01*
Y197268D01*
X250400Y197998D01*
X250407Y198013D01*
X250450Y198050D01*
X250732Y198379D01*
X250958Y198748D01*
X251123Y199148D01*
X251224Y199569D01*
X251259Y200000D01*
Y212500D01*
X251224Y212931D01*
X251123Y213352D01*
X250958Y213752D01*
X250732Y214121D01*
X250585Y214293D01*
X250450Y214721D01*
Y215779D01*
X250585Y216207D01*
X250732Y216379D01*
X250958Y216748D01*
X251123Y217148D01*
X251224Y217568D01*
X251259Y218000D01*
Y230500D01*
X251224Y230931D01*
X251123Y231352D01*
X250958Y231752D01*
X250732Y232121D01*
X250450Y232451D01*
X250407Y232487D01*
X250400Y232502D01*
X250266Y233232D01*
Y233518D01*
X250400Y234248D01*
X250407Y234263D01*
X250450Y234300D01*
X250732Y234629D01*
X250958Y234998D01*
X251123Y235398D01*
X251224Y235819D01*
X251259Y236250D01*
Y248750D01*
X251224Y249181D01*
X251123Y249602D01*
X250958Y250002D01*
X250732Y250371D01*
X250450Y250701D01*
X250121Y250982D01*
X249752Y251208D01*
X249352Y251374D01*
X248932Y251475D01*
X248500Y251509D01*
X241000D01*
X240568Y251475D01*
X240147Y251374D01*
X239748Y251208D01*
X239379Y250982D01*
X239049Y250701D01*
X238768Y250371D01*
X238542Y250002D01*
X238377Y249602D01*
X238275Y249181D01*
X238242Y248750D01*
Y236250D01*
X238246Y236188D01*
X234065Y232007D01*
X227841D01*
X227800Y232010D01*
X227211Y231971D01*
X226633Y231856D01*
X226074Y231666D01*
X225545Y231405D01*
X225055Y231078D01*
X224611Y230689D01*
X224222Y230245D01*
X223895Y229755D01*
X223634Y229226D01*
X223444Y228667D01*
X223329Y228089D01*
X223290Y227500D01*
Y221202D01*
X223104Y221078D01*
X222661Y220689D01*
X222271Y220245D01*
X221944Y219755D01*
X221683Y219226D01*
X221493Y218667D01*
X221378Y218089D01*
X221340Y217500D01*
X221378Y216911D01*
X221493Y216333D01*
X221683Y215774D01*
X221944Y215245D01*
X222271Y214755D01*
X222661Y214311D01*
X223104Y213922D01*
X223594Y213595D01*
X223763Y213511D01*
X223895Y213245D01*
X224222Y212755D01*
X224611Y212311D01*
X225055Y211922D01*
X225545Y211595D01*
X225854Y211442D01*
X226151Y210688D01*
X226263Y209739D01*
X226259Y209727D01*
X224290Y207757D01*
X200685D01*
X194065Y214377D01*
X194171Y214911D01*
X194210Y215500D01*
Y227500D01*
X194171Y228089D01*
X194056Y228667D01*
X193866Y229226D01*
X193605Y229755D01*
X193278Y230245D01*
X192889Y230689D01*
X192445Y231078D01*
X191955Y231405D01*
X191426Y231666D01*
X190867Y231856D01*
X190289Y231971D01*
X189700Y232010D01*
X189111Y231971D01*
X188533Y231856D01*
X187974Y231666D01*
X187445Y231405D01*
X186955Y231078D01*
X186511Y230689D01*
X186122Y230245D01*
X185796Y229757D01*
X155044D01*
X154718Y230245D01*
X154329Y230689D01*
X153886Y231078D01*
X153395Y231406D01*
X152866Y231666D01*
X152308Y231856D01*
X151729Y231971D01*
X151140Y232010D01*
X150552Y231971D01*
X149973Y231856D01*
X149415Y231666D01*
X148885Y231406D01*
X148395Y231078D01*
X147951Y230689D01*
X147563Y230245D01*
X147235Y229755D01*
X146974Y229226D01*
X146784Y228667D01*
X146669Y228089D01*
X146631Y227500D01*
X146669Y226911D01*
X146784Y226333D01*
X146974Y225774D01*
X147235Y225245D01*
X147563Y224755D01*
X147951Y224311D01*
X148395Y223922D01*
X148776Y223668D01*
X148898Y223571D01*
X149390Y222659D01*
X149357Y221769D01*
X149341Y221737D01*
X149151Y221178D01*
X149036Y220599D01*
X148998Y220011D01*
X149036Y219422D01*
X149151Y218844D01*
X149341Y218285D01*
X149602Y217756D01*
X149930Y217265D01*
X150319Y216822D01*
X150762Y216433D01*
X151253Y216105D01*
X151782Y215844D01*
X152340Y215655D01*
X152919Y215540D01*
X153507Y215501D01*
X154096Y215540D01*
X154675Y215655D01*
X155233Y215844D01*
X155762Y216105D01*
X156253Y216433D01*
X156696Y216822D01*
X157085Y217265D01*
X157245Y217504D01*
X162032D01*
X162385Y217532D01*
X162729Y217614D01*
X163056Y217750D01*
X163358Y217935D01*
X163628Y218165D01*
X166456Y220993D01*
X181765D01*
X182193Y220565D01*
Y213325D01*
X182221Y212972D01*
X182304Y212628D01*
X182439Y212301D01*
X182624Y211999D01*
X182854Y211729D01*
X187154Y207429D01*
X187153Y207427D01*
X187038Y206849D01*
X187000Y206260D01*
X187038Y205671D01*
X187153Y205093D01*
X187343Y204534D01*
X187604Y204005D01*
X187932Y203515D01*
X188016Y203418D01*
X188163Y202477D01*
X187909Y201522D01*
X187890Y201496D01*
X187820Y201435D01*
X187432Y200992D01*
X187275Y200757D01*
X170250D01*
X169897Y200729D01*
X169553Y200646D01*
X169225Y200511D01*
X168923Y200326D01*
X168654Y200096D01*
X163665Y195107D01*
X163089Y195221D01*
X162500Y195260D01*
X161911Y195221D01*
X161333Y195106D01*
X160774Y194916D01*
X160245Y194655D01*
X159755Y194328D01*
X159311Y193939D01*
X158922Y193495D01*
X158595Y193005D01*
X158334Y192476D01*
X158144Y191917D01*
X158029Y191339D01*
X157990Y190750D01*
X158029Y190161D01*
X158144Y189583D01*
X158334Y189024D01*
X158595Y188495D01*
X158922Y188005D01*
X159311Y187561D01*
X159755Y187172D01*
X160245Y186845D01*
X160774Y186584D01*
X161333Y186394D01*
X161911Y186279D01*
X162500Y186240D01*
X163089Y186279D01*
X163667Y186394D01*
X164226Y186584D01*
X164755Y186845D01*
X165245Y187172D01*
X165689Y187561D01*
X166078Y188005D01*
X166406Y188495D01*
X166666Y189024D01*
X166856Y189583D01*
X166971Y190161D01*
X167010Y190750D01*
X166971Y191339D01*
X166856Y191915D01*
X168008Y193066D01*
X169153Y192760D01*
X169568Y192505D01*
X169653Y192079D01*
X169842Y191521D01*
X170103Y190991D01*
X170431Y190501D01*
X170820Y190058D01*
X171263Y189669D01*
X171751Y189342D01*
Y182943D01*
X170815Y182007D01*
X142947D01*
X142594Y181979D01*
X142249Y181896D01*
X141922Y181761D01*
X141620Y181576D01*
X141351Y181346D01*
X141351Y181346D01*
X139762Y179757D01*
X130185D01*
X127757Y182185D01*
Y183023D01*
X127935Y183231D01*
X128181Y183634D01*
X128362Y184070D01*
X128472Y184529D01*
X128509Y185000D01*
Y196500D01*
X128472Y196971D01*
X128362Y197430D01*
X128181Y197866D01*
X127935Y198269D01*
X127628Y198628D01*
X127269Y198935D01*
X126866Y199181D01*
X126430Y199362D01*
X125971Y199472D01*
X125500Y199509D01*
X125029Y199472D01*
X124570Y199362D01*
X124134Y199181D01*
X123731Y198935D01*
X123364Y198628D01*
X122636D01*
X122269Y198935D01*
X121866Y199181D01*
X121430Y199362D01*
X120971Y199472D01*
X120500Y199509D01*
X120029Y199472D01*
X119281Y200797D01*
X119227Y201035D01*
X119601Y201410D01*
X119831Y201679D01*
X120016Y201981D01*
X120152Y202308D01*
X120235Y202652D01*
X120262Y203006D01*
X120262Y203006D01*
Y205943D01*
X120511Y206354D01*
X121500Y207241D01*
X129000D01*
X129431Y207276D01*
X129852Y207376D01*
X130252Y207542D01*
X130621Y207768D01*
X130950Y208049D01*
X130992Y208098D01*
X132033Y207872D01*
X132492Y207581D01*
Y206762D01*
X132491Y206750D01*
Y196500D01*
Y185000D01*
X132528Y184529D01*
X132638Y184070D01*
X132819Y183634D01*
X133066Y183231D01*
X133372Y182872D01*
X133731Y182565D01*
X134134Y182319D01*
X134570Y182138D01*
X135029Y182028D01*
X135500Y181991D01*
X135971Y182028D01*
X136430Y182138D01*
X136866Y182319D01*
X137269Y182565D01*
X137628Y182872D01*
X137935Y183231D01*
X138181Y183634D01*
X138362Y184070D01*
X138472Y184529D01*
X138509Y185000D01*
Y196500D01*
Y201242D01*
X144800D01*
X145224Y201275D01*
X145637Y201374D01*
X146030Y201537D01*
X146392Y201759D01*
X146715Y202035D01*
X146991Y202358D01*
X147213Y202720D01*
X147376Y203113D01*
X147475Y203526D01*
X147508Y203950D01*
Y218550D01*
X147475Y218974D01*
X147376Y219387D01*
X147213Y219779D01*
X146991Y220142D01*
X146715Y220465D01*
X146392Y220741D01*
X146030Y220963D01*
X145637Y221126D01*
X145224Y221225D01*
X144800Y221258D01*
X144510D01*
Y235242D01*
X145250D01*
X145681Y235275D01*
X146102Y235376D01*
X146502Y235542D01*
X146871Y235768D01*
X147200Y236049D01*
X147482Y236379D01*
X147535Y236466D01*
X148375Y236623D01*
X149215Y236466D01*
X149268Y236379D01*
X149549Y236049D01*
X149879Y235768D01*
X150248Y235542D01*
X150647Y235376D01*
X151068Y235275D01*
X151500Y235242D01*
X161983D01*
X162000Y235240D01*
X179500D01*
X179527Y235242D01*
X179950D01*
X180350Y235274D01*
X180740Y235367D01*
X181111Y235521D01*
X181198Y235574D01*
X181226Y235584D01*
X181755Y235844D01*
X182245Y236172D01*
X182689Y236561D01*
X183078Y237005D01*
X183405Y237495D01*
X183666Y238024D01*
X183856Y238583D01*
X183971Y239161D01*
X184191Y239461D01*
X185063Y240115D01*
X185480Y240259D01*
X185700Y240242D01*
X191131D01*
X197890Y233482D01*
Y227500D01*
Y215500D01*
X197929Y214911D01*
X198044Y214333D01*
X198234Y213774D01*
X198494Y213245D01*
X198822Y212755D01*
X199211Y212311D01*
X199655Y211922D01*
X200145Y211595D01*
X200674Y211334D01*
X201233Y211144D01*
X201811Y211029D01*
X202400Y210990D01*
X202989Y211029D01*
X203567Y211144D01*
X204126Y211334D01*
X204655Y211595D01*
X205145Y211922D01*
X205589Y212311D01*
X205978Y212755D01*
X206306Y213245D01*
X206566Y213774D01*
X206756Y214333D01*
X206871Y214911D01*
X206910Y215500D01*
Y227500D01*
Y235350D01*
X206871Y235939D01*
X206756Y236517D01*
X206566Y237076D01*
X206306Y237605D01*
X205978Y238095D01*
X205589Y238539D01*
X198008Y246119D01*
Y257550D01*
X197975Y257974D01*
X197876Y258387D01*
X197713Y258780D01*
X197491Y259142D01*
X197215Y259465D01*
X196892Y259741D01*
X196530Y259963D01*
X196137Y260126D01*
X195724Y260225D01*
X195300Y260258D01*
X185700D01*
X185391Y260234D01*
X185000Y260260D01*
X176000D01*
X175973Y260258D01*
X172050D01*
X171650Y260226D01*
X171260Y260133D01*
X170889Y259979D01*
X170546Y259769D01*
X170241Y259509D01*
X169981Y259203D01*
X169771Y258861D01*
X169617Y258490D01*
X169524Y258100D01*
X169492Y257700D01*
Y253800D01*
X169524Y253400D01*
X169617Y253010D01*
X169771Y252639D01*
X169981Y252297D01*
X170241Y251991D01*
X170546Y251731D01*
X170889Y251521D01*
X171260Y251367D01*
X171650Y251274D01*
X172050Y251242D01*
X175973D01*
X176000Y251240D01*
X182992D01*
Y244633D01*
X182304Y244089D01*
X181492Y243785D01*
X181226Y243916D01*
X181198Y243926D01*
X181111Y243979D01*
X180740Y244133D01*
X180350Y244226D01*
X179950Y244258D01*
X179527D01*
X179500Y244260D01*
X166758D01*
Y245500D01*
X166724Y245931D01*
X166623Y246352D01*
X166458Y246752D01*
X166232Y247121D01*
X165950Y247451D01*
X165621Y247732D01*
X165252Y247958D01*
X164852Y248123D01*
X164431Y248225D01*
X164000Y248258D01*
X151500D01*
X151068Y248225D01*
X150647Y248123D01*
X150248Y247958D01*
X149879Y247732D01*
X149549Y247451D01*
X149268Y247121D01*
X149215Y247034D01*
X148375Y246877D01*
X147535Y247034D01*
X147482Y247121D01*
X147200Y247451D01*
X146871Y247732D01*
X146502Y247958D01*
X146102Y248123D01*
X145681Y248225D01*
X145250Y248258D01*
X132750D01*
X132318Y248225D01*
X131897Y248123D01*
X131498Y247958D01*
X131129Y247732D01*
X130799Y247451D01*
X130518Y247121D01*
X130292Y246752D01*
X130126Y246352D01*
X130025Y245931D01*
X129991Y245500D01*
Y238000D01*
X130025Y237568D01*
X130126Y237148D01*
X130292Y236748D01*
X130518Y236379D01*
X130799Y236049D01*
X131129Y235768D01*
X131498Y235542D01*
X131897Y235376D01*
X132318Y235275D01*
X132750Y235242D01*
X135490D01*
Y222871D01*
X135343Y222554D01*
X134250Y221510D01*
X131758D01*
Y222500D01*
X131725Y222931D01*
X131623Y223352D01*
X131458Y223752D01*
X131232Y224121D01*
X130950Y224450D01*
X130621Y224732D01*
X130252Y224958D01*
X129852Y225124D01*
X129431Y225224D01*
X129000Y225259D01*
X121500D01*
X121068Y225224D01*
X120648Y225124D01*
X120248Y224958D01*
X119879Y224732D01*
X119549Y224450D01*
X118059Y224883D01*
X112346Y230596D01*
X112077Y230826D01*
X111775Y231011D01*
X111447Y231147D01*
X111103Y231229D01*
X110750Y231257D01*
X104257D01*
Y243222D01*
X108904D01*
X109257Y243250D01*
X109601Y243333D01*
X109928Y243468D01*
X110230Y243653D01*
X110500Y243883D01*
X119860Y253243D01*
X147250D01*
X147603Y253271D01*
X147947Y253354D01*
X148275Y253489D01*
X148577Y253674D01*
X148846Y253904D01*
X151206Y256265D01*
X151500Y256241D01*
X164000D01*
X164431Y256276D01*
X164852Y256376D01*
X165252Y256542D01*
X165621Y256768D01*
X165950Y257049D01*
X166232Y257379D01*
X166458Y257748D01*
X166623Y258148D01*
X166724Y258568D01*
X166758Y259000D01*
Y266500D01*
X167644Y267493D01*
X168053Y267743D01*
X234531D01*
X234935Y267075D01*
D02*
G37*
G36*
X40000Y267743D02*
X64920D01*
X65335Y267508D01*
X66242Y266550D01*
Y251950D01*
X66275Y251526D01*
X66374Y251113D01*
X66537Y250721D01*
X66759Y250358D01*
X67035Y250035D01*
X67358Y249759D01*
X67720Y249537D01*
X68113Y249374D01*
X68526Y249275D01*
X68950Y249242D01*
X69274D01*
X69279Y249161D01*
X69394Y248583D01*
X69584Y248024D01*
X69845Y247495D01*
X70172Y247005D01*
X70561Y246561D01*
X72742Y244380D01*
Y240550D01*
X72774Y240150D01*
X72867Y239760D01*
X73021Y239389D01*
X73231Y239046D01*
X73491Y238741D01*
X73797Y238481D01*
X74139Y238271D01*
X74510Y238117D01*
X74900Y238024D01*
X75300Y237992D01*
X82243D01*
X82865Y236492D01*
X77380Y231008D01*
X75300D01*
X74900Y230976D01*
X74510Y230883D01*
X74139Y230729D01*
X73797Y230519D01*
X73491Y230259D01*
X73231Y229953D01*
X73021Y229611D01*
X72867Y229240D01*
X72774Y228850D01*
X72742Y228450D01*
Y224550D01*
X72764Y224270D01*
X70872Y222378D01*
X70566Y222019D01*
X70319Y221616D01*
X70138Y221180D01*
X70028Y220721D01*
X69991Y220250D01*
Y217577D01*
X54872Y202459D01*
X54565Y202100D01*
X54319Y201697D01*
X54138Y201261D01*
X54028Y200802D01*
X53991Y200331D01*
Y193758D01*
X47934D01*
X43346Y198346D01*
X43077Y198576D01*
X42775Y198761D01*
X42447Y198897D01*
X42103Y198979D01*
X41750Y199007D01*
X18021D01*
X18021Y199007D01*
X17668Y198979D01*
X17323Y198897D01*
X16996Y198761D01*
X16694Y198576D01*
X16425Y198346D01*
X16425Y198346D01*
X9904Y191825D01*
X9674Y191556D01*
X9489Y191254D01*
X9354Y190926D01*
X9271Y190582D01*
X9243Y190229D01*
Y173258D01*
X3500D01*
X2507Y174144D01*
X2257Y174553D01*
Y230000D01*
X2252Y230059D01*
X2287Y231647D01*
X2395Y233290D01*
X2574Y234927D01*
X2824Y236555D01*
X3146Y238170D01*
X3537Y239770D01*
X3998Y241351D01*
X4527Y242911D01*
X5124Y244446D01*
X5788Y245953D01*
X6516Y247430D01*
X7308Y248874D01*
X8163Y250282D01*
X9078Y251652D01*
X10052Y252980D01*
X11083Y254265D01*
X12169Y255503D01*
X13307Y256693D01*
X14497Y257831D01*
X15735Y258917D01*
X17020Y259948D01*
X18348Y260922D01*
X19718Y261837D01*
X21126Y262692D01*
X22569Y263484D01*
X24047Y264212D01*
X25554Y264876D01*
X27089Y265472D01*
X28649Y266002D01*
X30230Y266463D01*
X31830Y266854D01*
X33445Y267176D01*
X35073Y267426D01*
X36710Y267605D01*
X38353Y267713D01*
X39941Y267748D01*
X40000Y267743D01*
D02*
G37*
G36*
X405647Y267713D02*
X407290Y267605D01*
X408927Y267426D01*
X410555Y267176D01*
X412170Y266854D01*
X413770Y266463D01*
X415351Y266002D01*
X416911Y265472D01*
X418446Y264876D01*
X419953Y264212D01*
X421431Y263484D01*
X422874Y262692D01*
X424282Y261837D01*
X425652Y260922D01*
X426980Y259948D01*
X428265Y258917D01*
X429503Y257831D01*
X430693Y256693D01*
X431832Y255503D01*
X432917Y254265D01*
X433948Y252980D01*
X434922Y251652D01*
X435837Y250282D01*
X436692Y248874D01*
X437484Y247430D01*
X438212Y245953D01*
X438876Y244446D01*
X439473Y242911D01*
X440002Y241351D01*
X440463Y239770D01*
X440854Y238170D01*
X441175Y236555D01*
X441426Y234927D01*
X441605Y233290D01*
X441713Y231647D01*
X441748Y230059D01*
X441743Y230000D01*
Y40000D01*
X441748Y39941D01*
X441713Y38353D01*
X441605Y36710D01*
X441426Y35073D01*
X441175Y33445D01*
X440854Y31830D01*
X440463Y30230D01*
X440002Y28649D01*
X439473Y27089D01*
X438876Y25554D01*
X438212Y24047D01*
X437484Y22569D01*
X436692Y21126D01*
X435837Y19718D01*
X434922Y18348D01*
X433948Y17020D01*
X432917Y15735D01*
X431832Y14497D01*
X430693Y13307D01*
X429503Y12169D01*
X428265Y11083D01*
X426980Y10052D01*
X425652Y9078D01*
X424282Y8163D01*
X422874Y7308D01*
X421431Y6516D01*
X419953Y5788D01*
X418446Y5124D01*
X416911Y4527D01*
X415351Y3998D01*
X413770Y3537D01*
X412170Y3146D01*
X410555Y2824D01*
X408927Y2574D01*
X407290Y2395D01*
X405647Y2287D01*
X404059Y2252D01*
X404000Y2257D01*
X260091D01*
X259741Y3757D01*
X259919Y3844D01*
X260409Y4172D01*
X260853Y4561D01*
X261242Y5005D01*
X261366Y5190D01*
X273250D01*
X273397Y5200D01*
X281750D01*
Y5691D01*
X286193D01*
X286333Y5644D01*
X286911Y5529D01*
X287500Y5490D01*
X288089Y5529D01*
X288667Y5644D01*
X289226Y5834D01*
X289755Y6095D01*
X290245Y6422D01*
X290689Y6811D01*
X291078Y7255D01*
X291406Y7745D01*
X291666Y8274D01*
X291856Y8833D01*
X291971Y9411D01*
X292010Y10000D01*
X291971Y10589D01*
X291856Y11167D01*
X291666Y11726D01*
X291406Y12255D01*
X291078Y12745D01*
X290689Y13189D01*
X290245Y13578D01*
X289755Y13906D01*
X289226Y14166D01*
X288667Y14356D01*
X288089Y14471D01*
X287500Y14510D01*
X286911Y14471D01*
X286333Y14356D01*
X285774Y14166D01*
X285245Y13906D01*
X284951Y13708D01*
X281750D01*
Y14200D01*
X273397D01*
X273250Y14210D01*
X264810D01*
Y17900D01*
X281750D01*
X281750Y17900D01*
X283250Y17913D01*
X283600Y17890D01*
X284189Y17929D01*
X284767Y18044D01*
X285326Y18234D01*
X285855Y18494D01*
X286345Y18822D01*
X286789Y19211D01*
X287178Y19655D01*
X287505Y20145D01*
X287766Y20674D01*
X287956Y21233D01*
X288071Y21811D01*
X288110Y22400D01*
X288071Y22989D01*
X287956Y23567D01*
X287766Y24126D01*
X287505Y24655D01*
X287178Y25145D01*
X286789Y25589D01*
X286345Y25978D01*
X285855Y26305D01*
X285326Y26566D01*
X284767Y26756D01*
X284189Y26871D01*
X283600Y26910D01*
X283250Y26887D01*
X281750Y26900D01*
X281750Y26900D01*
X281750Y26900D01*
X264810D01*
Y30600D01*
X281750D01*
Y39600D01*
X269153D01*
X268602Y39710D01*
X268013Y39748D01*
X267425Y39710D01*
X266873Y39600D01*
X264810D01*
Y43300D01*
X272085D01*
X272524Y43084D01*
X273083Y42894D01*
X273661Y42779D01*
X274250Y42740D01*
X274839Y42779D01*
X275417Y42894D01*
X275976Y43084D01*
X276415Y43300D01*
X281414D01*
X281802Y42753D01*
X282251Y42251D01*
X282753Y41802D01*
X283303Y41412D01*
X283893Y41086D01*
X284515Y40828D01*
X285163Y40641D01*
X285827Y40528D01*
X286500Y40490D01*
X287173Y40528D01*
X287837Y40641D01*
X288485Y40828D01*
X289107Y41086D01*
X289697Y41412D01*
X290247Y41802D01*
X290749Y42251D01*
X291198Y42753D01*
X291588Y43303D01*
X291914Y43893D01*
X292172Y44515D01*
X292359Y45163D01*
X292472Y45827D01*
X292509Y46500D01*
X292472Y47173D01*
X292359Y47837D01*
X292172Y48485D01*
X291914Y49107D01*
X291588Y49697D01*
X291198Y50247D01*
X291875Y51740D01*
X325125D01*
X325802Y50247D01*
X325412Y49697D01*
X325086Y49107D01*
X324828Y48485D01*
X324641Y47837D01*
X324528Y47173D01*
X324491Y46500D01*
X324528Y45827D01*
X324641Y45163D01*
X324828Y44515D01*
X325086Y43893D01*
X325412Y43303D01*
X325802Y42753D01*
X326251Y42251D01*
X326753Y41802D01*
X327303Y41412D01*
X327893Y41086D01*
X328515Y40828D01*
X329163Y40641D01*
X329827Y40528D01*
X330500Y40490D01*
X331173Y40528D01*
X331837Y40641D01*
X332485Y40828D01*
X333107Y41086D01*
X333697Y41412D01*
X334247Y41802D01*
X334749Y42251D01*
X335198Y42753D01*
X335588Y43303D01*
X335914Y43893D01*
X336172Y44515D01*
X336359Y45163D01*
X336472Y45827D01*
X336510Y46500D01*
X336472Y47173D01*
X336359Y47837D01*
X336172Y48485D01*
X335914Y49107D01*
X335588Y49697D01*
X335198Y50247D01*
X335875Y51740D01*
X370750D01*
X371339Y51779D01*
X371917Y51894D01*
X372476Y52084D01*
X373005Y52344D01*
X373495Y52672D01*
X373939Y53061D01*
X398378Y77500D01*
X411550D01*
Y96500D01*
X392550D01*
Y90760D01*
X385258D01*
Y101950D01*
X385227Y102488D01*
X385137Y103020D01*
X384988Y103538D01*
X384781Y104036D01*
X384521Y104508D01*
X384209Y104948D01*
X383849Y105350D01*
X383447Y105709D01*
X383008Y106021D01*
X382536Y106281D01*
X382038Y106488D01*
X381520Y106637D01*
X380988Y106727D01*
X380450Y106758D01*
X364620D01*
X358510Y112868D01*
Y130569D01*
X358471Y131158D01*
X358356Y131736D01*
X358166Y132295D01*
X357906Y132824D01*
X357578Y133314D01*
X357189Y133758D01*
X347510Y143437D01*
Y149911D01*
X347471Y150500D01*
X347356Y151078D01*
X347166Y151637D01*
X346906Y152166D01*
X346578Y152656D01*
X346189Y153100D01*
X342850Y156439D01*
X342406Y156828D01*
X341916Y157156D01*
X341387Y157416D01*
X340828Y157606D01*
X340250Y157721D01*
X339661Y157760D01*
X326868D01*
X323760Y160868D01*
Y162000D01*
X323721Y162589D01*
X323606Y163167D01*
X323493Y163499D01*
X323510Y163750D01*
X323471Y164339D01*
X323356Y164917D01*
X323166Y165476D01*
X322906Y166005D01*
X322578Y166495D01*
X322189Y166939D01*
X321745Y167328D01*
X321255Y167655D01*
X320726Y167916D01*
X320167Y168106D01*
X319589Y168221D01*
X319000Y168260D01*
X318411Y168221D01*
X317833Y168106D01*
X317274Y167916D01*
X316745Y167655D01*
X316255Y167328D01*
X315811Y166939D01*
X315757Y166877D01*
X314280Y167366D01*
X314257Y167383D01*
Y190841D01*
X315643Y191415D01*
X316654Y190404D01*
X316654Y190404D01*
X316923Y190174D01*
X317225Y189989D01*
X317553Y189853D01*
X317897Y189771D01*
X318250Y189743D01*
X320992D01*
Y184000D01*
X321026Y183568D01*
X321127Y183148D01*
X321292Y182748D01*
X321518Y182379D01*
X321800Y182050D01*
X322129Y181768D01*
X322498Y181542D01*
X322898Y181376D01*
X323318Y181276D01*
X323750Y181241D01*
X336250D01*
X336682Y181276D01*
X337102Y181376D01*
X337502Y181542D01*
X337871Y181768D01*
X338200Y182050D01*
X338482Y182379D01*
X338708Y182748D01*
X338873Y183148D01*
X338974Y183568D01*
X339008Y184000D01*
Y191500D01*
X338974Y191931D01*
X338873Y192352D01*
X338708Y192752D01*
X338482Y193121D01*
X338200Y193451D01*
X337871Y193732D01*
X337502Y193958D01*
X337102Y194123D01*
X336682Y194225D01*
X336250Y194258D01*
X323750D01*
X323730Y194257D01*
X319185D01*
X317257Y196185D01*
Y198153D01*
X317257Y198154D01*
X317229Y198507D01*
X317146Y198851D01*
X317011Y199178D01*
X316826Y199480D01*
X316596Y199750D01*
X311500Y204846D01*
X311230Y205076D01*
X310928Y205261D01*
X310601Y205396D01*
X310257Y205479D01*
X309904Y205507D01*
X281427D01*
X278257Y208678D01*
Y257917D01*
X278229Y258270D01*
X278146Y258615D01*
X278011Y258942D01*
X277826Y259244D01*
X277596Y259513D01*
X270866Y266243D01*
X270907Y266669D01*
X271386Y267743D01*
X404000D01*
X404059Y267748D01*
X405647Y267713D01*
D02*
G37*
G36*
X277654Y198654D02*
X277654Y198654D01*
X277923Y198424D01*
X278225Y198239D01*
X278553Y198104D01*
X278897Y198021D01*
X279250Y197993D01*
X279250Y197993D01*
X279764D01*
X279812Y197962D01*
X280378Y197188D01*
X280647Y196493D01*
X280520Y196187D01*
X280366Y195653D01*
X280273Y195105D01*
X280242Y194550D01*
Y192456D01*
X280144Y192167D01*
X280029Y191589D01*
X279990Y191000D01*
X280029Y190411D01*
X280144Y189833D01*
X280242Y189543D01*
Y178450D01*
X280273Y177895D01*
X280366Y177347D01*
X280520Y176812D01*
X280733Y176299D01*
X281002Y175812D01*
X281324Y175359D01*
X281694Y174944D01*
X282109Y174574D01*
X282562Y174252D01*
X283049Y173983D01*
X283563Y173770D01*
X284097Y173617D01*
X284645Y173523D01*
X285200Y173492D01*
X288740D01*
Y166500D01*
X288742Y166473D01*
Y162550D01*
X288774Y162150D01*
X288867Y161760D01*
X289021Y161389D01*
X289231Y161047D01*
X289491Y160741D01*
X289797Y160481D01*
X290139Y160271D01*
X290510Y160117D01*
X290900Y160024D01*
X291300Y159992D01*
X295200D01*
X295600Y160024D01*
X295990Y160117D01*
X296361Y160271D01*
X296703Y160481D01*
X297009Y160741D01*
X297269Y161047D01*
X297479Y161389D01*
X297633Y161760D01*
X297726Y162150D01*
X297758Y162550D01*
Y166473D01*
X297760Y166500D01*
Y173492D01*
X306300D01*
X306855Y173523D01*
X307403Y173617D01*
X307938Y173770D01*
X308243Y173897D01*
X308938Y173628D01*
X309712Y173062D01*
X309743Y173015D01*
Y156654D01*
X309255Y156328D01*
X308811Y155939D01*
X308422Y155495D01*
X308095Y155005D01*
X307834Y154476D01*
X307644Y153917D01*
X307529Y153339D01*
X307490Y152750D01*
X307529Y152161D01*
X307644Y151583D01*
X307834Y151024D01*
X308095Y150495D01*
X308422Y150005D01*
X308811Y149561D01*
X309255Y149172D01*
X309745Y148844D01*
X310274Y148584D01*
X310833Y148394D01*
X311411Y148279D01*
X311721Y148259D01*
X311672Y146759D01*
X279760D01*
Y159000D01*
X280439Y159679D01*
X280828Y160123D01*
X281155Y160613D01*
X281416Y161143D01*
X281595Y161668D01*
X281633Y161760D01*
X281726Y162150D01*
X281758Y162550D01*
Y162841D01*
X281760Y162868D01*
Y166500D01*
X281758Y166527D01*
Y170450D01*
X281726Y170850D01*
X281633Y171240D01*
X281479Y171611D01*
X281269Y171954D01*
X281009Y172259D01*
X280704Y172519D01*
X280361Y172729D01*
X279990Y172883D01*
X279600Y172976D01*
X279200Y173008D01*
X275300D01*
X274900Y172976D01*
X274510Y172883D01*
X274139Y172729D01*
X273797Y172519D01*
X273759Y172487D01*
X272798Y172746D01*
X272258Y173125D01*
Y175750D01*
X272225Y176182D01*
X272124Y176602D01*
X271958Y177002D01*
X271732Y177371D01*
X271451Y177701D01*
X271248Y177874D01*
X271136Y178193D01*
X271121Y178383D01*
Y179117D01*
X271136Y179307D01*
X271248Y179626D01*
X271451Y179799D01*
X271732Y180129D01*
X271958Y180498D01*
X272124Y180898D01*
X272225Y181318D01*
X272258Y181750D01*
Y194250D01*
X272225Y194681D01*
X272124Y195102D01*
X271958Y195502D01*
X271732Y195871D01*
X271451Y196201D01*
X271407Y196237D01*
X271400Y196252D01*
X271266Y196982D01*
Y197268D01*
X271400Y197998D01*
X271407Y198013D01*
X271451Y198050D01*
X271732Y198379D01*
X271958Y198748D01*
X272124Y199148D01*
X272225Y199569D01*
X272258Y200000D01*
Y202090D01*
X273644Y202664D01*
X277654Y198654D01*
D02*
G37*
G36*
X319992Y137950D02*
X320025Y137526D01*
X320124Y137113D01*
X320287Y136721D01*
X320509Y136358D01*
X320785Y136035D01*
X321108Y135759D01*
X321470Y135537D01*
X321863Y135374D01*
X322276Y135275D01*
X322700Y135242D01*
X327453D01*
X327487Y135144D01*
X327761Y134566D01*
X328089Y134018D01*
X328469Y133506D01*
X328778Y133165D01*
X328814Y133049D01*
X328798Y132440D01*
X328433Y131376D01*
X328242Y131271D01*
X327803Y130959D01*
X327401Y130599D01*
X327041Y130197D01*
X326729Y129758D01*
X326469Y129286D01*
X326262Y128788D01*
X326113Y128270D01*
X326023Y127738D01*
X325992Y127200D01*
Y109240D01*
X322787Y106035D01*
X322780Y106033D01*
X321831Y106143D01*
X321072Y106441D01*
X320921Y106747D01*
X320593Y107237D01*
X320204Y107681D01*
X319761Y108070D01*
X319270Y108397D01*
X318741Y108658D01*
X318183Y108848D01*
X317604Y108963D01*
X317015Y109002D01*
X316427Y108963D01*
X315848Y108848D01*
X315290Y108658D01*
X314761Y108397D01*
X314270Y108070D01*
X313827Y107681D01*
X313438Y107237D01*
X313110Y106747D01*
X312849Y106218D01*
X312659Y105659D01*
X312544Y105080D01*
X312506Y104492D01*
X312544Y103903D01*
X312659Y103325D01*
X312849Y102766D01*
X313110Y102237D01*
X313438Y101747D01*
X313827Y101303D01*
X314270Y100914D01*
X314761Y100587D01*
X315290Y100326D01*
X315848Y100136D01*
X316243Y100057D01*
Y87825D01*
X316271Y87472D01*
X316353Y87128D01*
X316489Y86801D01*
X316674Y86499D01*
X316904Y86229D01*
X323729Y79404D01*
X323730Y79404D01*
X323999Y79174D01*
X324301Y78989D01*
X324628Y78854D01*
X324972Y78771D01*
X325325Y78743D01*
X370006D01*
X370009Y78741D01*
X370047Y78152D01*
X370162Y77573D01*
X370352Y77015D01*
X370613Y76486D01*
X370941Y75995D01*
X371329Y75552D01*
X371773Y75163D01*
X372263Y74835D01*
X372793Y74574D01*
X373351Y74385D01*
X373930Y74270D01*
X374518Y74231D01*
X375107Y74270D01*
X375686Y74385D01*
X376244Y74574D01*
X376773Y74835D01*
X377264Y75163D01*
X377707Y75552D01*
X378096Y75995D01*
X378424Y76486D01*
X378685Y77015D01*
X378874Y77573D01*
X378989Y78152D01*
X379028Y78741D01*
X378989Y79329D01*
X378874Y79908D01*
X378761Y80242D01*
X379075Y80970D01*
X379662Y81727D01*
X379688Y81742D01*
X379825D01*
X379857Y81740D01*
X387903D01*
X388477Y80355D01*
X368882Y60760D01*
X351258D01*
Y64550D01*
X351225Y64974D01*
X351126Y65387D01*
X350963Y65780D01*
X350741Y66142D01*
X350465Y66465D01*
X350142Y66741D01*
X349780Y66963D01*
X349387Y67126D01*
X348974Y67225D01*
X348550Y67258D01*
X333950D01*
X333526Y67225D01*
X333113Y67126D01*
X332720Y66963D01*
X332358Y66741D01*
X332035Y66465D01*
X331759Y66142D01*
X331537Y65780D01*
X331374Y65387D01*
X331275Y64974D01*
X331242Y64550D01*
Y60760D01*
X328260D01*
Y69000D01*
X328221Y69589D01*
X328106Y70167D01*
X327916Y70726D01*
X327655Y71255D01*
X327328Y71745D01*
X326939Y72189D01*
X326495Y72578D01*
X326005Y72905D01*
X325476Y73166D01*
X324917Y73356D01*
X324339Y73471D01*
X323750Y73510D01*
X323161Y73471D01*
X322583Y73356D01*
X322024Y73166D01*
X321495Y72905D01*
X321005Y72578D01*
X320561Y72189D01*
X320172Y71745D01*
X319844Y71255D01*
X319584Y70726D01*
X319394Y70167D01*
X319279Y69589D01*
X319240Y69000D01*
Y60760D01*
X309801D01*
X309514Y61006D01*
X308909Y62260D01*
X308916Y62274D01*
X309106Y62833D01*
X309221Y63411D01*
X309260Y64000D01*
Y69000D01*
X309221Y69589D01*
X309106Y70167D01*
X308916Y70726D01*
X308655Y71255D01*
X308328Y71745D01*
X307939Y72189D01*
X307495Y72578D01*
X307005Y72905D01*
X306476Y73166D01*
X305917Y73356D01*
X305339Y73471D01*
X304750Y73510D01*
X304161Y73471D01*
X304157Y73470D01*
X297258Y80369D01*
Y83500D01*
X297225Y83932D01*
X297124Y84352D01*
X296958Y84752D01*
X296732Y85121D01*
X296451Y85450D01*
X296121Y85732D01*
X295752Y85958D01*
X295352Y86124D01*
X294932Y86224D01*
X294500Y86258D01*
X282000D01*
X281569Y86224D01*
X281148Y86124D01*
X280748Y85958D01*
X280379Y85732D01*
X280049Y85450D01*
X279768Y85121D01*
X279542Y84752D01*
X279377Y84352D01*
X279275Y83932D01*
X279242Y83500D01*
Y76000D01*
X279275Y75568D01*
X279377Y75148D01*
X279542Y74748D01*
X279768Y74379D01*
X280049Y74049D01*
X280379Y73768D01*
X280748Y73542D01*
X281148Y73376D01*
X281569Y73275D01*
X282000Y73242D01*
X291631D01*
X300240Y64632D01*
Y64000D01*
X300279Y63411D01*
X300394Y62833D01*
X300584Y62274D01*
X300591Y62260D01*
X299986Y61006D01*
X299699Y60760D01*
X297258D01*
Y62500D01*
X297225Y62931D01*
X297124Y63352D01*
X296958Y63752D01*
X296732Y64121D01*
X296451Y64450D01*
X296121Y64732D01*
X295752Y64958D01*
X295352Y65124D01*
X294932Y65224D01*
X294500Y65258D01*
X282000D01*
X281569Y65224D01*
X281148Y65124D01*
X280748Y64958D01*
X280379Y64732D01*
X280049Y64450D01*
X279768Y64121D01*
X279542Y63752D01*
X279377Y63352D01*
X279275Y62931D01*
X279242Y62500D01*
Y60019D01*
X278955Y59828D01*
X278511Y59439D01*
X271373Y52300D01*
X264750D01*
Y51140D01*
X264156Y50745D01*
X263250Y50542D01*
X260853Y52939D01*
X260409Y53328D01*
X259919Y53656D01*
X259390Y53916D01*
X258831Y54106D01*
X258253Y54221D01*
X257664Y54260D01*
X229836D01*
X229247Y54221D01*
X228669Y54106D01*
X228110Y53916D01*
X227581Y53656D01*
X227091Y53328D01*
X226647Y52939D01*
X226018Y52310D01*
X214250D01*
X214103Y52300D01*
X205760D01*
Y64490D01*
X213500D01*
X214007Y64524D01*
X214012Y64523D01*
X214550Y64493D01*
X232218D01*
X232250Y64490D01*
X248750D01*
X248777Y64492D01*
X252700D01*
X253100Y64524D01*
X253490Y64617D01*
X253861Y64771D01*
X254203Y64981D01*
X254509Y65241D01*
X254769Y65546D01*
X254979Y65889D01*
X255133Y66260D01*
X255226Y66650D01*
X255258Y67050D01*
Y70950D01*
X255226Y71350D01*
X255133Y71740D01*
X254979Y72111D01*
X254769Y72453D01*
X254509Y72759D01*
X254203Y73019D01*
X253861Y73229D01*
X253490Y73383D01*
X253100Y73476D01*
X252700Y73508D01*
X248777D01*
X248750Y73510D01*
X238758D01*
Y79568D01*
X239113Y79872D01*
X240982Y81741D01*
X241532Y81793D01*
X242658Y81561D01*
X242813Y81450D01*
X242991Y81241D01*
X243297Y80981D01*
X243639Y80771D01*
X244010Y80617D01*
X244400Y80524D01*
X244800Y80492D01*
X248723D01*
X248750Y80490D01*
X261750D01*
X262339Y80529D01*
X262917Y80644D01*
X263476Y80834D01*
X264005Y81095D01*
X264495Y81422D01*
X264939Y81811D01*
X278189Y95061D01*
X278578Y95505D01*
X278906Y95995D01*
X279166Y96524D01*
X279356Y97083D01*
X279471Y97661D01*
X279510Y98250D01*
Y138742D01*
X319992D01*
Y137950D01*
D02*
G37*
G36*
X265991Y113089D02*
Y101982D01*
X258935Y94926D01*
X258547Y95004D01*
X258328Y95194D01*
X257751Y96355D01*
X257726Y96699D01*
X257856Y97083D01*
X257971Y97661D01*
X258010Y98250D01*
X257971Y98839D01*
X257856Y99417D01*
X257666Y99976D01*
X257405Y100505D01*
X257078Y100995D01*
X256689Y101439D01*
X256245Y101828D01*
X255755Y102155D01*
X255226Y102416D01*
X254667Y102606D01*
X254089Y102721D01*
X253500Y102760D01*
X252911Y102721D01*
X252333Y102606D01*
X251774Y102416D01*
X251245Y102155D01*
X250755Y101828D01*
X250311Y101439D01*
X249922Y100995D01*
X249596Y100507D01*
X241301D01*
X241295Y100511D01*
X240968Y100646D01*
X240623Y100729D01*
X240270Y100757D01*
X239917Y100729D01*
X239573Y100646D01*
X239245Y100511D01*
X238944Y100326D01*
X238674Y100096D01*
X233327Y94748D01*
X225539D01*
X225416Y94996D01*
X225089Y95487D01*
X224700Y95930D01*
X224256Y96319D01*
X223766Y96647D01*
X223237Y96908D01*
X222678Y97097D01*
X222099Y97212D01*
X221511Y97251D01*
X220922Y97212D01*
X220344Y97097D01*
X219785Y96908D01*
X219256Y96647D01*
X218766Y96319D01*
X218322Y95930D01*
X217933Y95487D01*
X217605Y94996D01*
X217344Y94467D01*
X217155Y93909D01*
X217040Y93330D01*
X217001Y92741D01*
X217040Y92153D01*
X217155Y91574D01*
X217344Y91016D01*
X217348Y91008D01*
X216736Y89746D01*
X216455Y89508D01*
X215120D01*
X213189Y91439D01*
X212745Y91828D01*
X212255Y92155D01*
X211726Y92416D01*
X211167Y92606D01*
X211145Y92610D01*
X210625Y93905D01*
X210635Y94221D01*
X211596Y95182D01*
X211596Y95183D01*
X211826Y95452D01*
X212011Y95754D01*
X212146Y96081D01*
X212229Y96425D01*
X212257Y96778D01*
Y104073D01*
X214678Y106493D01*
X253096D01*
X253422Y106005D01*
X253811Y105561D01*
X254255Y105172D01*
X254745Y104845D01*
X255274Y104584D01*
X255833Y104394D01*
X256411Y104279D01*
X257000Y104240D01*
X257589Y104279D01*
X258167Y104394D01*
X258726Y104584D01*
X259255Y104845D01*
X259745Y105172D01*
X260189Y105561D01*
X260578Y106005D01*
X260905Y106495D01*
X261166Y107024D01*
X261356Y107583D01*
X261471Y108161D01*
X261510Y108750D01*
X261471Y109339D01*
X261356Y109917D01*
X261245Y110243D01*
X261460Y110882D01*
X262103Y111771D01*
X262447Y111854D01*
X262775Y111989D01*
X263077Y112174D01*
X263346Y112404D01*
X264605Y113663D01*
X265991Y113089D01*
D02*
G37*
G36*
X356265Y102357D02*
X356242Y101950D01*
Y86550D01*
X356273Y86012D01*
X356363Y85480D01*
X356512Y84962D01*
X356597Y84757D01*
X356240Y83909D01*
X355679Y83257D01*
X326325D01*
X325301Y84360D01*
X325399Y85188D01*
X325696Y85942D01*
X326005Y86095D01*
X326495Y86422D01*
X326939Y86811D01*
X327328Y87255D01*
X327655Y87745D01*
X327916Y88274D01*
X328106Y88833D01*
X328221Y89411D01*
X328260Y90000D01*
Y98752D01*
X332500Y102992D01*
X346200D01*
X346738Y103023D01*
X347270Y103113D01*
X347788Y103262D01*
X348286Y103469D01*
X348758Y103729D01*
X349198Y104041D01*
X349599Y104401D01*
X349959Y104803D01*
X350271Y105242D01*
X350532Y105714D01*
X350606Y105895D01*
X351509Y106254D01*
X352324Y106299D01*
X356265Y102357D01*
D02*
G37*
G36*
X123153Y82067D02*
X123268Y81879D01*
X123549Y81550D01*
X123879Y81268D01*
X124248Y81042D01*
X124648Y80877D01*
X125069Y80775D01*
X125500Y80742D01*
X134003D01*
X141622Y73122D01*
X141981Y72815D01*
X142384Y72569D01*
X142820Y72388D01*
X143279Y72278D01*
X143750Y72241D01*
X143969D01*
X144395Y71575D01*
X144593Y70741D01*
X144509Y70642D01*
X144287Y70279D01*
X144124Y69887D01*
X144025Y69474D01*
X143992Y69050D01*
Y66259D01*
X140758D01*
Y70000D01*
X140724Y70431D01*
X140624Y70852D01*
X140458Y71252D01*
X140232Y71621D01*
X139951Y71951D01*
X139621Y72232D01*
X139252Y72458D01*
X138852Y72624D01*
X138432Y72724D01*
X138000Y72758D01*
X125500D01*
X125492Y72758D01*
X120382D01*
X120102Y72874D01*
X119682Y72975D01*
X119250Y73008D01*
X106750D01*
X106319Y72975D01*
X105898Y72874D01*
X105618Y72758D01*
X103540D01*
X103011Y73281D01*
X102411Y74153D01*
X102424Y74325D01*
X102532Y74629D01*
X102715Y74785D01*
X102991Y75108D01*
X103213Y75470D01*
X103376Y75863D01*
X103475Y76276D01*
X103508Y76700D01*
Y81002D01*
X104222Y81443D01*
X105008Y81621D01*
X105129Y81518D01*
X105498Y81292D01*
X105898Y81126D01*
X106319Y81025D01*
X106750Y80991D01*
X119250D01*
X119682Y81025D01*
X120102Y81126D01*
X120502Y81292D01*
X120871Y81518D01*
X121201Y81799D01*
X121482Y82129D01*
X121491Y82143D01*
X122638Y82220D01*
X123153Y82067D01*
D02*
G37*
G36*
X201840Y93679D02*
X202177Y93256D01*
X202611Y92243D01*
X202603Y92226D01*
X202521Y91881D01*
X202493Y91528D01*
Y79435D01*
X195315Y72257D01*
X193654D01*
X193328Y72745D01*
X192939Y73189D01*
X192495Y73578D01*
X192005Y73905D01*
X191476Y74166D01*
X190917Y74356D01*
X190339Y74471D01*
X189750Y74510D01*
X189161Y74471D01*
X188583Y74356D01*
X188024Y74166D01*
X187495Y73905D01*
X187005Y73578D01*
X186561Y73189D01*
X186172Y72745D01*
X185844Y72255D01*
X185584Y71726D01*
X185394Y71167D01*
X185279Y70589D01*
X185240Y70000D01*
X185279Y69411D01*
X185394Y68833D01*
X185584Y68274D01*
X185844Y67745D01*
X186172Y67255D01*
X186561Y66811D01*
X187005Y66422D01*
X187495Y66094D01*
X188024Y65834D01*
X188583Y65644D01*
X189161Y65529D01*
X189750Y65490D01*
X190339Y65529D01*
X190917Y65644D01*
X191476Y65834D01*
X192005Y66094D01*
X192495Y66422D01*
X192939Y66811D01*
X193328Y67255D01*
X193654Y67743D01*
X195248D01*
X196289Y67626D01*
X196740Y66285D01*
Y50457D01*
X196043Y49760D01*
X145750D01*
X145161Y49721D01*
X144583Y49606D01*
X144024Y49416D01*
X143495Y49156D01*
X143005Y48828D01*
X142561Y48439D01*
X139508Y45386D01*
X138008Y46007D01*
Y56750D01*
X137975Y57182D01*
X137873Y57602D01*
X137708Y58002D01*
X137561Y58242D01*
X137796Y59140D01*
X138122Y59660D01*
X138217Y59759D01*
X138432Y59776D01*
X138852Y59876D01*
X139252Y60042D01*
X139576Y60241D01*
X143992D01*
Y57450D01*
X144025Y57026D01*
X144124Y56613D01*
X144287Y56220D01*
X144509Y55858D01*
X144785Y55535D01*
X145108Y55259D01*
X145470Y55037D01*
X145863Y54874D01*
X146276Y54775D01*
X146700Y54742D01*
X156300D01*
X156724Y54775D01*
X157137Y54874D01*
X157529Y55037D01*
X157892Y55259D01*
X158215Y55535D01*
X158491Y55858D01*
X158706Y56208D01*
X158963Y56281D01*
X160037D01*
X160294Y56208D01*
X160509Y55858D01*
X160785Y55535D01*
X161108Y55259D01*
X161470Y55037D01*
X161863Y54874D01*
X162276Y54775D01*
X162700Y54742D01*
X172300D01*
X172724Y54775D01*
X173137Y54874D01*
X173529Y55037D01*
X173892Y55259D01*
X174215Y55535D01*
X174491Y55858D01*
X174713Y56220D01*
X174876Y56613D01*
X174975Y57026D01*
X175008Y57450D01*
Y69050D01*
X174975Y69474D01*
X174876Y69887D01*
X174713Y70279D01*
X174491Y70642D01*
X174215Y70965D01*
X173892Y71241D01*
X173529Y71463D01*
X173137Y71626D01*
X172724Y71725D01*
X172300Y71758D01*
X162700D01*
X162276Y71725D01*
X161863Y71626D01*
X161470Y71463D01*
X161108Y71241D01*
X160785Y70965D01*
X159437Y70822D01*
X158987Y70898D01*
X158928Y70957D01*
X158937Y71248D01*
X159206Y72486D01*
X159406Y72569D01*
X159809Y72815D01*
X160168Y73122D01*
X163787Y76742D01*
X172300D01*
X172724Y76775D01*
X173137Y76874D01*
X173529Y77037D01*
X173892Y77259D01*
X174215Y77535D01*
X174491Y77858D01*
X174713Y78220D01*
X174876Y78613D01*
X174975Y79026D01*
X175008Y79450D01*
Y82241D01*
X178242D01*
Y81450D01*
X178275Y81026D01*
X178374Y80613D01*
X178537Y80220D01*
X178759Y79858D01*
X179035Y79535D01*
X179358Y79259D01*
X179720Y79037D01*
X180113Y78874D01*
X180526Y78775D01*
X180950Y78742D01*
X195550D01*
X195974Y78775D01*
X196387Y78874D01*
X196779Y79037D01*
X197142Y79259D01*
X197465Y79535D01*
X197741Y79858D01*
X197963Y80220D01*
X198126Y80613D01*
X198225Y81026D01*
X198258Y81450D01*
Y91050D01*
X198225Y91474D01*
X198126Y91887D01*
X197963Y92280D01*
X198426Y93373D01*
X198773Y93743D01*
X201756D01*
X201840Y93679D01*
D02*
G37*
G36*
X255790Y12260D02*
X231704D01*
X231183Y12781D01*
X231106Y13167D01*
X230916Y13726D01*
X230655Y14255D01*
X230328Y14745D01*
X229939Y15189D01*
X229495Y15578D01*
X229005Y15905D01*
X228476Y16166D01*
X227917Y16356D01*
X227339Y16471D01*
X226750Y16510D01*
X226161Y16471D01*
X225583Y16356D01*
X225024Y16166D01*
X224495Y15905D01*
X224005Y15578D01*
X223561Y15189D01*
X223172Y14745D01*
X222845Y14255D01*
X222584Y13726D01*
X222394Y13167D01*
X222279Y12589D01*
X222240Y12000D01*
Y10836D01*
X222279Y10247D01*
X222394Y9669D01*
X222584Y9110D01*
X222845Y8581D01*
X223172Y8091D01*
X223561Y7647D01*
X226647Y4561D01*
X227091Y4172D01*
X227581Y3844D01*
X227759Y3757D01*
X227409Y2257D01*
X205523D01*
X205176Y2627D01*
X204713Y3720D01*
X204876Y4113D01*
X204975Y4526D01*
X205008Y4950D01*
Y16707D01*
X205750Y17900D01*
X217953D01*
X218100Y17890D01*
X218247Y17900D01*
X222750D01*
Y26900D01*
X218247D01*
X218100Y26910D01*
X217953Y26900D01*
X206356D01*
X205259Y27997D01*
Y38250D01*
X205225Y38681D01*
X205124Y39102D01*
X204958Y39502D01*
X204732Y39871D01*
X204451Y40201D01*
X204121Y40482D01*
X203752Y40708D01*
X203353Y40873D01*
X202931Y40974D01*
X202500Y41009D01*
X202168D01*
X201547Y42509D01*
X204250Y45212D01*
X204972Y45083D01*
X205750Y44620D01*
Y43300D01*
X214103D01*
X214250Y43290D01*
X227886D01*
X228475Y43329D01*
X229053Y43444D01*
X229612Y43634D01*
X230141Y43895D01*
X230631Y44222D01*
X231075Y44611D01*
X231704Y45240D01*
X255790D01*
Y12260D01*
D02*
G37*
%LPC*%
G36*
X366250Y260650D02*
X347250D01*
Y241650D01*
X366250D01*
Y260650D01*
D02*
G37*
G36*
X331350Y260659D02*
X330521Y260623D01*
X329699Y260515D01*
X328889Y260335D01*
X328098Y260086D01*
X327331Y259768D01*
X326595Y259385D01*
X325896Y258939D01*
X325238Y258434D01*
X324626Y257874D01*
X324066Y257262D01*
X323561Y256604D01*
X323115Y255905D01*
X322732Y255169D01*
X322414Y254402D01*
X322165Y253611D01*
X321986Y252801D01*
X321877Y251979D01*
X321841Y251150D01*
X321877Y250321D01*
X321986Y249499D01*
X322165Y248689D01*
X322414Y247898D01*
X322732Y247131D01*
X323115Y246395D01*
X323561Y245696D01*
X324066Y245038D01*
X324626Y244426D01*
X325238Y243866D01*
X325896Y243361D01*
X326595Y242915D01*
X327331Y242532D01*
X328098Y242214D01*
X328889Y241965D01*
X329699Y241785D01*
X330521Y241677D01*
X331350Y241641D01*
X332179Y241677D01*
X333001Y241785D01*
X333811Y241965D01*
X334602Y242214D01*
X335369Y242532D01*
X336105Y242915D01*
X336804Y243361D01*
X337462Y243866D01*
X338074Y244426D01*
X338634Y245038D01*
X339139Y245696D01*
X339585Y246395D01*
X339968Y247131D01*
X340286Y247898D01*
X340535Y248689D01*
X340715Y249499D01*
X340823Y250321D01*
X340859Y251150D01*
X340823Y251979D01*
X340715Y252801D01*
X340535Y253611D01*
X340286Y254402D01*
X339968Y255169D01*
X339585Y255905D01*
X339139Y256604D01*
X338634Y257262D01*
X338074Y257874D01*
X337462Y258434D01*
X336804Y258939D01*
X336105Y259385D01*
X335369Y259768D01*
X334602Y260086D01*
X333811Y260335D01*
X333001Y260515D01*
X332179Y260623D01*
X331350Y260659D01*
D02*
G37*
G36*
X356750Y235259D02*
X355921Y235223D01*
X355099Y235114D01*
X354289Y234935D01*
X353498Y234686D01*
X352731Y234368D01*
X351996Y233985D01*
X351296Y233539D01*
X350638Y233034D01*
X350026Y232474D01*
X349466Y231862D01*
X348961Y231204D01*
X348515Y230504D01*
X348132Y229769D01*
X347814Y229002D01*
X347565Y228211D01*
X347385Y227401D01*
X347277Y226579D01*
X347241Y225750D01*
X347277Y224921D01*
X347385Y224099D01*
X347565Y223289D01*
X347814Y222498D01*
X348132Y221731D01*
X348515Y220996D01*
X348961Y220296D01*
X349466Y219638D01*
X350026Y219026D01*
X350638Y218466D01*
X351296Y217961D01*
X351996Y217515D01*
X352731Y217132D01*
X353498Y216814D01*
X354289Y216565D01*
X355099Y216385D01*
X355921Y216277D01*
X356750Y216241D01*
X357579Y216277D01*
X358401Y216385D01*
X359211Y216565D01*
X360002Y216814D01*
X360769Y217132D01*
X361505Y217515D01*
X362204Y217961D01*
X362862Y218466D01*
X363474Y219026D01*
X364034Y219638D01*
X364539Y220296D01*
X364985Y220996D01*
X365368Y221731D01*
X365686Y222498D01*
X365935Y223289D01*
X366115Y224099D01*
X366223Y224921D01*
X366259Y225750D01*
X366223Y226579D01*
X366115Y227401D01*
X365935Y228211D01*
X365686Y229002D01*
X365368Y229769D01*
X364985Y230504D01*
X364539Y231204D01*
X364034Y231862D01*
X363474Y232474D01*
X362862Y233034D01*
X362204Y233539D01*
X361505Y233985D01*
X360769Y234368D01*
X360002Y234686D01*
X359211Y234935D01*
X358401Y235114D01*
X357579Y235223D01*
X356750Y235259D01*
D02*
G37*
G36*
X411300Y192500D02*
X392300D01*
Y190446D01*
X392089Y190255D01*
X391176Y189863D01*
X390800Y189775D01*
X390502Y189958D01*
X390102Y190124D01*
X389682Y190225D01*
X389250Y190259D01*
X376750D01*
X376319Y190225D01*
X375898Y190124D01*
X375498Y189958D01*
X375129Y189732D01*
X374799Y189451D01*
X374518Y189121D01*
X374292Y188752D01*
X374127Y188353D01*
X374025Y187932D01*
X373992Y187500D01*
Y186260D01*
X372864D01*
X372275Y186221D01*
X371697Y186106D01*
X371138Y185916D01*
X370609Y185655D01*
X370119Y185328D01*
X369675Y184939D01*
X357486Y172750D01*
X352000D01*
Y159750D01*
X362000D01*
Y164508D01*
X374732Y177240D01*
X381000D01*
X381018Y177241D01*
X389250D01*
X389682Y177276D01*
X390102Y177376D01*
X390502Y177542D01*
X390800Y177725D01*
X391176Y177637D01*
X392089Y177246D01*
X392300Y177054D01*
Y173500D01*
X411300D01*
Y192500D01*
D02*
G37*
G36*
X336250Y215259D02*
X323750D01*
X323318Y215225D01*
X322898Y215124D01*
X322498Y214958D01*
X322129Y214732D01*
X321800Y214451D01*
X321518Y214121D01*
X321292Y213752D01*
X321127Y213353D01*
X321026Y212932D01*
X320992Y212500D01*
Y205000D01*
X321026Y204569D01*
X321127Y204148D01*
X321292Y203748D01*
X321518Y203379D01*
X321800Y203050D01*
X322129Y202768D01*
X322498Y202542D01*
X322898Y202376D01*
X323318Y202276D01*
X323750Y202241D01*
X336250D01*
X336682Y202276D01*
X337102Y202376D01*
X337502Y202542D01*
X337871Y202768D01*
X337991Y202871D01*
X338778Y202693D01*
X339492Y202251D01*
Y200000D01*
X339525Y199569D01*
X339627Y199148D01*
X339792Y198748D01*
X340018Y198379D01*
X340299Y198049D01*
X340629Y197768D01*
X340998Y197542D01*
X341280Y197425D01*
X342500Y196750D01*
Y183750D01*
X352500D01*
Y196750D01*
X352010D01*
Y198424D01*
X352208Y198748D01*
X352374Y199148D01*
X352475Y199569D01*
X352509Y200000D01*
Y212500D01*
X352475Y212931D01*
X352374Y213352D01*
X352208Y213752D01*
X351982Y214121D01*
X351701Y214450D01*
X351371Y214732D01*
X351002Y214958D01*
X350602Y215124D01*
X350182Y215224D01*
X349750Y215259D01*
X342250D01*
X341819Y215224D01*
X341398Y215124D01*
X340998Y214958D01*
X340629Y214732D01*
X340299Y214450D01*
X340126Y214248D01*
X339807Y214136D01*
X339617Y214121D01*
X338883Y214121D01*
X338693Y214136D01*
X338374Y214248D01*
X338200Y214451D01*
X337871Y214732D01*
X337502Y214958D01*
X337102Y215124D01*
X336682Y215225D01*
X336250Y215259D01*
D02*
G37*
G36*
X436700Y160250D02*
X417700D01*
Y141250D01*
X436700D01*
Y160250D01*
D02*
G37*
G36*
X389250Y169258D02*
X376750D01*
X376319Y169225D01*
X375898Y169123D01*
X375498Y168958D01*
X375129Y168732D01*
X374799Y168451D01*
X374518Y168121D01*
X374292Y167752D01*
X374127Y167352D01*
X374025Y166931D01*
X373992Y166500D01*
Y159000D01*
X374025Y158568D01*
X374127Y158148D01*
X374292Y157748D01*
X374518Y157379D01*
X374799Y157050D01*
X375129Y156768D01*
X375498Y156542D01*
X375898Y156376D01*
X376319Y156276D01*
X376750Y156242D01*
X380305D01*
X390398Y146148D01*
X390872Y145719D01*
X391385Y145339D01*
X391932Y145011D01*
X392510Y144738D01*
X393111Y144522D01*
X393730Y144367D01*
X394362Y144274D01*
X394872Y144248D01*
X395076Y144026D01*
X395688Y143466D01*
X396346Y142961D01*
X397046Y142515D01*
X397781Y142132D01*
X398548Y141814D01*
X399339Y141565D01*
X400149Y141385D01*
X400971Y141277D01*
X401800Y141241D01*
X402629Y141277D01*
X403451Y141385D01*
X404261Y141565D01*
X405052Y141814D01*
X405819Y142132D01*
X406554Y142515D01*
X407254Y142961D01*
X407912Y143466D01*
X408524Y144026D01*
X409084Y144638D01*
X409589Y145296D01*
X410035Y145996D01*
X410418Y146731D01*
X410736Y147498D01*
X410985Y148289D01*
X411165Y149099D01*
X411273Y149921D01*
X411309Y150750D01*
X411273Y151579D01*
X411165Y152401D01*
X410985Y153211D01*
X410736Y154002D01*
X410418Y154769D01*
X410035Y155505D01*
X409589Y156204D01*
X409084Y156862D01*
X408524Y157474D01*
X407912Y158034D01*
X407254Y158539D01*
X406554Y158985D01*
X405819Y159368D01*
X405052Y159686D01*
X404261Y159935D01*
X403451Y160114D01*
X402629Y160223D01*
X401800Y160259D01*
X400971Y160223D01*
X400149Y160114D01*
X399339Y159935D01*
X398548Y159686D01*
X397781Y159368D01*
X397046Y158985D01*
X396388Y158566D01*
X392009Y162945D01*
Y166500D01*
X391974Y166931D01*
X391874Y167352D01*
X391708Y167752D01*
X391482Y168121D01*
X391200Y168451D01*
X390871Y168732D01*
X390502Y168958D01*
X390102Y169123D01*
X389682Y169225D01*
X389250Y169258D01*
D02*
G37*
G36*
X436700Y128500D02*
X417700D01*
Y109500D01*
X436700D01*
Y128500D01*
D02*
G37*
G36*
X401800Y128509D02*
X400971Y128473D01*
X400149Y128364D01*
X399339Y128185D01*
X398548Y127936D01*
X397781Y127618D01*
X397046Y127235D01*
X396346Y126789D01*
X395688Y126284D01*
X395076Y125724D01*
X394516Y125112D01*
X394011Y124454D01*
X393565Y123755D01*
X393182Y123019D01*
X392864Y122252D01*
X392615Y121461D01*
X392435Y120651D01*
X392327Y119829D01*
X392291Y119000D01*
X392327Y118171D01*
X392435Y117349D01*
X392615Y116539D01*
X392864Y115748D01*
X393182Y114981D01*
X393565Y114246D01*
X394011Y113546D01*
X394516Y112888D01*
X395076Y112276D01*
X395688Y111716D01*
X396346Y111211D01*
X397046Y110765D01*
X397781Y110382D01*
X398548Y110064D01*
X399339Y109815D01*
X400149Y109635D01*
X400971Y109527D01*
X401800Y109491D01*
X402629Y109527D01*
X403451Y109635D01*
X404261Y109815D01*
X405052Y110064D01*
X405819Y110382D01*
X406554Y110765D01*
X407254Y111211D01*
X407912Y111716D01*
X408524Y112276D01*
X409084Y112888D01*
X409589Y113546D01*
X410035Y114246D01*
X410418Y114981D01*
X410736Y115748D01*
X410985Y116539D01*
X411165Y117349D01*
X411273Y118171D01*
X411309Y119000D01*
X411273Y119829D01*
X411165Y120651D01*
X410985Y121461D01*
X410736Y122252D01*
X410418Y123019D01*
X410035Y123755D01*
X409589Y124454D01*
X409084Y125112D01*
X408524Y125724D01*
X407912Y126284D01*
X407254Y126789D01*
X406554Y127235D01*
X405819Y127618D01*
X405052Y127936D01*
X404261Y128185D01*
X403451Y128364D01*
X402629Y128473D01*
X401800Y128509D01*
D02*
G37*
G36*
X304750Y99510D02*
X304161Y99471D01*
X303583Y99356D01*
X303024Y99166D01*
X302495Y98905D01*
X302005Y98578D01*
X301561Y98189D01*
X301172Y97745D01*
X300845Y97255D01*
X300584Y96726D01*
X300394Y96167D01*
X300279Y95589D01*
X300240Y95000D01*
Y90000D01*
X300279Y89411D01*
X300394Y88833D01*
X300584Y88274D01*
X300845Y87745D01*
X301172Y87255D01*
X301561Y86811D01*
X302005Y86422D01*
X302495Y86095D01*
X303024Y85834D01*
X303583Y85644D01*
X304161Y85529D01*
X304750Y85490D01*
X305339Y85529D01*
X305917Y85644D01*
X306476Y85834D01*
X307005Y86095D01*
X307495Y86422D01*
X307939Y86811D01*
X308328Y87255D01*
X308655Y87745D01*
X308916Y88274D01*
X309106Y88833D01*
X309221Y89411D01*
X309260Y90000D01*
Y95000D01*
X309221Y95589D01*
X309106Y96167D01*
X308916Y96726D01*
X308655Y97255D01*
X308328Y97745D01*
X307939Y98189D01*
X307495Y98578D01*
X307005Y98905D01*
X306476Y99166D01*
X305917Y99356D01*
X305339Y99471D01*
X304750Y99510D01*
D02*
G37*
%LPD*%
D10*
X167000Y12250D02*
D03*
X197500D02*
D03*
X91000Y17500D02*
D03*
X121500D02*
D03*
X221000Y250250D02*
D03*
X190500D02*
D03*
X140000Y211250D02*
D03*
X170500D02*
D03*
X96000Y84000D02*
D03*
X65500D02*
D03*
X198750Y106750D02*
D03*
X168250D02*
D03*
X198750Y127500D02*
D03*
X168250D02*
D03*
X22000Y183750D02*
D03*
X52500D02*
D03*
X104250Y259250D02*
D03*
X73750D02*
D03*
X123500Y236750D02*
D03*
X93000D02*
D03*
D11*
X198750Y32000D02*
D03*
X177750D02*
D03*
X367000Y206250D02*
D03*
X346000D02*
D03*
X244750Y224250D02*
D03*
X265750D02*
D03*
X244750Y206250D02*
D03*
X265750D02*
D03*
X244750Y242500D02*
D03*
X265750D02*
D03*
X244750Y188000D02*
D03*
X265750D02*
D03*
X244750Y169500D02*
D03*
X265750D02*
D03*
X244750Y151000D02*
D03*
X265750D02*
D03*
X110500Y50500D02*
D03*
X131500D02*
D03*
X7250Y164250D02*
D03*
X28250D02*
D03*
X7250Y81250D02*
D03*
X28250D02*
D03*
X7250Y99750D02*
D03*
X28250D02*
D03*
X125250Y216250D02*
D03*
X104250D02*
D03*
D14*
X288250Y58750D02*
D03*
Y79750D02*
D03*
X330000Y208750D02*
D03*
Y187750D02*
D03*
X383000Y183750D02*
D03*
Y162750D02*
D03*
X131750Y87250D02*
D03*
Y66250D02*
D03*
X113000Y87500D02*
D03*
Y66500D02*
D03*
X139000Y241750D02*
D03*
Y262750D02*
D03*
X157750Y241750D02*
D03*
Y262750D02*
D03*
D17*
X330000Y173250D02*
D03*
Y142750D02*
D03*
X341250Y90250D02*
D03*
Y59750D02*
D03*
X93500Y66000D02*
D03*
Y35500D02*
D03*
X188250Y86250D02*
D03*
Y55750D02*
D03*
X31250Y147250D02*
D03*
Y116750D02*
D03*
X10750Y147250D02*
D03*
Y116750D02*
D03*
D22*
X214250Y35100D02*
X237400D01*
X219500Y9250D02*
Y13407D01*
X230632Y83382D02*
X232015Y82000D01*
X230632Y83382D02*
Y83382D01*
X135500Y100000D02*
X165500D01*
X259265Y91000D02*
X269000Y100735D01*
X257664Y7750D02*
X258800Y8886D01*
X171250Y22500D02*
X175750Y27000D01*
X171250Y16500D02*
Y22500D01*
X167000Y12250D02*
X171250Y16500D01*
X206600Y22400D02*
X214250D01*
X201750Y27250D02*
X206600Y22400D01*
X201750Y27250D02*
Y28750D01*
X214250Y22400D02*
X218100D01*
X225093Y19000D02*
X234000D01*
X219500Y13407D02*
X225093Y19000D01*
X234000D02*
X243750Y28750D01*
X237400Y35100D02*
X243750Y28750D01*
X121010Y95500D02*
X129260Y87250D01*
X117000Y95500D02*
X121010D01*
X131750Y87250D02*
X143750Y75250D01*
X158040D01*
X366500Y190250D02*
X367000Y190750D01*
Y206250D01*
X295750Y248500D02*
X297500D01*
X311500Y234500D01*
X50589Y78911D02*
Y82000D01*
Y78911D02*
X51000Y78500D01*
X134750Y63250D02*
X151500D01*
X69500Y90250D02*
X75250Y96000D01*
X92364D01*
X96500Y84250D02*
X100500Y88250D01*
Y106250D01*
X65750Y176000D02*
X70500D01*
X135500Y206750D02*
X140000Y211250D01*
X135500Y190750D02*
Y206750D01*
X131750Y66250D02*
X134750Y63250D01*
X167500Y85250D02*
X184250D01*
X167500Y84710D02*
Y85250D01*
X158040Y75250D02*
X167500Y84710D01*
X129260Y87250D02*
X131750D01*
X115500Y97000D02*
Y106250D01*
Y97000D02*
X117000Y95500D01*
X166750Y121000D02*
X168250Y119500D01*
X110500Y90500D02*
X113000Y88000D01*
X110500Y90500D02*
Y106250D01*
X56000Y178500D02*
X58500Y176000D01*
X150250Y121000D02*
X166750D01*
X95500Y99136D02*
Y106250D01*
X92364Y96000D02*
X95500Y99136D01*
X184250Y85250D02*
X185750Y83750D01*
X73000Y216331D02*
Y220250D01*
X79250Y226500D01*
X52500Y183750D02*
X57000Y188250D01*
Y200331D01*
X73000Y216331D01*
X58500Y176000D02*
X65750D01*
X150250Y146000D02*
X152250D01*
X224250Y77000D02*
X230632Y83382D01*
X232015Y82000D02*
X236985D01*
X240511Y85526D01*
Y88389D01*
X243122Y91000D01*
X259265D01*
X269000Y100735D02*
Y144604D01*
X269250Y144853D01*
Y149750D01*
X135500Y100000D02*
Y106250D01*
X165500Y100000D02*
X168250Y102750D01*
X50589Y82000D02*
X51000D01*
D23*
X119756Y241244D02*
X124250Y236750D01*
X87254Y255746D02*
X95500Y247500D01*
X87254Y255746D02*
Y259249D01*
X95500Y247500D02*
X99979D01*
X152000Y260250D02*
X154500D01*
X147250Y255500D02*
X152000Y260250D01*
X118925Y255500D02*
X147250D01*
X174009Y182008D02*
Y193246D01*
X171750Y179750D02*
X174009Y182008D01*
X38500Y135750D02*
X42000Y139250D01*
X225729Y238000D02*
X229250Y241521D01*
X219893Y238000D02*
X225729D01*
X219144Y237250D02*
X219893Y238000D01*
X142947Y179750D02*
X171750D01*
X151000Y176750D02*
X173007D01*
X150250Y176000D02*
X151000Y176750D01*
X173007D02*
X181294Y185037D01*
X140697Y177500D02*
X142947Y179750D01*
X200250Y155000D02*
Y177000D01*
X241000Y235750D02*
X244750D01*
X227800Y229750D02*
X235000D01*
X199250Y197500D02*
Y197769D01*
X191759Y190009D02*
X199250Y197500D01*
X191759Y185071D02*
Y190009D01*
X199250Y197769D02*
X200750Y199269D01*
X225225Y205500D02*
X237225Y217500D01*
X199750Y205500D02*
X225225D01*
X189700Y215550D02*
X199750Y205500D01*
X152507Y219761D02*
X162032D01*
X165521Y223250D02*
X182700D01*
X162032Y219761D02*
X165521Y223250D01*
X151140Y227500D02*
X187250D01*
X191509Y206260D02*
Y206266D01*
X184450Y213325D02*
X191509Y206266D01*
X184450Y213325D02*
Y221500D01*
X182700Y223250D02*
X184450Y221500D01*
X187250Y227500D02*
X189700Y225050D01*
X170250Y198500D02*
X190756D01*
X162500Y190750D02*
X170250Y198500D01*
X174009Y193246D02*
X175004D01*
X187500Y171325D02*
Y180812D01*
X138500Y157183D02*
Y169576D01*
X138257Y156940D02*
X138500Y157183D01*
X317015Y102766D02*
X318500Y104250D01*
X188500Y135250D02*
X189000Y134750D01*
X186283Y135250D02*
X188500D01*
X181450Y140083D02*
X186283Y135250D01*
X181450Y140083D02*
Y142300D01*
X184450Y141325D02*
X187525Y138250D01*
X191875D01*
X184450Y141325D02*
Y145800D01*
X189000Y115000D02*
Y134750D01*
X177750Y146000D02*
X181450Y142300D01*
X152250Y146000D02*
X177750D01*
X174250Y156000D02*
X184450Y145800D01*
X150250Y156000D02*
X174250D01*
X268013Y35238D02*
X273089D01*
X140000Y25250D02*
X151250Y36500D01*
X124750Y25250D02*
X140000D01*
X244750Y203500D02*
Y206250D01*
X121500Y17500D02*
Y22000D01*
X124750Y25250D01*
X189750Y70000D02*
X196250D01*
X273100Y35250D02*
X273250Y35100D01*
X73750Y126750D02*
X83500Y136500D01*
X66500Y126750D02*
X73750D01*
X65750Y126000D02*
X66500Y126750D01*
X83500Y136500D02*
X96250D01*
X98744Y152244D02*
X101250Y154750D01*
X90759Y152244D02*
X98744D01*
X73765Y135250D02*
X90759Y152244D01*
X74507Y131750D02*
X92001Y149244D01*
X106505D01*
X85500Y118000D02*
X93993Y126493D01*
X90500Y118757D02*
X95236Y123493D01*
X107418Y130993D02*
X107505D01*
X102917Y126493D02*
X107418Y130993D01*
X107505Y130504D02*
Y130993D01*
X107500Y130498D02*
X107505Y130504D01*
X93993Y126493D02*
X102917D01*
X95236Y123493D02*
X113756D01*
X273250Y22400D02*
X283600D01*
X90500Y106250D02*
Y118757D01*
X85500Y106250D02*
Y118000D01*
X65750Y151000D02*
X71803D01*
X66500Y135250D02*
X73765D01*
X66500Y131750D02*
X74507D01*
X65750Y131000D02*
X66500Y131750D01*
X65750Y136000D02*
X66500Y135250D01*
X119000Y174250D02*
Y177750D01*
X116254Y180496D02*
X119000Y177750D01*
X108746Y180496D02*
X116254D01*
X100500Y184500D02*
X110750Y174250D01*
X90755Y174495D02*
X102755D01*
X105500Y183743D02*
X108746Y180496D01*
X105500Y183743D02*
Y190750D01*
X100500Y184500D02*
Y190750D01*
X85500Y179750D02*
X90755Y174495D01*
X222500Y138250D02*
X227800Y143550D01*
X219250Y138250D02*
X222500D01*
X219250Y138250D02*
X219250Y138250D01*
X227800Y143550D02*
Y149500D01*
X75250Y165000D02*
X77500Y167250D01*
X75250Y154447D02*
Y165000D01*
X71803Y151000D02*
X75250Y154447D01*
X35950Y171500D02*
X65250D01*
X33450Y174000D02*
X35950Y171500D01*
X29500Y174000D02*
X33450D01*
X26500Y177000D02*
X29500Y174000D01*
X25250Y177000D02*
X26500D01*
X65250Y171500D02*
X65750Y171000D01*
X191875Y138250D02*
X219250D01*
X191875Y138250D02*
X191875Y138250D01*
X206257Y187250D02*
X210007Y191000D01*
X202000Y187250D02*
X206257D01*
X202000Y183250D02*
Y187250D01*
X197150Y178400D02*
X202000Y183250D01*
X197150Y162150D02*
Y178400D01*
X200250Y177000D02*
X211250Y188000D01*
X189700Y154700D02*
X197150Y162150D01*
X189700Y149500D02*
Y154700D01*
Y149500D02*
X192000Y151800D01*
X243250Y149500D02*
X244750Y151000D01*
X227800Y149500D02*
X243250D01*
X243750Y207250D02*
X244750Y206250D01*
X189700Y215550D02*
Y221500D01*
X78750Y106250D02*
X80500D01*
X65750Y105750D02*
Y121000D01*
Y105750D02*
X68750Y102750D01*
X47252Y149244D02*
X54008Y156000D01*
X65750D01*
X38611Y102889D02*
X45000Y109278D01*
X37752Y103242D02*
X38258D01*
X38611Y102889D01*
X39979Y108500D02*
X42000Y110521D01*
X34250Y108500D02*
X39979D01*
X42501Y135493D02*
X46328D01*
X39757Y132750D02*
X42501Y135493D01*
X46328D02*
X48578Y137743D01*
X32575Y132750D02*
X39757D01*
X11500Y168500D02*
Y190229D01*
X7250Y164250D02*
X11500Y168500D01*
X42000Y110521D02*
Y123993D01*
X31333Y135750D02*
X38500D01*
X42000Y139250D02*
Y153479D01*
X48578Y137743D02*
X52927D01*
X56002Y134668D01*
Y130319D02*
Y134668D01*
X52927Y127243D02*
X56002Y130319D01*
X49493Y127243D02*
X52927D01*
X45000Y122750D02*
X49493Y127243D01*
X45000Y109278D02*
Y122750D01*
X35500Y88500D02*
Y99778D01*
X28250Y81250D02*
X35500Y88500D01*
X7250Y81250D02*
Y84500D01*
X39979Y155500D02*
X42000Y153479D01*
X34000Y155500D02*
X39979D01*
X28250Y161250D02*
X34000Y155500D01*
X28250Y161250D02*
Y164250D01*
X21326Y132743D02*
X28326D01*
X16827Y128243D02*
X21326Y132743D01*
X16001Y128243D02*
X16827D01*
X23501Y127493D02*
X27318D01*
X28326Y132743D02*
X31333Y135750D01*
X27318Y127493D02*
X32575Y132750D01*
X28250Y102500D02*
X34250Y108500D01*
X28250Y99750D02*
Y102500D01*
X31250Y116750D02*
X34750Y120250D01*
Y127500D01*
X7250Y99750D02*
Y113250D01*
X80500Y190750D02*
Y197000D01*
X99979Y247500D02*
X102000Y245479D01*
X85500Y179750D02*
Y190750D01*
X102000Y245479D02*
X108904D01*
X118925Y255500D01*
X119756Y241244D02*
Y248499D01*
X106250Y257250D02*
X112250D01*
X104250Y259250D02*
X106250Y257250D01*
X90500Y190750D02*
Y215243D01*
X92002Y216500D02*
X92004Y216497D01*
X89243Y216500D02*
X90500Y215243D01*
X82000Y216500D02*
X89243D01*
X92002D01*
X91255Y223748D02*
X96048D01*
X92004Y216497D02*
X94257Y218750D01*
X102000Y230000D02*
Y245479D01*
X96048Y223748D02*
X98300Y226000D01*
X102000Y230000D02*
X103000Y229000D01*
X95500Y190750D02*
Y196803D01*
X99197Y200500D01*
X98300Y226000D02*
X109450D01*
X99197Y200500D02*
X115500D01*
X118000Y208427D02*
X118006Y208421D01*
Y203006D02*
Y208421D01*
X115500Y200500D02*
X118006Y203006D01*
X109450Y226000D02*
X112755Y222694D01*
X112752Y206250D02*
X112755Y206247D01*
Y222694D01*
X110750Y229000D02*
X118000Y221750D01*
X103000Y229000D02*
X110750D01*
X118000Y208427D02*
Y221750D01*
X65250Y160500D02*
X65750Y161000D01*
X28250Y164250D02*
X32000Y160500D01*
X65250D01*
X49500Y166000D02*
X65750D01*
X49250Y166250D02*
X49500Y166000D01*
X232250Y191000D02*
X244750Y203500D01*
X211250Y188000D02*
X244750D01*
X210007Y191000D02*
X232250D01*
X150250Y136000D02*
X159771D01*
X162021Y138250D01*
X174479D01*
X176500Y136229D01*
Y123000D02*
Y136229D01*
Y123000D02*
X176507Y122993D01*
X178759Y121759D02*
Y122993D01*
X176507D02*
X178759D01*
X188742Y114742D02*
X189000Y115000D01*
X240270Y98500D02*
X240520Y98250D01*
X253500D01*
X234250Y92480D02*
X234261Y92491D01*
X240270Y98500D01*
X221511Y92741D02*
X221761Y92491D01*
X234261D01*
X318500Y87825D02*
Y104250D01*
X374518Y78741D02*
X375241D01*
X325325Y81000D02*
X370991D01*
X373250Y78741D01*
X374518D01*
X318500Y87825D02*
X325325Y81000D01*
X181000Y106500D02*
X182021D01*
X192521Y96000D01*
X204979D01*
X207000Y98021D01*
X263575Y261750D02*
X267925D01*
X273000Y256675D01*
X237225Y217500D02*
X243000D01*
X225849Y217500D02*
Y219549D01*
X186509Y187246D02*
Y187741D01*
Y187241D02*
Y187246D01*
X269167Y264750D02*
X276000Y257917D01*
X236750Y264750D02*
X269167D01*
X229250Y257250D02*
X236750Y264750D01*
X229250Y241521D02*
Y257250D01*
X308661Y200250D02*
X312000Y196911D01*
Y152750D02*
Y196911D01*
X273000Y206500D02*
X279250Y200250D01*
X308661D01*
X276000Y207743D02*
X280493Y203250D01*
X309904D01*
X315000Y198154D01*
Y195250D02*
Y198154D01*
Y195250D02*
X318250Y192000D01*
X325750D01*
X330000Y187750D01*
X207000Y98021D02*
Y106250D01*
X212500Y111750D01*
X210000Y96778D02*
Y105007D01*
X213743Y108750D01*
X257000D01*
X276000Y207743D02*
Y257917D01*
X273000Y206500D02*
Y256675D01*
X258500Y256675D02*
X263575Y261750D01*
X258500Y143300D02*
X265250Y136550D01*
X212500Y111750D02*
X252575D01*
X254825Y114000D01*
X261750D02*
X265250Y117500D01*
X254825Y114000D02*
X261750D01*
X265250Y117500D02*
Y136550D01*
X258500Y143300D02*
Y256675D01*
X215100Y155850D02*
X222000Y162750D01*
X242750D01*
X244750Y164750D01*
Y169500D01*
X150250Y166000D02*
X151000Y166750D01*
X178243Y173500D02*
X182250D01*
X151000Y166750D02*
X171493D01*
X178243Y173500D01*
X150250Y171000D02*
X150750Y170500D01*
X171000D01*
X244750Y235750D02*
Y242500D01*
X227800Y221500D02*
Y229750D01*
X235000D02*
X241000Y235750D01*
X219144Y237250D02*
X219250Y237143D01*
X188009Y114742D02*
X188742D01*
X317015Y102766D02*
Y104492D01*
X317000Y102750D02*
X317015Y102766D01*
X69253Y198246D02*
X79254D01*
X80500Y197000D01*
X225849Y219549D02*
X227800Y221500D01*
X184425Y168250D02*
X187500Y171325D01*
X150250Y161000D02*
X150750Y161500D01*
X177235Y168250D02*
X184425D01*
X150750Y161500D02*
X170485D01*
X177235Y168250D01*
X187500Y180812D02*
X191759Y185071D01*
X190756Y198500D02*
X191009Y198246D01*
X189700Y221500D02*
Y225050D01*
X150000Y131250D02*
X150250Y131000D01*
X137250Y130750D02*
X149500D01*
X196250Y70000D02*
X204750Y78500D01*
Y91528D01*
X210000Y96778D01*
X11500Y190229D02*
X18021Y196750D01*
X41750D01*
X48500Y190000D01*
X125500Y181250D02*
Y190750D01*
Y181250D02*
X129250Y177500D01*
X140697D01*
X138257Y156940D02*
X144197Y151000D01*
X150250D01*
X181259Y192759D02*
X181750Y193250D01*
X181259Y185071D02*
X181294Y185037D01*
Y185037D02*
Y185037D01*
X181259Y185071D02*
Y192759D01*
X42000Y123993D02*
X50627Y132619D01*
X273089Y35238D02*
X273100Y35250D01*
X215100Y154750D02*
Y155850D01*
X171000Y170500D02*
X187375Y186875D01*
X186509Y187741D02*
X187375Y186875D01*
X35500Y99778D02*
X38611Y102889D01*
X149500Y130750D02*
X150000Y131250D01*
X94257Y218750D02*
X104250D01*
D25*
X140000Y240500D02*
X141250Y241750D01*
X91500Y234500D02*
X93750Y236750D01*
X125250Y217000D02*
X134250D01*
X89500Y236750D02*
X93000D01*
X93750D01*
X141250Y241750D02*
X157750D01*
X160000D01*
X90248Y231248D02*
X91500Y232500D01*
X88148Y231248D02*
X90248D01*
X83755Y226854D02*
X88148Y231248D01*
X83755Y226750D02*
Y226854D01*
X83750Y226750D02*
X83755D01*
X91500Y232500D02*
Y234500D01*
X140000Y211250D02*
Y240500D01*
X288250Y79750D02*
X291500D01*
X304750Y66500D01*
X323250Y56250D02*
X323750Y56750D01*
Y66500D01*
X319250Y159000D02*
Y162000D01*
Y159000D02*
X325000Y153250D01*
X343000Y141569D02*
Y149911D01*
X339661Y153250D02*
X343000Y149911D01*
X325000Y153250D02*
X339661D01*
X343000Y141569D02*
X354000Y130569D01*
Y111000D02*
Y130569D01*
Y111000D02*
X370750Y94250D01*
X275000Y160618D02*
X277250Y162868D01*
X275250Y142368D02*
Y159882D01*
X275000Y98250D02*
Y142118D01*
X277250Y162868D02*
Y166500D01*
X275000Y159882D02*
Y160618D01*
Y159882D02*
X275250D01*
X275000Y142118D02*
X275250Y142368D01*
X248750Y85000D02*
X261750D01*
X275000Y98250D01*
X284500Y191000D02*
X287000D01*
X290778D01*
X287000D02*
X287246Y191246D01*
X291014Y191236D02*
X294250Y188000D01*
X227886Y47800D02*
X229836Y49750D01*
X257664D02*
X260300Y47114D01*
X214250Y47800D02*
X227886D01*
X229836Y49750D02*
X257664D01*
X260300Y10386D02*
Y47114D01*
X259614Y9700D02*
X260300Y10386D01*
X226750Y10836D02*
Y12000D01*
Y10836D02*
X229836Y7750D01*
X197911Y45250D02*
X201250Y48589D01*
X145750Y45250D02*
X197911D01*
X294250Y188000D02*
X295750Y186500D01*
X330000Y208750D02*
X343500D01*
X346000Y206250D01*
X347500Y204750D01*
Y190250D02*
Y204750D01*
X381000Y181750D02*
X383000Y183750D01*
X372864Y181750D02*
X381000D01*
X357364Y166250D02*
X372864Y181750D01*
X357000Y166250D02*
X357364D01*
X265750Y242500D02*
X265750Y242500D01*
Y256500D01*
X259614Y9700D02*
X273250D01*
X229836Y7750D02*
X257664D01*
X370750Y56250D02*
X400750Y86250D01*
X176000Y239750D02*
X179500D01*
X48000Y179250D02*
X52500Y183750D01*
X40750Y179250D02*
X48000D01*
X265750Y206250D02*
Y224250D01*
Y188000D02*
Y206250D01*
Y169500D02*
Y188000D01*
Y151000D02*
Y169500D01*
X224250Y77000D02*
X232250Y69000D01*
X248750D01*
X139000Y38500D02*
X145750Y45250D01*
X122500Y38500D02*
X139000D01*
X110500Y50500D02*
X122500Y38500D01*
X193000Y244750D02*
X202400Y235350D01*
X185000Y255750D02*
X190500Y250250D01*
X176000Y255750D02*
X185000D01*
X160000Y241750D02*
X162000Y239750D01*
X176000D01*
X76750Y52750D02*
X108250D01*
X65500Y80000D02*
Y84000D01*
Y80000D02*
X76750Y68750D01*
X73750Y249750D02*
X79250Y244250D01*
X134250Y217000D02*
X140000Y211250D01*
X221250Y77000D02*
X224250D01*
X210000Y88250D02*
X221250Y77000D01*
X79250Y226500D02*
X83500D01*
X83750Y226750D01*
X79250Y226500D02*
X89500Y236750D01*
X369250Y86750D02*
X369447Y86553D01*
X371393Y88500D01*
X377607D01*
X379857Y86250D01*
X400750D01*
X265750Y224250D02*
Y242500D01*
X332000Y108870D02*
Y109000D01*
X323750Y92500D02*
Y100620D01*
X332000Y108870D01*
X202400Y221500D02*
Y235350D01*
X201250Y48589D02*
Y67575D01*
X202675Y69000D01*
X213500D01*
X293250Y166500D02*
Y187000D01*
X294250Y188000D01*
X290778Y191000D02*
X291014Y191236D01*
X73750Y249750D02*
Y259250D01*
X273475Y48025D02*
X281700Y56250D01*
X323250D01*
X370750D01*
D26*
X104250Y256750D02*
Y259250D01*
X333500Y137634D02*
X342192Y128942D01*
X337750Y124500D02*
X342192Y128942D01*
X333500Y142250D02*
Y142750D01*
X333500Y142750D02*
X333500Y142750D01*
X330000Y142750D02*
X333500D01*
X383000Y162750D02*
X395000Y150750D01*
X401800D01*
X93500Y66000D02*
X93750Y66250D01*
X168250Y107500D02*
Y119500D01*
X93750Y66250D02*
X131750D01*
X333500Y137634D02*
Y142250D01*
D27*
X334256Y141494D01*
X333250Y142500D02*
X333500Y142250D01*
X334256Y141494D02*
X335016D01*
X330000Y142750D02*
X331750Y141000D01*
X275250Y142368D02*
X275632Y142750D01*
X330000D01*
X273250Y9700D02*
X287200D01*
X287500Y10000D01*
X331750Y141000D02*
X333250Y142500D01*
D29*
X127750Y128750D02*
X127756Y128744D01*
X115750Y116750D02*
X127750Y128750D01*
X105500Y116750D02*
X115750D01*
X127756Y128744D02*
Y166758D01*
X105500Y116750D02*
X105500Y116750D01*
Y106250D02*
Y116750D01*
X131500Y50500D02*
Y54250D01*
D30*
X40000Y40000D02*
D03*
Y230000D02*
D03*
X404000D02*
D03*
Y40000D02*
D03*
D31*
X427450Y87000D02*
D03*
X401800Y150750D02*
D03*
Y119000D02*
D03*
X356750Y225750D02*
D03*
X331350D02*
D03*
Y251150D02*
D03*
X427200Y183000D02*
D03*
D32*
X402050Y87000D02*
D03*
X427200Y150750D02*
D03*
Y119000D02*
D03*
X356750Y251150D02*
D03*
X401800Y183000D02*
D03*
D33*
X330500Y46500D02*
D03*
X286500D02*
D03*
D34*
X226000Y35000D02*
D03*
X151000Y185500D02*
D03*
X199250Y197769D02*
D03*
X153507Y220011D02*
D03*
X151140Y227500D02*
D03*
X179009Y217761D02*
D03*
X191509Y206260D02*
D03*
X174009Y193246D02*
D03*
X138500Y169576D02*
D03*
X127756Y166758D02*
D03*
X435000Y200001D02*
D03*
X430000Y170001D02*
D03*
X435000Y100001D02*
D03*
X430000Y70001D02*
D03*
X435000Y60001D02*
D03*
X425000Y200001D02*
D03*
X420000Y170001D02*
D03*
X425000Y100001D02*
D03*
X410000Y130001D02*
D03*
X415000Y100001D02*
D03*
Y80001D02*
D03*
X405000Y100001D02*
D03*
X395000Y140001D02*
D03*
X390000Y130001D02*
D03*
X395000Y100001D02*
D03*
X385000Y260001D02*
D03*
Y200001D02*
D03*
X380000Y10000D02*
D03*
X375000Y260001D02*
D03*
X370000Y250001D02*
D03*
X375000Y20001D02*
D03*
X365000Y40001D02*
D03*
X355000D02*
D03*
X345000Y220001D02*
D03*
Y40001D02*
D03*
X330000Y30001D02*
D03*
Y10000D02*
D03*
X320000Y30001D02*
D03*
X325000Y20001D02*
D03*
X320000Y10000D02*
D03*
X315000Y40001D02*
D03*
X310000Y30001D02*
D03*
X315000Y20001D02*
D03*
X310000Y10000D02*
D03*
X300000Y150001D02*
D03*
X305000Y40001D02*
D03*
Y20001D02*
D03*
X300000Y10000D02*
D03*
X285000Y160001D02*
D03*
X235000Y60001D02*
D03*
X225000D02*
D03*
X215000D02*
D03*
X185000Y20001D02*
D03*
X160000Y30001D02*
D03*
X155000Y20001D02*
D03*
X120000Y130001D02*
D03*
X115000Y140001D02*
D03*
X110000Y10000D02*
D03*
X105000Y140001D02*
D03*
Y20001D02*
D03*
X80000Y30001D02*
D03*
Y10000D02*
D03*
X75000Y40001D02*
D03*
Y20001D02*
D03*
X70000Y10000D02*
D03*
X60000D02*
D03*
X10000Y210001D02*
D03*
X257000Y108750D02*
D03*
X335016Y141494D02*
D03*
X319000Y163750D02*
D03*
X284500Y191000D02*
D03*
X268013Y35238D02*
D03*
X218100Y22400D02*
D03*
X226750Y12000D02*
D03*
X198000Y15250D02*
D03*
X151250Y36500D02*
D03*
X121500Y22000D02*
D03*
X189750Y70000D02*
D03*
X274250Y47250D02*
D03*
X311500Y234500D02*
D03*
X265750Y256500D02*
D03*
X287500Y10000D02*
D03*
X96250Y136500D02*
D03*
X106505Y149244D02*
D03*
X101250Y154750D02*
D03*
X179500Y239750D02*
D03*
X202250Y155000D02*
D03*
X107505Y130993D02*
D03*
X113756Y123493D02*
D03*
X105500Y116750D02*
D03*
X283600Y22400D02*
D03*
X119000Y174250D02*
D03*
X110750Y174250D02*
D03*
X102755Y174495D02*
D03*
X215250Y154750D02*
D03*
X77500Y167250D02*
D03*
X40750Y179250D02*
D03*
X202000Y187250D02*
D03*
X96005Y76741D02*
D03*
X50589Y82000D02*
D03*
X78750Y106250D02*
D03*
X68750Y102750D02*
D03*
X131500Y54250D02*
D03*
X37752Y103242D02*
D03*
X73770Y55020D02*
D03*
X7250Y84500D02*
D03*
X47252Y149244D02*
D03*
X50753Y132493D02*
D03*
X16001Y128243D02*
D03*
X23501Y127493D02*
D03*
X34750Y127500D02*
D03*
X36002Y145744D02*
D03*
X15500Y145000D02*
D03*
X6500Y115750D02*
D03*
X74250Y250750D02*
D03*
X87254Y259249D02*
D03*
X137000Y264250D02*
D03*
X119756Y248499D02*
D03*
X112250Y257250D02*
D03*
X210000Y88250D02*
D03*
X171000Y100750D02*
D03*
X88750Y242386D02*
D03*
X82000Y216500D02*
D03*
X91255Y223748D02*
D03*
X112755Y206247D02*
D03*
X49250Y166250D02*
D03*
X178759Y122993D02*
D03*
X253500Y98250D02*
D03*
X221511Y92741D02*
D03*
X374518Y78741D02*
D03*
X181000Y106500D02*
D03*
X312000Y152750D02*
D03*
X225849Y217500D02*
D03*
X181750Y193250D02*
D03*
X182250Y173500D02*
D03*
X186509Y187246D02*
D03*
X162500Y190750D02*
D03*
X283250Y150000D02*
D03*
X151000Y207750D02*
D03*
X159750Y198500D02*
D03*
X169250Y212500D02*
D03*
X219144Y237250D02*
D03*
X188009Y114742D02*
D03*
X216761Y99242D02*
D03*
X317015Y104492D02*
D03*
X69253Y198246D02*
D03*
X191009D02*
D03*
X188250Y55858D02*
D03*
X341250Y90250D02*
D03*
X198750Y106221D02*
D03*
X199250Y130750D02*
D03*
X290000Y126250D02*
D03*
X291000Y255500D02*
D03*
X137250Y141000D02*
D03*
Y130750D02*
D03*
X146500Y109500D02*
D03*
X133000Y120250D02*
D03*
X130500Y77000D02*
D03*
X5500Y176750D02*
D03*
X39250Y189750D02*
D03*
X79000Y177000D02*
D03*
X53000Y98500D02*
D03*
X117750Y153250D02*
D03*
D35*
X290500Y117500D02*
D03*
X338500D02*
D03*
D36*
X370750Y142250D02*
D03*
Y94250D02*
D03*
X224250Y125000D02*
D03*
Y77000D02*
D03*
D37*
X277250Y166500D02*
D03*
X293250D02*
D03*
D38*
X357000Y166250D02*
D03*
X366500Y190250D02*
D03*
X347500D02*
D03*
D39*
X323750Y66500D02*
D03*
X314250D02*
D03*
X304750D02*
D03*
X323750Y92500D02*
D03*
X304750D02*
D03*
D40*
X189700Y221500D02*
D03*
X202400D02*
D03*
X215100D02*
D03*
X227800D02*
D03*
X189700Y149500D02*
D03*
X202400D02*
D03*
X215100D02*
D03*
X227800D02*
D03*
D41*
X295750Y186500D02*
D03*
Y248500D02*
D03*
D42*
X51000Y94500D02*
D03*
Y78500D02*
D03*
X76750Y52750D02*
D03*
Y68750D02*
D03*
X79250Y226500D02*
D03*
Y242500D02*
D03*
X248750Y85000D02*
D03*
Y69000D02*
D03*
X176000Y255750D02*
D03*
Y239750D02*
D03*
D43*
X151500Y63250D02*
D03*
X167500D02*
D03*
Y85250D02*
D03*
X151500D02*
D03*
D44*
X135500Y106250D02*
D03*
X130500D02*
D03*
X125500D02*
D03*
X120500D02*
D03*
X115500D02*
D03*
X110500D02*
D03*
X105500D02*
D03*
X100500D02*
D03*
X95500D02*
D03*
X90500D02*
D03*
X85500D02*
D03*
X80500D02*
D03*
Y190750D02*
D03*
X85500D02*
D03*
X90500D02*
D03*
X95500D02*
D03*
X100500D02*
D03*
X105500D02*
D03*
X110500D02*
D03*
X115500D02*
D03*
X120500D02*
D03*
X125500D02*
D03*
X130500D02*
D03*
X135500D02*
D03*
D45*
X65750Y121000D02*
D03*
Y126000D02*
D03*
Y131000D02*
D03*
Y136000D02*
D03*
Y141000D02*
D03*
Y146000D02*
D03*
Y151000D02*
D03*
Y156000D02*
D03*
Y161000D02*
D03*
Y166000D02*
D03*
Y171000D02*
D03*
Y176000D02*
D03*
X150250D02*
D03*
Y171000D02*
D03*
Y166000D02*
D03*
Y161000D02*
D03*
Y156000D02*
D03*
Y151000D02*
D03*
Y146000D02*
D03*
Y141000D02*
D03*
Y136000D02*
D03*
Y131000D02*
D03*
Y126000D02*
D03*
Y121000D02*
D03*
D46*
X243750Y28750D02*
D03*
D47*
X214250Y9700D02*
D03*
D48*
Y22400D02*
D03*
Y35100D02*
D03*
Y47800D02*
D03*
X273250Y47800D02*
D03*
Y35100D02*
D03*
Y22400D02*
D03*
Y9700D02*
D03*
M02*
