G04 Layer_Color=8388736*
%FSLAX44Y44*%
%MOMM*%
G71*
G01*
G75*
%ADD33C,0.9000*%
G04:AMPARAMS|DCode=51|XSize=1.4032mm|YSize=1.9032mm|CornerRadius=0.2216mm|HoleSize=0mm|Usage=FLASHONLY|Rotation=180.000|XOffset=0mm|YOffset=0mm|HoleType=Round|Shape=RoundedRectangle|*
%AMROUNDEDRECTD51*
21,1,1.4032,1.4600,0,0,180.0*
21,1,0.9600,1.9032,0,0,180.0*
1,1,0.4432,-0.4800,0.7300*
1,1,0.4432,0.4800,0.7300*
1,1,0.4432,0.4800,-0.7300*
1,1,0.4432,-0.4800,-0.7300*
%
%ADD51ROUNDEDRECTD51*%
G04:AMPARAMS|DCode=52|XSize=1.2032mm|YSize=1.7032mm|CornerRadius=0.2266mm|HoleSize=0mm|Usage=FLASHONLY|Rotation=180.000|XOffset=0mm|YOffset=0mm|HoleType=Round|Shape=RoundedRectangle|*
%AMROUNDEDRECTD52*
21,1,1.2032,1.2500,0,0,180.0*
21,1,0.7500,1.7032,0,0,180.0*
1,1,0.4532,-0.3750,0.6250*
1,1,0.4532,0.3750,0.6250*
1,1,0.4532,0.3750,-0.6250*
1,1,0.4532,-0.3750,-0.6250*
%
%ADD52ROUNDEDRECTD52*%
%ADD53R,1.2032X0.9032*%
%ADD54R,0.5532X0.8032*%
G04:AMPARAMS|DCode=55|XSize=1.2032mm|YSize=1.7032mm|CornerRadius=0.2266mm|HoleSize=0mm|Usage=FLASHONLY|Rotation=270.000|XOffset=0mm|YOffset=0mm|HoleType=Round|Shape=RoundedRectangle|*
%AMROUNDEDRECTD55*
21,1,1.2032,1.2500,0,0,270.0*
21,1,0.7500,1.7032,0,0,270.0*
1,1,0.4532,-0.6250,-0.3750*
1,1,0.4532,-0.6250,0.3750*
1,1,0.4532,0.6250,0.3750*
1,1,0.4532,0.6250,-0.3750*
%
%ADD55ROUNDEDRECTD55*%
%ADD56R,3.2032X2.7032*%
%ADD57R,0.7032X3.2032*%
G04:AMPARAMS|DCode=58|XSize=1.4032mm|YSize=1.9032mm|CornerRadius=0.2216mm|HoleSize=0mm|Usage=FLASHONLY|Rotation=90.000|XOffset=0mm|YOffset=0mm|HoleType=Round|Shape=RoundedRectangle|*
%AMROUNDEDRECTD58*
21,1,1.4032,1.4600,0,0,90.0*
21,1,0.9600,1.9032,0,0,90.0*
1,1,0.4432,0.7300,0.4800*
1,1,0.4432,0.7300,-0.4800*
1,1,0.4432,-0.7300,-0.4800*
1,1,0.4432,-0.7300,0.4800*
%
%ADD58ROUNDEDRECTD58*%
%ADD59O,0.4532X1.0032*%
%ADD60O,1.0032X0.4532*%
%ADD61R,2.2032X1.2032*%
%ADD62R,1.2032X2.2032*%
%ADD63C,6.2032*%
%ADD64C,1.8032*%
%ADD65R,1.8032X1.8032*%
D33*
X330500Y46500D02*
D03*
X286500D02*
D03*
D51*
X304000Y165500D02*
D03*
X273500D02*
D03*
X8250Y170500D02*
D03*
X38750D02*
D03*
D52*
X353500Y113000D02*
D03*
X374500D02*
D03*
X279000Y132500D02*
D03*
X300000D02*
D03*
X374500Y166500D02*
D03*
X353500D02*
D03*
X340000D02*
D03*
X319000D02*
D03*
X288500Y218500D02*
D03*
X309500D02*
D03*
X7250Y190250D02*
D03*
X28250D02*
D03*
D53*
X356000Y140000D02*
D03*
X332000Y130500D02*
D03*
Y149500D02*
D03*
X340000Y105750D02*
D03*
X316000Y96250D02*
D03*
Y115250D02*
D03*
X318500Y192500D02*
D03*
X294500Y183000D02*
D03*
Y202000D02*
D03*
X374500Y192250D02*
D03*
X350500Y182750D02*
D03*
Y201750D02*
D03*
D54*
X93750Y263000D02*
D03*
X87250D02*
D03*
X80750D02*
D03*
X74250D02*
D03*
X93750Y248500D02*
D03*
X87250D02*
D03*
X80750D02*
D03*
X74250D02*
D03*
D55*
X281500Y95000D02*
D03*
Y116000D02*
D03*
X300000Y95000D02*
D03*
Y116000D02*
D03*
X316000Y129500D02*
D03*
Y150500D02*
D03*
X256000Y167000D02*
D03*
Y188000D02*
D03*
Y222500D02*
D03*
Y201500D02*
D03*
X257000Y119000D02*
D03*
Y98000D02*
D03*
X256000Y132500D02*
D03*
Y153500D02*
D03*
X62000Y167500D02*
D03*
Y188500D02*
D03*
X372000Y129000D02*
D03*
Y150000D02*
D03*
X291000Y255500D02*
D03*
Y234500D02*
D03*
X334500Y203250D02*
D03*
Y182250D02*
D03*
D56*
X353500Y71500D02*
D03*
Y16500D02*
D03*
X263500D02*
D03*
Y71500D02*
D03*
D57*
X324500D02*
D03*
X316500D02*
D03*
X308500D02*
D03*
X300500D02*
D03*
X292500D02*
D03*
D58*
X61000Y91750D02*
D03*
Y122250D02*
D03*
X10750Y71500D02*
D03*
Y102000D02*
D03*
D59*
X13000Y115750D02*
D03*
X18000D02*
D03*
X23000D02*
D03*
X28000D02*
D03*
X33000D02*
D03*
X38000D02*
D03*
Y154250D02*
D03*
X33000D02*
D03*
X28000D02*
D03*
X23000D02*
D03*
X18000D02*
D03*
X13000D02*
D03*
D60*
X44750Y122500D02*
D03*
Y127500D02*
D03*
Y132500D02*
D03*
Y137500D02*
D03*
Y142500D02*
D03*
Y147500D02*
D03*
X6250D02*
D03*
Y142500D02*
D03*
Y137500D02*
D03*
Y132500D02*
D03*
Y127500D02*
D03*
Y122500D02*
D03*
D61*
X234500Y227000D02*
D03*
Y207000D02*
D03*
Y187000D02*
D03*
Y167000D02*
D03*
Y147000D02*
D03*
Y127000D02*
D03*
Y107000D02*
D03*
Y87000D02*
D03*
X84500D02*
D03*
Y107000D02*
D03*
Y127000D02*
D03*
Y147000D02*
D03*
Y167000D02*
D03*
Y187000D02*
D03*
Y207000D02*
D03*
Y227000D02*
D03*
D62*
X209500Y242000D02*
D03*
X189500D02*
D03*
X169500D02*
D03*
X149500D02*
D03*
X129500D02*
D03*
X109500D02*
D03*
D63*
X40000Y40000D02*
D03*
Y230000D02*
D03*
X404000D02*
D03*
Y40000D02*
D03*
D64*
X427450Y87000D02*
D03*
X401800Y150750D02*
D03*
Y119000D02*
D03*
X356750Y225750D02*
D03*
X331350D02*
D03*
Y251150D02*
D03*
X427200Y183000D02*
D03*
D65*
X402050Y87000D02*
D03*
X427200Y150750D02*
D03*
Y119000D02*
D03*
X356750Y251150D02*
D03*
X401800Y183000D02*
D03*
M02*
