G04 Layer_Color=32896*
%FSLAX44Y44*%
%MOMM*%
G71*
G01*
G75*
%ADD22C,0.3000*%
%ADD23C,0.1500*%
%ADD25C,0.6000*%
%ADD29C,0.2000*%
%ADD50C,0.2500*%
%ADD80C,0.2540*%
D22*
X227596Y9500D02*
G03*
X227596Y9500I-1346J0D01*
G01*
D23*
X319750Y135000D02*
X340250D01*
X319750D02*
Y181000D01*
X340250D01*
Y135000D02*
Y181000D01*
X277750Y135250D02*
X351250D01*
X277750Y99750D02*
Y135250D01*
Y99750D02*
X351250D01*
Y135250D01*
X331000Y52000D02*
X351500D01*
X331000D02*
Y98000D01*
X351500D01*
Y52000D02*
Y98000D01*
X388500Y81500D02*
Y155000D01*
X353000D02*
X388500D01*
X353000Y81500D02*
Y155000D01*
Y81500D02*
X388500D01*
X171000Y22750D02*
Y41250D01*
X205500D01*
Y22750D02*
Y41250D01*
X171000Y22750D02*
X205500D01*
X205250Y2000D02*
Y22500D01*
X159250Y2000D02*
X205250D01*
X159250D02*
Y22500D01*
X205250D01*
X298000Y159750D02*
Y173250D01*
X272500Y159750D02*
X298000D01*
X272500D02*
Y173250D01*
X298000D01*
X279000Y86500D02*
X297500D01*
Y52000D02*
Y86500D01*
X279000Y52000D02*
X297500D01*
X279000D02*
Y86500D01*
X129250Y7250D02*
Y27750D01*
X83250Y7250D02*
X129250D01*
X83250D02*
Y27750D01*
X129250D01*
X339250Y197000D02*
Y215500D01*
X373750D01*
Y197000D02*
Y215500D01*
X339250Y197000D02*
X373750D01*
X320750Y181000D02*
X339250D01*
X320750D02*
Y215500D01*
X339250D01*
Y181000D02*
Y215500D01*
X373750Y189250D02*
Y197000D01*
X340250D02*
X373750D01*
X340250Y159500D02*
Y197000D01*
Y159500D02*
X373750D01*
Y186500D01*
Y189250D01*
Y156000D02*
X392250D01*
X373750D02*
Y190500D01*
X392250D01*
Y156000D02*
Y190500D01*
X297500Y59250D02*
Y74000D01*
Y59250D02*
X331000D01*
Y99750D01*
X297500D02*
X331000D01*
X297500Y78000D02*
Y99750D01*
Y74000D02*
Y78000D01*
X181750Y162500D02*
Y208500D01*
X235750Y162500D02*
Y208500D01*
X181750D02*
X235750D01*
X181750Y162500D02*
X235750D01*
X319000Y173250D02*
Y261750D01*
X272500D02*
X319000D01*
X272500Y173250D02*
Y261750D01*
Y173250D02*
X319000D01*
X272500Y215000D02*
Y233500D01*
X238000Y215000D02*
X272500D01*
X238000D02*
Y233500D01*
X272500D01*
Y197000D02*
Y215500D01*
X238000Y197000D02*
X272500D01*
X238000D02*
Y215500D01*
X272500D01*
Y233250D02*
Y251750D01*
X238000Y233250D02*
X272500D01*
X238000D02*
Y251750D01*
X272500D01*
Y178750D02*
Y197250D01*
X238000Y178750D02*
X272500D01*
X238000D02*
Y197250D01*
X272500D01*
Y160250D02*
Y178750D01*
X238000Y160250D02*
X272500D01*
X238000D02*
Y178750D01*
X272500D01*
Y141750D02*
Y160250D01*
X238000Y141750D02*
X272500D01*
X238000D02*
Y160250D01*
X272500D01*
X182750Y240000D02*
Y260500D01*
X228750D01*
Y240000D02*
Y260500D01*
X182750Y240000D02*
X228750D01*
X44250Y73750D02*
X57750D01*
X44250D02*
Y99250D01*
X57750D01*
Y73750D02*
Y99250D01*
X138250Y41250D02*
Y59750D01*
X103750Y41250D02*
X138250D01*
X103750D02*
Y59750D01*
X138250D01*
X83250Y27750D02*
X103750D01*
X83250D02*
Y73750D01*
X103750D01*
Y27750D02*
Y73750D01*
X178000Y48000D02*
X198500D01*
X178000D02*
Y94000D01*
X198500D01*
Y48000D02*
Y94000D01*
X143750Y61750D02*
Y64500D01*
Y90750D01*
Y93750D01*
Y94000D01*
X175250D01*
Y88500D02*
Y94000D01*
Y54500D02*
Y88500D01*
X143750Y54500D02*
X175250D01*
X143750D02*
Y61750D01*
X122500Y59500D02*
X141000D01*
X122500D02*
Y94000D01*
X141000D01*
Y59500D02*
Y94000D01*
X103750Y59750D02*
X122250D01*
X103750D02*
Y94250D01*
X122250D01*
Y59750D02*
Y94250D01*
X132250Y201000D02*
X178250D01*
Y221500D01*
X132250D02*
X178250D01*
X132250Y201000D02*
Y221500D01*
X57750Y73750D02*
Y94250D01*
X103750D01*
Y73750D02*
Y94250D01*
X57750Y73750D02*
X103750D01*
X70000Y73500D02*
X83500D01*
Y48000D02*
Y73500D01*
X70000Y48000D02*
X83500D01*
X70000D02*
Y73500D01*
X160500Y96500D02*
Y117000D01*
X206500D01*
Y96500D02*
Y117000D01*
X160500Y96500D02*
X206500D01*
X160500Y117250D02*
Y137750D01*
X206500D01*
Y117250D02*
Y137750D01*
X160500Y117250D02*
X206500D01*
X60250Y173500D02*
Y194000D01*
X14250Y173500D02*
X60250D01*
X14250D02*
Y194000D01*
X60250D01*
X77000Y117500D02*
X139000D01*
X77000Y179500D02*
X139000D01*
Y117500D02*
Y179500D01*
X77000Y117500D02*
Y179500D01*
X21000Y109000D02*
X41500D01*
X21000D02*
Y155000D01*
X41500D01*
Y109000D02*
Y155000D01*
X500Y109000D02*
X21000D01*
X500D02*
Y155000D01*
X21000D01*
Y109000D02*
Y155000D01*
X35000D02*
Y173500D01*
X500Y155000D02*
X35000D01*
X500D02*
Y173500D01*
X35000D01*
X35000Y72000D02*
Y90500D01*
X500Y72000D02*
X35000D01*
X500D02*
Y90500D01*
X35000D01*
X35000D02*
Y109000D01*
X500Y90500D02*
X35000D01*
X500D02*
Y109000D01*
X35000D01*
X66000Y249000D02*
Y269500D01*
X112000D01*
Y249000D02*
Y269500D01*
X66000Y249000D02*
X112000D01*
X72500Y247250D02*
X86000D01*
Y221750D02*
Y247250D01*
X72500Y221750D02*
X86000D01*
X72500D02*
Y247250D01*
X85250Y226500D02*
Y247000D01*
X131250D01*
Y226500D02*
Y247000D01*
X85250Y226500D02*
X131250D01*
X148250Y235000D02*
Y269500D01*
X129750D02*
X148250D01*
X129750Y235000D02*
Y269500D01*
Y235000D02*
X148250D01*
X97500Y225500D02*
X132000D01*
X97500Y207000D02*
Y225500D01*
Y207000D02*
X132000D01*
Y225500D01*
X167000Y235000D02*
Y269500D01*
X148500D02*
X167000D01*
X148500Y235000D02*
Y269500D01*
Y235000D02*
X167000D01*
X224250Y55500D02*
X275000D01*
X205500D02*
X224250D01*
X205500Y2000D02*
Y55500D01*
Y2000D02*
X216250D01*
X282000D01*
Y9750D01*
Y55500D01*
X275000D02*
X282000D01*
X242000Y64250D02*
X255500D01*
X242000D02*
Y89750D01*
X255500D01*
Y64250D02*
Y89750D01*
X169250Y235000D02*
X182750D01*
X169250D02*
Y260500D01*
X182750D01*
Y235000D02*
Y260500D01*
X242000Y64250D02*
Y137750D01*
X206500D02*
X242000D01*
X206500Y64250D02*
Y137750D01*
Y64250D02*
X242000D01*
D25*
X229000Y172250D02*
G03*
X229000Y172250I-3000J0D01*
G01*
X132250Y127250D02*
G03*
X132250Y127250I-3000J0D01*
G01*
D29*
X356000Y19000D02*
G03*
X358074Y20998I0J2076D01*
G01*
X358830Y20970D02*
G03*
X356000Y19000I0J-3018D01*
G01*
X347176Y20998D02*
G03*
X349250Y19000I2074J77D01*
G01*
D02*
G03*
X346420Y20970I-2830J-1047D01*
G01*
X356750Y25750D02*
X364500Y33500D01*
Y19398D02*
Y33500D01*
X362352Y17250D02*
X364500Y19398D01*
X339352Y20148D02*
X341500Y18000D01*
X339352Y20148D02*
Y34250D01*
X347102Y26500D01*
D50*
X325000Y75500D02*
G03*
X325000Y75500I-1250J0D01*
G01*
X237550Y149500D02*
G03*
X237550Y149500I-1250J0D01*
G01*
X144250Y106250D02*
G03*
X144250Y106250I-1250J0D01*
G01*
D80*
X362352Y17250D02*
G03*
X362352Y17250I-9852J0D01*
G01*
X349972Y12629D02*
G03*
X355083Y12600I2562J1118D01*
G01*
M02*
