M48
;Layer_Color=9474304
;FILE_FORMAT=4:4
METRIC,LZ
;TYPE=PLATED
T1F00S00C0.3000
T2F00S00C1.0000
T3F00S00C3.1000
;TYPE=NON_PLATED
T4F00S00C0.9000
%
T01
X0006Y0001
X0007
X0008
X00075Y00020001
X0008Y00030001
X00075Y00040001
X0007377Y0005502
X00096005Y00076741
X001305Y00077
X001315Y0005425
X001215Y00022
X00105Y00020001
X0011Y0001
X001055Y0011675
X00113756Y00123493
X0012Y00130001
X00107505Y00130993
X00105Y00140001
X00115
X0011775Y0015325
X00106505Y00149244
X0010125Y0015475
X00102755Y00174495
X0011075Y0017425
X00119Y0017425
X00127756Y00166758
X001385Y00169576
X0013725Y00141
Y0013075
X00133Y0012025
X001465Y001095
X0007875Y0010625
X0006875Y0010275
X00053Y000985
X00050589Y00082
X00037752Y00103242
X0003475Y001275
X00023501Y00127493
X00016001Y00128243
X000155Y00145
X00036002Y00145744
X00047252Y00149244
X0004925Y0016625
X0004075Y0017925
X0003925Y0018975
X000055Y0017675
X000065Y0011575
X0000725Y000845
X00050753Y00132493
X0009625Y001365
X000775Y0016725
X00079Y00177
X00151Y001855
X00186509Y00187246
X00202Y0018725
X0020225Y00155
X0021525Y0015475
X0019925Y0013075
X0019875Y00106221
X00181Y001065
X00188009Y00114742
X00178759Y00122993
X00171Y0010075
X00216761Y00099242
X00221511Y00092741
X0021Y0008825
X00215Y00060001
X00225
X00235
X00226Y00035
X002181Y000224
X0022675Y00012
X00198Y0001525
X00185Y00020001
X00155
X0016Y00030001
X0015125Y000365
X0018825Y00055858
X0018975Y0007
X002535Y0009825
X00257Y0010875
X0029Y0012625
X0028325Y0015
X00285Y00160001
X003Y00150001
X00312Y0015275
X00319Y0016375
X00335016Y00141494
X00317015Y00104492
X0034125Y0009025
X00374518Y00078741
X00415Y00080001
Y00100001
X00425
X00435
X00405
X00395
X0039Y00130001
X00395Y00140001
X0041Y00130001
X0042Y00170001
X0043
Y00070001
X00435Y00060001
X00365Y00040001
X00355
X00345
X0033Y00030001
X0032
X0031
X00315Y00040001
X00305
Y00020001
X00315
X00325
X0032Y0001
X0033
X0031
X003
X002875Y0001
X002836Y000224
X00268013Y00035238
X0027425Y0004725
X00375Y00020001
X0038Y0001
X0018225Y001735
X0018175Y0019325
X00174009Y00193246
X001625Y0019075
X0015975Y001985
X00151Y0020775
X00153507Y00220011
X0015114Y002275
X0016925Y002125
X00179009Y00217761
X001795Y0023975
X00219144Y0023725
X00225849Y002175
X00191509Y0020626
X00191009Y00198246
X0019925Y00197769
X002845Y00191
X003115Y002345
X00291Y002555
X0026575Y002565
X0037Y00250001
X00375Y00260001
X00385
Y00200001
X00425
X00435
X00345Y00220001
X00112755Y00206247
X00091255Y00223748
X00082Y002165
X00069253Y00198246
X0007425Y0025075
X00087254Y00259249
X0008875Y00242386
X00119756Y00248499
X0011225Y0025725
X00137Y0026425
X0001Y00210001
T02
X0040205Y00087
X0042745
X004272Y00119
X004018
Y0015075
X004272
Y00183
X004018
X0035675Y0022575
Y0025115
X0033135
Y0022575
T03
X0004Y0004
X00404
Y0023
X0004
T04
X002865Y000465
X003305
M30
